<svg width="76" height="73" viewBox="0 0 76 73" fill="none" xmlns="http://www.w3.org/2000/svg">
<path d="M38.001 9.5L49.0843 20.5833" stroke="black" stroke-width="3.16667" stroke-miterlimit="10"/>
<path d="M38.001 20.5833L49.0843 9.5" stroke="black" stroke-width="3.16667" stroke-miterlimit="10"/>
<path d="M60.9587 39.5833C64.0192 39.5833 66.5003 37.1022 66.5003 34.0417C66.5003 30.9811 64.0192 28.5 60.9587 28.5C57.8981 28.5 55.417 30.9811 55.417 34.0417C55.417 37.1022 57.8981 39.5833 60.9587 39.5833Z" stroke="black" stroke-width="3.16667" stroke-miterlimit="10"/>
<path d="M44.334 41.1667V34.3583C44.334 31.2708 46.1548 28.4683 49.0048 27.17L57.0798 23.4967C59.9298 22.1983 61.7507 19.3958 61.7507 16.3083V9.5" stroke="black" stroke-width="3.16667" stroke-miterlimit="10"/>
<path d="M68.0837 15.8333L61.7503 9.5L55.417 15.8333" stroke="black" stroke-width="3.16667" stroke-miterlimit="10"/>
<path d="M30.084 20.5834V1.58337H74.4173V47.5H30.084V36.4167" stroke="black" stroke-width="3.16667" stroke-miterlimit="10"/>
<path d="M15.8343 20.5833C19.4601 20.5833 22.1676 17.5433 22.1676 13.7908V11.5425C22.1676 7.79 19.4601 4.75 15.8343 4.75C12.2085 4.75 9.50098 7.79 9.50098 11.5425V13.8067C9.50098 17.5433 12.2085 20.5833 15.8343 20.5833Z" stroke="black" stroke-width="3.16667" stroke-miterlimit="10"/>
<path d="M23.7507 72.8334V31.6667H33.2507C38.0323 31.6667 39.584 28.8484 39.584 25.3334C37.114 25.3334 12.414 25.3334 9.50065 25.3334C3.83232 25.3334 1.58398 27.7242 1.58398 34.8334V45.9167C1.58398 49.3209 2.94565 52.25 6.33398 52.25H7.91732" stroke="black" stroke-width="3.16667" stroke-miterlimit="10"/>
<path d="M15.834 47.5V72.8333" stroke="black" stroke-width="3.16667" stroke-miterlimit="10"/>
<path d="M7.91699 34.8334V72.8334" stroke="black" stroke-width="3.16667" stroke-miterlimit="10"/>
</svg>
