<svg width="80" height="50" viewBox="0 0 80 50" fill="none" xmlns="http://www.w3.org/2000/svg">
<path fill-rule="evenodd" clip-rule="evenodd" d="M5 20.408C5 25.2996 5.02409 27.816 5.07084 27.816C5.11023 27.816 5.14168 28.0041 5.14168 28.2393C5.14168 28.4744 5.17314 28.6626 5.21253 28.6626C5.25149 28.6626 5.28337 28.7896 5.28337 28.9448C5.28337 29.1 5.31525 29.227 5.35421 29.227C5.39317 29.227 5.42505 29.3222 5.42505 29.4387C5.42505 29.5551 5.45693 29.6503 5.49589 29.6503C5.53486 29.6503 5.56674 29.7456 5.56674 29.862C5.56674 29.9784 5.59861 30.0736 5.63758 30.0736C5.67654 30.0736 5.70842 30.1371 5.70842 30.2147C5.70842 30.2923 5.7403 30.3558 5.77926 30.3558C5.81822 30.3558 5.8501 30.4511 5.8501 30.5675C5.8501 30.6839 5.88198 30.7791 5.92094 30.7791C5.95991 30.7791 5.99179 30.8357 5.99179 30.9047C5.99179 30.9737 6.05554 31.076 6.13347 31.1319C6.2114 31.1878 6.27515 31.2901 6.27515 31.3592C6.27515 31.4282 6.30703 31.4847 6.346 31.4847C6.38496 31.4847 6.41684 31.5412 6.41684 31.6102C6.41684 31.6792 6.4806 31.7815 6.55852 31.8374C6.63645 31.8934 6.70021 31.9829 6.70021 32.0364C6.70021 32.0898 6.79584 32.2226 6.91273 32.3313C7.02962 32.44 7.12526 32.5644 7.12526 32.6076C7.12526 32.7094 8.16111 33.7423 8.26312 33.7423C8.30577 33.7423 8.46318 33.8693 8.61294 34.0245C8.7627 34.1798 8.92847 34.3067 8.98138 34.3067C9.0343 34.3067 9.12349 34.3702 9.17967 34.4479C9.23585 34.5255 9.3385 34.589 9.40785 34.589C9.47714 34.589 9.53388 34.6207 9.53388 34.6595C9.53388 34.6983 9.59764 34.7301 9.67556 34.7301C9.75349 34.7301 9.81725 34.7618 9.81725 34.8006C9.81725 34.8394 9.88101 34.8712 9.95893 34.8712C10.0369 34.8712 10.1006 34.9029 10.1006 34.9417C10.1006 34.9805 10.1644 35.0123 10.2423 35.0123C10.3202 35.0123 10.384 35.044 10.384 35.0828C10.384 35.1216 10.4477 35.1534 10.5257 35.1534C10.6036 35.1534 10.6674 35.1851 10.6674 35.2239C10.6674 35.2627 10.7311 35.2945 10.809 35.2945C10.887 35.2945 10.9507 35.3262 10.9507 35.365C10.9507 35.4038 11.0464 35.4356 11.1632 35.4356C11.2801 35.4356 11.3758 35.4673 11.3758 35.5061C11.3758 35.5449 11.4714 35.5767 11.5883 35.5767C11.7052 35.5767 11.8008 35.6084 11.8008 35.6472C11.8008 35.686 11.9602 35.7178 12.155 35.7178C12.3498 35.7178 12.5092 35.7495 12.5092 35.7883C12.5092 35.8276 12.6982 35.8589 12.9343 35.8589C13.1704 35.8589 13.3593 35.8902 13.3593 35.9294C13.3593 35.9756 14.6345 36 17.0431 36H20.7269V33.6718V31.3436H17.1848C14.8706 31.3436 13.6427 31.3191 13.6427 31.273C13.6427 31.2342 13.4833 31.2025 13.2885 31.2025C13.0937 31.2025 12.9343 31.1707 12.9343 31.1319C12.9343 31.0931 12.8387 31.0613 12.7218 31.0613C12.6049 31.0613 12.5092 31.0296 12.5092 30.9908C12.5092 30.952 12.4455 30.9202 12.3676 30.9202C12.2896 30.9202 12.2259 30.8885 12.2259 30.8497C12.2259 30.8109 12.1691 30.7791 12.0998 30.7791C12.0305 30.7791 11.9278 30.7156 11.8717 30.638C11.8155 30.5604 11.7283 30.4969 11.6778 30.4969C11.5581 30.4969 10.5257 29.4687 10.5257 29.3495C10.5257 29.2992 10.4619 29.2124 10.384 29.1564C10.3061 29.1005 10.2423 28.9983 10.2423 28.9292C10.2423 28.8602 10.2104 28.8037 10.1715 28.8037C10.1325 28.8037 10.1006 28.7402 10.1006 28.6626C10.1006 28.585 10.0687 28.5215 10.0298 28.5215C9.99081 28.5215 9.95893 28.4262 9.95893 28.3098C9.95893 28.1934 9.92705 28.0982 9.88809 28.0982C9.84913 28.0982 9.81725 28.0029 9.81725 27.8865C9.81725 27.7701 9.78537 27.6748 9.74641 27.6748C9.70596 27.6748 9.67556 27.4632 9.67556 27.181V26.6871H15.2012H20.7269V24.3589V22.0307H15.2012H9.67556V19.8436V17.6564H15.2012H20.7269V15.3282V13H12.8634H5V20.408ZM23.4189 24.5V36H25.9692H28.5195V31.908V27.816H31.6365C33.6674 27.816 34.7536 27.7914 34.7536 27.7454C34.7536 27.7066 34.913 27.6748 35.1078 27.6748C35.3026 27.6748 35.462 27.6431 35.462 27.6043C35.462 27.5655 35.5895 27.5337 35.7454 27.5337C35.9012 27.5337 36.0287 27.502 36.0287 27.4632C36.0287 27.4244 36.1244 27.3926 36.2413 27.3926C36.3582 27.3926 36.4538 27.3609 36.4538 27.3221C36.4538 27.2833 36.5176 27.2515 36.5955 27.2515C36.6734 27.2515 36.7372 27.2198 36.7372 27.181C36.7372 27.1422 36.8009 27.1104 36.8788 27.1104C36.9568 27.1104 37.0205 27.0787 37.0205 27.0399C37.0205 27.0011 37.0843 26.9693 37.1622 26.9693C37.2401 26.9693 37.3039 26.9376 37.3039 26.8988C37.3039 26.86 37.3677 26.8282 37.4456 26.8282C37.5235 26.8282 37.5873 26.7965 37.5873 26.7577C37.5873 26.7189 37.644 26.6871 37.7133 26.6871C37.7826 26.6871 37.8853 26.6236 37.9415 26.546C37.9977 26.4684 38.0847 26.4049 38.135 26.4049C38.2544 26.4049 39.7125 24.9527 39.7125 24.8339C39.7125 24.7838 39.7763 24.6971 39.8542 24.6411C39.9321 24.5852 39.9959 24.4899 39.9959 24.4294C39.9959 24.369 40.0597 24.2737 40.1376 24.2178C40.2155 24.1618 40.2793 24.0596 40.2793 23.9905C40.2793 23.9215 40.3111 23.865 40.3501 23.865C40.3891 23.865 40.4209 23.8015 40.4209 23.7239C40.4209 23.6463 40.4528 23.5828 40.4918 23.5828C40.5307 23.5828 40.5626 23.5193 40.5626 23.4417C40.5626 23.3641 40.5945 23.3006 40.6335 23.3006C40.6724 23.3006 40.7043 23.2054 40.7043 23.089C40.7043 22.9725 40.7362 22.8773 40.7752 22.8773C40.8141 22.8773 40.846 22.7821 40.846 22.6656C40.846 22.5492 40.8779 22.454 40.9168 22.454C40.9558 22.454 40.9877 22.327 40.9877 22.1718C40.9877 22.0166 41.0196 21.8896 41.0585 21.8896C41.1035 21.8896 41.1294 21.3486 41.1294 20.408C41.1294 19.4673 41.1035 18.9264 41.0585 18.9264C41.0196 18.9264 40.9877 18.7994 40.9877 18.6442C40.9877 18.489 40.9558 18.362 40.9168 18.362C40.8779 18.362 40.846 18.2667 40.846 18.1503C40.846 18.0339 40.8141 17.9387 40.7752 17.9387C40.7362 17.9387 40.7043 17.8434 40.7043 17.727C40.7043 17.6106 40.6724 17.5153 40.6335 17.5153C40.5945 17.5153 40.5626 17.4518 40.5626 17.3742C40.5626 17.2966 40.5307 17.2331 40.4918 17.2331C40.4528 17.2331 40.4209 17.1696 40.4209 17.092C40.4209 17.0144 40.3891 16.9509 40.3501 16.9509C40.3111 16.9509 40.2793 16.8944 40.2793 16.8254C40.2793 16.7563 40.2155 16.6541 40.1376 16.5982C40.0597 16.5422 39.9959 16.447 39.9959 16.3865C39.9959 16.326 39.9321 16.2308 39.8542 16.1748C39.7763 16.1189 39.7125 16.0322 39.7125 15.9821C39.7125 15.8632 38.2544 14.411 38.135 14.411C38.0847 14.411 37.9977 14.3475 37.9415 14.2699C37.8853 14.1923 37.7826 14.1288 37.7133 14.1288C37.644 14.1288 37.5873 14.0971 37.5873 14.0583C37.5873 14.0195 37.5235 13.9877 37.4456 13.9877C37.3677 13.9877 37.3039 13.956 37.3039 13.9172C37.3039 13.8784 37.2401 13.8466 37.1622 13.8466C37.0843 13.8466 37.0205 13.8149 37.0205 13.7761C37.0205 13.7373 36.9568 13.7055 36.8788 13.7055C36.8009 13.7055 36.7372 13.6738 36.7372 13.635C36.7372 13.5962 36.6734 13.5644 36.5955 13.5644C36.5176 13.5644 36.4538 13.5327 36.4538 13.4939C36.4538 13.4551 36.3582 13.4233 36.2413 13.4233C36.1244 13.4233 36.0287 13.3916 36.0287 13.3528C36.0287 13.314 35.9331 13.2822 35.8162 13.2822C35.6993 13.2822 35.6037 13.2505 35.6037 13.2117C35.6037 13.1724 35.4148 13.1411 35.1786 13.1411C34.9425 13.1411 34.7536 13.1098 34.7536 13.0706C34.7536 13.0241 32.8173 13 29.0862 13H23.4189V24.5ZM46.23 13.1411C46.23 13.2187 46.1981 13.2822 46.1591 13.2822C46.1202 13.2822 46.0883 13.3457 46.0883 13.4233C46.0883 13.5009 46.0564 13.5644 46.0175 13.5644C45.9785 13.5644 45.9466 13.6597 45.9466 13.7761C45.9466 13.8925 45.9147 13.9877 45.8758 13.9877C45.8368 13.9877 45.8049 14.083 45.8049 14.1994C45.8049 14.3158 45.773 14.411 45.7341 14.411C45.6951 14.411 45.6632 14.4745 45.6632 14.5521C45.6632 14.6298 45.6314 14.6933 45.5924 14.6933C45.5534 14.6933 45.5216 14.7885 45.5216 14.9049C45.5216 15.0213 45.4897 15.1166 45.4507 15.1166C45.4118 15.1166 45.3799 15.1801 45.3799 15.2577C45.3799 15.3353 45.348 15.3988 45.309 15.3988C45.2701 15.3988 45.2382 15.494 45.2382 15.6104C45.2382 15.7268 45.2063 15.8221 45.1674 15.8221C45.1284 15.8221 45.0965 15.9173 45.0965 16.0337C45.0965 16.1502 45.0646 16.2454 45.0257 16.2454C44.9867 16.2454 44.9548 16.3089 44.9548 16.3865C44.9548 16.4641 44.9229 16.5276 44.884 16.5276C44.845 16.5276 44.8131 16.6229 44.8131 16.7393C44.8131 16.8557 44.7813 16.9509 44.7423 16.9509C44.7033 16.9509 44.6715 17.0462 44.6715 17.1626C44.6715 17.279 44.6396 17.3742 44.6006 17.3742C44.5617 17.3742 44.5298 17.4377 44.5298 17.5153C44.5298 17.5929 44.4979 17.6564 44.4589 17.6564C44.42 17.6564 44.3881 17.7517 44.3881 17.8681C44.3881 17.9845 44.3562 18.0798 44.3172 18.0798C44.2783 18.0798 44.2464 18.175 44.2464 18.2914C44.2464 18.4078 44.2145 18.5031 44.1756 18.5031C44.1366 18.5031 44.1047 18.5666 44.1047 18.6442C44.1047 18.7218 44.0728 18.7853 44.0339 18.7853C43.9949 18.7853 43.963 18.8805 43.963 18.9969C43.963 19.1133 43.9312 19.2086 43.8922 19.2086C43.8532 19.2086 43.8214 19.3038 43.8214 19.4202C43.8214 19.5367 43.7895 19.6319 43.7505 19.6319C43.7115 19.6319 43.6797 19.6954 43.6797 19.773C43.6797 19.8506 43.6478 19.9141 43.6088 19.9141C43.5699 19.9141 43.538 20.0094 43.538 20.1258C43.538 20.2422 43.5061 20.3374 43.4671 20.3374C43.4282 20.3374 43.3963 20.4327 43.3963 20.5491C43.3963 20.6655 43.3644 20.7607 43.3255 20.7607C43.2865 20.7607 43.2546 20.8242 43.2546 20.9018C43.2546 20.9794 43.2227 21.0429 43.1838 21.0429C43.1448 21.0429 43.1129 21.1382 43.1129 21.2546C43.1129 21.371 43.0811 21.4663 43.0421 21.4663C43.0031 21.4663 42.9713 21.5298 42.9713 21.6074C42.9713 21.685 42.9394 21.7485 42.9004 21.7485C42.8614 21.7485 42.8296 21.8437 42.8296 21.9601C42.8296 22.0765 42.7977 22.1718 42.7587 22.1718C42.7198 22.1718 42.6879 22.267 42.6879 22.3834C42.6879 22.4998 42.656 22.5951 42.617 22.5951C42.5781 22.5951 42.5462 22.6586 42.5462 22.7362C42.5462 22.8138 42.5143 22.8773 42.4754 22.8773C42.4364 22.8773 42.4045 22.9725 42.4045 23.089C42.4045 23.2054 42.3726 23.3006 42.3337 23.3006C42.2947 23.3006 42.2628 23.3959 42.2628 23.5123C42.2628 23.6287 42.231 23.7239 42.192 23.7239C42.153 23.7239 42.1211 23.7874 42.1211 23.865C42.1211 23.9426 42.0893 24.0061 42.0503 24.0061C42.0113 24.0061 41.9795 24.1014 41.9795 24.2178C41.9795 24.3342 41.9476 24.4294 41.9086 24.4294C41.8697 24.4294 41.8378 24.5247 41.8378 24.6411C41.8378 24.7575 41.8059 24.8528 41.7669 24.8528C41.728 24.8528 41.6961 24.9163 41.6961 24.9939C41.6961 25.0715 41.6642 25.135 41.6253 25.135C41.5863 25.135 41.5544 25.2302 41.5544 25.3466C41.5544 25.463 41.5225 25.5583 41.4836 25.5583C41.4446 25.5583 41.4127 25.6535 41.4127 25.7699C41.4127 25.8863 41.3809 25.9816 41.3419 25.9816C41.3029 25.9816 41.271 26.0451 41.271 26.1227C41.271 26.2003 41.2392 26.2638 41.2002 26.2638C41.1612 26.2638 41.1294 26.359 41.1294 26.4755C41.1294 26.5919 41.0975 26.6871 41.0585 26.6871C41.0196 26.6871 40.9877 26.7506 40.9877 26.8282C40.9877 26.9058 40.9558 26.9693 40.9168 26.9693C40.8779 26.9693 40.846 27.0646 40.846 27.181C40.846 27.2974 40.8141 27.3926 40.7752 27.3926C40.7362 27.3926 40.7043 27.4879 40.7043 27.6043C40.7043 27.7207 40.6724 27.816 40.6335 27.816C40.5945 27.816 40.5626 27.8794 40.5626 27.9571C40.5626 28.0347 40.5307 28.0982 40.4918 28.0982C40.4528 28.0982 40.4209 28.1934 40.4209 28.3098C40.4209 28.4262 40.3891 28.5215 40.3501 28.5215C40.3111 28.5215 40.2793 28.6167 40.2793 28.7331C40.2793 28.8495 40.2474 28.9448 40.2084 28.9448C40.1695 28.9448 40.1376 29.0083 40.1376 29.0859C40.1376 29.1635 40.1057 29.227 40.0667 29.227C40.0278 29.227 39.9959 29.3222 39.9959 29.4387C39.9959 29.5551 39.964 29.6503 39.925 29.6503C39.8861 29.6503 39.8542 29.7456 39.8542 29.862C39.8542 29.9784 39.8223 30.0736 39.7834 30.0736C39.7444 30.0736 39.7125 30.1371 39.7125 30.2147C39.7125 30.2923 39.6806 30.3558 39.6417 30.3558C39.6027 30.3558 39.5708 30.4511 39.5708 30.5675C39.5708 30.6839 39.539 30.7791 39.5 30.7791C39.461 30.7791 39.4292 30.8744 39.4292 30.9908C39.4292 31.1072 39.3973 31.2025 39.3583 31.2025C39.3194 31.2025 39.2875 31.266 39.2875 31.3436C39.2875 31.4212 39.2556 31.4847 39.2166 31.4847C39.1777 31.4847 39.1458 31.5799 39.1458 31.6963C39.1458 31.8127 39.1139 31.908 39.0749 31.908C39.036 31.908 39.0041 31.9715 39.0041 32.0491C39.0041 32.1267 38.9722 32.1902 38.9333 32.1902C38.8943 32.1902 38.8624 32.2854 38.8624 32.4018C38.8624 32.5183 38.8305 32.6135 38.7916 32.6135C38.7526 32.6135 38.7207 32.7087 38.7207 32.8252C38.7207 32.9416 38.6889 33.0368 38.6499 33.0368C38.6109 33.0368 38.5791 33.1003 38.5791 33.1779C38.5791 33.2555 38.5472 33.319 38.5082 33.319C38.4692 33.319 38.4374 33.4143 38.4374 33.5307C38.4374 33.6471 38.4055 33.7423 38.3665 33.7423C38.3276 33.7423 38.2957 33.8376 38.2957 33.954C38.2957 34.0704 38.2638 34.1656 38.2248 34.1656C38.1859 34.1656 38.154 34.2291 38.154 34.3067C38.154 34.3844 38.1221 34.4479 38.0832 34.4479C38.0442 34.4479 38.0123 34.5431 38.0123 34.6595C38.0123 34.7759 37.9804 34.8712 37.9415 34.8712C37.9025 34.8712 37.8706 34.9664 37.8706 35.0828C37.8706 35.1992 37.8388 35.2945 37.7998 35.2945C37.7608 35.2945 37.729 35.358 37.729 35.4356C37.729 35.5132 37.6971 35.5767 37.6581 35.5767C37.6191 35.5767 37.5873 35.6719 37.5873 35.7883V36H40.0667C42.4989 36 42.5462 35.9973 42.5462 35.8589C42.5462 35.7813 42.5781 35.7178 42.617 35.7178C42.656 35.7178 42.6879 35.6225 42.6879 35.5061C42.6879 35.3897 42.7198 35.2945 42.7587 35.2945C42.7977 35.2945 42.8296 35.1992 42.8296 35.0828C42.8296 34.9664 42.8614 34.8712 42.9004 34.8712C42.9394 34.8712 42.9713 34.8077 42.9713 34.7301C42.9713 34.6525 43.0031 34.589 43.0421 34.589C43.0811 34.589 43.1129 34.4937 43.1129 34.3773C43.1129 34.2609 43.1448 34.1656 43.1838 34.1656C43.2227 34.1656 43.2546 34.1021 43.2546 34.0245C43.2546 33.9469 43.2865 33.8834 43.3255 33.8834C43.3644 33.8834 43.3963 33.7882 43.3963 33.6718C43.3963 33.5554 43.4282 33.4601 43.4671 33.4601C43.5061 33.4601 43.538 33.3649 43.538 33.2485C43.538 33.1321 43.5699 33.0368 43.6088 33.0368C43.6478 33.0368 43.6797 32.9733 43.6797 32.8957C43.6797 32.8181 43.7115 32.7546 43.7505 32.7546C43.7895 32.7546 43.8214 32.6911 43.8214 32.6135C43.8214 32.4738 43.8686 32.4724 48.6082 32.4724C53.8038 32.4724 53.5975 32.4566 53.5975 32.8554C53.5975 32.9552 53.6294 33.0368 53.6684 33.0368C53.7073 33.0368 53.7392 33.1003 53.7392 33.1779C53.7392 33.2555 53.7711 33.319 53.8101 33.319C53.849 33.319 53.8809 33.4143 53.8809 33.5307C53.8809 33.6471 53.9128 33.7423 53.9517 33.7423C53.9907 33.7423 54.0226 33.8376 54.0226 33.954C54.0226 34.0704 54.0545 34.1656 54.0934 34.1656C54.1324 34.1656 54.1643 34.2291 54.1643 34.3067C54.1643 34.3844 54.1961 34.4479 54.2351 34.4479C54.2741 34.4479 54.306 34.5431 54.306 34.6595C54.306 34.7759 54.3378 34.8712 54.3768 34.8712C54.4158 34.8712 54.4476 34.9664 54.4476 35.0828C54.4476 35.1992 54.4795 35.2945 54.5185 35.2945C54.5574 35.2945 54.5893 35.358 54.5893 35.4356C54.5893 35.5132 54.6212 35.5767 54.6602 35.5767C54.6991 35.5767 54.731 35.6719 54.731 35.7883V36H57.2813C58.9343 36 59.8316 35.9752 59.8316 35.9294C59.8316 35.8906 59.7997 35.8589 59.7608 35.8589C59.7218 35.8589 59.6899 35.7954 59.6899 35.7178C59.6899 35.6402 59.6581 35.5767 59.6191 35.5767C59.5801 35.5767 59.5483 35.4814 59.5483 35.365C59.5483 35.2486 59.5164 35.1534 59.4774 35.1534C59.4384 35.1534 59.4066 35.0581 59.4066 34.9417C59.4066 34.8253 59.3747 34.7301 59.3357 34.7301C59.2968 34.7301 59.2649 34.6666 59.2649 34.589C59.2649 34.5114 59.233 34.4479 59.194 34.4479C59.1551 34.4479 59.1232 34.3526 59.1232 34.2362C59.1232 34.1198 59.0913 34.0245 59.0524 34.0245C59.0134 34.0245 58.9815 33.9293 58.9815 33.8129C58.9815 33.6965 58.9496 33.6012 58.9107 33.6012C58.8717 33.6012 58.8398 33.5377 58.8398 33.4601C58.8398 33.3825 58.808 33.319 58.769 33.319C58.73 33.319 58.6982 33.2238 58.6982 33.1074C58.6982 32.991 58.6663 32.8957 58.6273 32.8957C58.5883 32.8957 58.5565 32.8005 58.5565 32.684C58.5565 32.5676 58.5246 32.4724 58.4856 32.4724C58.4467 32.4724 58.4148 32.4089 58.4148 32.3313C58.4148 32.2537 58.3829 32.1902 58.3439 32.1902C58.305 32.1902 58.2731 32.0949 58.2731 31.9785C58.2731 31.8621 58.2412 31.7669 58.2023 31.7669C58.1633 31.7669 58.1314 31.6716 58.1314 31.5552C58.1314 31.4388 58.0995 31.3436 58.0606 31.3436C58.0216 31.3436 57.9897 31.2801 57.9897 31.2025C57.9897 31.1248 57.9579 31.0613 57.9189 31.0613C57.8799 31.0613 57.848 30.9661 57.848 30.8497C57.848 30.7333 57.8162 30.638 57.7772 30.638C57.7382 30.638 57.7064 30.5745 57.7064 30.4969C57.7064 30.4193 57.6745 30.3558 57.6355 30.3558C57.5966 30.3558 57.5647 30.2606 57.5647 30.1442C57.5647 30.0278 57.5328 29.9325 57.4938 29.9325C57.4549 29.9325 57.423 29.8373 57.423 29.7209C57.423 29.6044 57.3911 29.5092 57.3522 29.5092C57.3132 29.5092 57.2813 29.4457 57.2813 29.3681C57.2813 29.2905 57.2494 29.227 57.2105 29.227C57.1715 29.227 57.1396 29.1317 57.1396 29.0153C57.1396 28.8989 57.1077 28.8037 57.0688 28.8037C57.0298 28.8037 56.9979 28.7084 56.9979 28.592C56.9979 28.4756 56.9661 28.3804 56.9271 28.3804C56.8881 28.3804 56.8563 28.3169 56.8563 28.2393C56.8563 28.1617 56.8244 28.0982 56.7854 28.0982C56.7465 28.0982 56.7146 28.0029 56.7146 27.8865C56.7146 27.7701 56.6827 27.6748 56.6437 27.6748C56.6048 27.6748 56.5729 27.5796 56.5729 27.4632C56.5729 27.3468 56.541 27.2515 56.5021 27.2515C56.4631 27.2515 56.4312 27.188 56.4312 27.1104C56.4312 27.0328 56.3993 26.9693 56.3604 26.9693C56.3214 26.9693 56.2895 26.8741 56.2895 26.7577C56.2895 26.6413 56.2576 26.546 56.2187 26.546C56.1797 26.546 56.1478 26.4508 56.1478 26.3344C56.1478 26.2179 56.116 26.1227 56.077 26.1227C56.038 26.1227 56.0062 26.0592 56.0062 25.9816C56.0062 25.904 55.9743 25.8405 55.9353 25.8405C55.8964 25.8405 55.8645 25.7452 55.8645 25.6288C55.8645 25.5124 55.8326 25.4172 55.7936 25.4172C55.7547 25.4172 55.7228 25.3537 55.7228 25.2761C55.7228 25.1985 55.6909 25.135 55.6519 25.135C55.613 25.135 55.5811 25.0397 55.5811 24.9233C55.5811 24.8069 55.5492 24.7117 55.5103 24.7117C55.4713 24.7117 55.4394 24.6164 55.4394 24.5C55.4394 24.3836 55.4075 24.2883 55.3686 24.2883C55.3296 24.2883 55.2977 24.2248 55.2977 24.1472C55.2977 24.0696 55.2659 24.0061 55.2269 24.0061C55.1879 24.0061 55.1561 23.9109 55.1561 23.7945C55.1561 23.6781 55.1242 23.5828 55.0852 23.5828C55.0462 23.5828 55.0144 23.4876 55.0144 23.3712C55.0144 23.2548 54.9825 23.1595 54.9435 23.1595C54.9046 23.1595 54.8727 23.096 54.8727 23.0184C54.8727 22.9408 54.8408 22.8773 54.8018 22.8773C54.7629 22.8773 54.731 22.7821 54.731 22.6656C54.731 22.5492 54.6991 22.454 54.6602 22.454C54.6212 22.454 54.5893 22.3587 54.5893 22.2423C54.5893 22.1259 54.5574 22.0307 54.5185 22.0307C54.4795 22.0307 54.4476 21.9672 54.4476 21.8896C54.4476 21.812 54.4158 21.7485 54.3768 21.7485C54.3378 21.7485 54.306 21.6532 54.306 21.5368C54.306 21.4204 54.2741 21.3252 54.2351 21.3252C54.1961 21.3252 54.1643 21.2299 54.1643 21.1135C54.1643 20.9971 54.1324 20.9018 54.0934 20.9018C54.0545 20.9018 54.0226 20.8383 54.0226 20.7607C54.0226 20.6831 53.9907 20.6196 53.9517 20.6196C53.9128 20.6196 53.8809 20.5244 53.8809 20.408C53.8809 20.2916 53.849 20.1963 53.8101 20.1963C53.7711 20.1963 53.7392 20.1328 53.7392 20.0552C53.7392 19.9776 53.7073 19.9141 53.6684 19.9141C53.6294 19.9141 53.5975 19.8189 53.5975 19.7025C53.5975 19.586 53.5657 19.4908 53.5267 19.4908C53.4877 19.4908 53.4558 19.3956 53.4558 19.2791C53.4558 19.1627 53.424 19.0675 53.385 19.0675C53.346 19.0675 53.3142 19.004 53.3142 18.9264C53.3142 18.8488 53.2823 18.7853 53.2433 18.7853C53.2044 18.7853 53.1725 18.69 53.1725 18.5736C53.1725 18.4572 53.1406 18.362 53.1016 18.362C53.0627 18.362 53.0308 18.2667 53.0308 18.1503C53.0308 18.0339 52.9989 17.9387 52.96 17.9387C52.921 17.9387 52.8891 17.8752 52.8891 17.7975C52.8891 17.7199 52.8572 17.6564 52.8183 17.6564C52.7793 17.6564 52.7474 17.5612 52.7474 17.4448C52.7474 17.3284 52.7156 17.2331 52.6766 17.2331C52.6376 17.2331 52.6057 17.1379 52.6057 17.0215C52.6057 16.9051 52.5739 16.8098 52.5349 16.8098C52.4959 16.8098 52.4641 16.7463 52.4641 16.6687C52.4641 16.5911 52.4322 16.5276 52.3932 16.5276C52.3543 16.5276 52.3224 16.4324 52.3224 16.316C52.3224 16.1995 52.2905 16.1043 52.2515 16.1043C52.2126 16.1043 52.1807 16.009 52.1807 15.8926C52.1807 15.7762 52.1488 15.681 52.1099 15.681C52.0709 15.681 52.039 15.6175 52.039 15.5399C52.039 15.4623 52.0071 15.3988 51.9682 15.3988C51.9292 15.3988 51.8973 15.3035 51.8973 15.1871C51.8973 15.0707 51.8654 14.9755 51.8265 14.9755C51.7875 14.9755 51.7556 14.912 51.7556 14.8344C51.7556 14.7567 51.7238 14.6933 51.6848 14.6933C51.6458 14.6933 51.614 14.598 51.614 14.4816C51.614 14.3652 51.5821 14.2699 51.5431 14.2699C51.5042 14.2699 51.4723 14.1747 51.4723 14.0583C51.4723 13.9419 51.4404 13.8466 51.4014 13.8466C51.3625 13.8466 51.3306 13.7831 51.3306 13.7055C51.3306 13.6279 51.2987 13.5644 51.2598 13.5644C51.2208 13.5644 51.1889 13.4828 51.1889 13.383C51.1889 13.0006 51.1851 13 48.6082 13C46.2772 13 46.23 13.0028 46.23 13.1411ZM66.7741 13.0706C66.7741 13.1098 66.5852 13.1411 66.3491 13.1411C66.113 13.1411 65.924 13.1724 65.924 13.2117C65.924 13.2505 65.7965 13.2822 65.6407 13.2822C65.4848 13.2822 65.3573 13.314 65.3573 13.3528C65.3573 13.3916 65.2617 13.4233 65.1448 13.4233C65.0279 13.4233 64.9322 13.4551 64.9322 13.4939C64.9322 13.5327 64.8366 13.5644 64.7197 13.5644C64.6028 13.5644 64.5072 13.5962 64.5072 13.635C64.5072 13.6738 64.4115 13.7055 64.2947 13.7055C64.1778 13.7055 64.0821 13.7373 64.0821 13.7761C64.0821 13.8149 64.0184 13.8466 63.9404 13.8466C63.8625 13.8466 63.7988 13.8784 63.7988 13.9172C63.7988 13.956 63.735 13.9877 63.6571 13.9877C63.5792 13.9877 63.5154 14.0195 63.5154 14.0583C63.5154 14.0971 63.4587 14.1288 63.3894 14.1288C63.32 14.1288 63.2174 14.1923 63.1612 14.2699C63.105 14.3475 63.0094 14.411 62.9487 14.411C62.888 14.411 62.7923 14.4745 62.7361 14.5521C62.68 14.6298 62.5901 14.6933 62.5364 14.6933C62.4827 14.6933 62.3494 14.7885 62.2402 14.9049C62.1311 15.0213 62.0063 15.1166 61.9629 15.1166C61.86 15.1166 60.6817 16.29 60.6817 16.3925C60.6817 16.4357 60.5861 16.56 60.4692 16.6687C60.3523 16.7774 60.2567 16.9102 60.2567 16.9636C60.2567 17.0171 60.1929 17.1066 60.115 17.1626C60.0371 17.2185 59.9733 17.3138 59.9733 17.3742C59.9733 17.4347 59.9095 17.5299 59.8316 17.5859C59.7537 17.6418 59.6899 17.7441 59.6899 17.8131C59.6899 17.8821 59.6581 17.9387 59.6191 17.9387C59.5801 17.9387 59.5483 18.0021 59.5483 18.0798C59.5483 18.1574 59.5164 18.2209 59.4774 18.2209C59.4384 18.2209 59.4066 18.3161 59.4066 18.4325C59.4066 18.5489 59.3747 18.6442 59.3357 18.6442C59.2968 18.6442 59.2649 18.7077 59.2649 18.7853C59.2649 18.8629 59.233 18.9264 59.194 18.9264C59.1551 18.9264 59.1232 19.0216 59.1232 19.138C59.1232 19.2544 59.0913 19.3497 59.0524 19.3497C59.0134 19.3497 58.9815 19.4449 58.9815 19.5613C58.9815 19.6778 58.9496 19.773 58.9107 19.773C58.8717 19.773 58.8398 19.9 58.8398 20.0552C58.8398 20.2104 58.808 20.3374 58.769 20.3374C58.7296 20.3374 58.6982 20.5256 58.6982 20.7607C58.6982 20.9959 58.6667 21.184 58.6273 21.184C58.5811 21.184 58.5565 22.3364 58.5565 24.5C58.5565 26.6636 58.5811 27.816 58.6273 27.816C58.6667 27.816 58.6982 28.0041 58.6982 28.2393C58.6982 28.4744 58.7296 28.6626 58.769 28.6626C58.808 28.6626 58.8398 28.7896 58.8398 28.9448C58.8398 29.1 58.8717 29.227 58.9107 29.227C58.9496 29.227 58.9815 29.3222 58.9815 29.4387C58.9815 29.5551 59.0134 29.6503 59.0524 29.6503C59.0913 29.6503 59.1232 29.7456 59.1232 29.862C59.1232 29.9784 59.1551 30.0736 59.194 30.0736C59.233 30.0736 59.2649 30.1371 59.2649 30.2147C59.2649 30.2923 59.2968 30.3558 59.3357 30.3558C59.3747 30.3558 59.4066 30.4193 59.4066 30.4969C59.4066 30.5745 59.4384 30.638 59.4774 30.638C59.5164 30.638 59.5483 30.7015 59.5483 30.7791C59.5483 30.8567 59.5801 30.9202 59.6191 30.9202C59.6581 30.9202 59.6899 30.9837 59.6899 31.0613C59.6899 31.139 59.7218 31.2025 59.7608 31.2025C59.7997 31.2025 59.8316 31.266 59.8316 31.3436C59.8316 31.4212 59.8635 31.4847 59.9025 31.4847C59.9414 31.4847 59.9733 31.5412 59.9733 31.6102C59.9733 31.6792 60.0371 31.7815 60.115 31.8374C60.1929 31.8934 60.2567 31.9822 60.2567 32.0349C60.2567 32.0876 60.3842 32.2527 60.54 32.4018C60.6959 32.551 60.8234 32.7078 60.8234 32.7504C60.8234 32.8513 61.7181 33.7423 61.8194 33.7423C61.8622 33.7423 62.0196 33.8693 62.1694 34.0245C62.3192 34.1798 62.4849 34.3067 62.5378 34.3067C62.5908 34.3067 62.68 34.3702 62.7361 34.4479C62.7923 34.5255 62.895 34.589 62.9643 34.589C63.0336 34.589 63.0903 34.6207 63.0903 34.6595C63.0903 34.6983 63.1541 34.7301 63.232 34.7301C63.31 34.7301 63.3737 34.7618 63.3737 34.8006C63.3737 34.8394 63.4375 34.8712 63.5154 34.8712C63.5933 34.8712 63.6571 34.9029 63.6571 34.9417C63.6571 34.9805 63.7208 35.0123 63.7988 35.0123C63.8767 35.0123 63.9404 35.044 63.9404 35.0828C63.9404 35.1216 64.0042 35.1534 64.0821 35.1534C64.1601 35.1534 64.2238 35.1851 64.2238 35.2239C64.2238 35.2627 64.2876 35.2945 64.3655 35.2945C64.4434 35.2945 64.5072 35.3262 64.5072 35.365C64.5072 35.4038 64.6028 35.4356 64.7197 35.4356C64.8366 35.4356 64.9322 35.4673 64.9322 35.5061C64.9322 35.5449 65.0279 35.5767 65.1448 35.5767C65.2617 35.5767 65.3573 35.6084 65.3573 35.6472C65.3573 35.686 65.5167 35.7178 65.7115 35.7178C65.9063 35.7178 66.0657 35.7495 66.0657 35.7883C66.0657 35.8286 66.2782 35.8589 66.5616 35.8589C66.845 35.8589 67.0575 35.8892 67.0575 35.9294C67.0575 35.9755 68.2618 36 70.5287 36H74V33.6718V31.3436H70.5287C68.2618 31.3436 67.0575 31.3191 67.0575 31.273C67.0575 31.2342 66.93 31.2025 66.7741 31.2025C66.6183 31.2025 66.4908 31.1707 66.4908 31.1319C66.4908 31.0931 66.3951 31.0613 66.2782 31.0613C66.1613 31.0613 66.0657 31.0296 66.0657 30.9908C66.0657 30.952 66.0019 30.9202 65.924 30.9202C65.8461 30.9202 65.7823 30.8885 65.7823 30.8497C65.7823 30.8109 65.7256 30.7791 65.6563 30.7791C65.587 30.7791 65.4843 30.7156 65.4281 30.638C65.372 30.5604 65.2847 30.4969 65.2342 30.4969C65.1146 30.4969 64.0821 29.4687 64.0821 29.3495C64.0821 29.2992 64.0184 29.2124 63.9404 29.1564C63.8625 29.1005 63.7988 28.9983 63.7988 28.9292C63.7988 28.8602 63.7669 28.8037 63.7279 28.8037C63.689 28.8037 63.6571 28.7402 63.6571 28.6626C63.6571 28.585 63.6252 28.5215 63.5862 28.5215C63.5473 28.5215 63.5154 28.4262 63.5154 28.3098C63.5154 28.1934 63.4835 28.0982 63.4446 28.0982C63.4056 28.0982 63.3737 27.9712 63.3737 27.816C63.3737 27.6607 63.3418 27.5337 63.3029 27.5337C63.2567 27.5337 63.232 26.452 63.232 24.4294C63.232 22.4069 63.2567 21.3252 63.3029 21.3252C63.3418 21.3252 63.3737 21.1982 63.3737 21.0429C63.3737 20.8877 63.4056 20.7607 63.4446 20.7607C63.4835 20.7607 63.5154 20.6972 63.5154 20.6196C63.5154 20.542 63.5473 20.4785 63.5862 20.4785C63.6252 20.4785 63.6571 20.415 63.6571 20.3374C63.6571 20.2598 63.689 20.1963 63.7279 20.1963C63.7669 20.1963 63.7988 20.1328 63.7988 20.0552C63.7988 19.9776 63.8306 19.9141 63.8696 19.9141C63.9086 19.9141 63.9404 19.8634 63.9404 19.8013C63.9404 19.7393 64.0361 19.5995 64.153 19.4908C64.2699 19.3821 64.3655 19.2571 64.3655 19.2132C64.3655 19.1024 64.8359 18.6442 64.9497 18.6442C65.0008 18.6442 65.0886 18.5807 65.1448 18.5031C65.2009 18.4255 65.2966 18.362 65.3573 18.362C65.418 18.362 65.5136 18.2985 65.5698 18.2209C65.6298 18.138 65.7532 18.0798 65.8688 18.0798C65.9771 18.0798 66.0657 18.048 66.0657 18.0092C66.0657 17.9704 66.1295 17.9387 66.2074 17.9387C66.2853 17.9387 66.3491 17.9069 66.3491 17.8681C66.3491 17.8293 66.4447 17.7975 66.5616 17.7975C66.6785 17.7975 66.7741 17.7658 66.7741 17.727C66.7741 17.6809 68.0257 17.6564 70.3871 17.6564H74V15.3282V13H70.3871C68.0257 13 66.7741 13.0244 66.7741 13.0706ZM34.1869 17.727C34.1869 17.7658 34.2755 17.7975 34.3837 17.7975C34.4993 17.7975 34.6227 17.8558 34.6828 17.9387C34.7389 18.0163 34.8265 18.0798 34.8774 18.0798C34.9977 18.0798 35.6037 18.6833 35.6037 18.8031C35.6037 18.8538 35.6675 18.941 35.7454 18.9969C35.8285 19.0567 35.8871 19.1796 35.8871 19.2947C35.8871 19.4025 35.9189 19.4908 35.9579 19.4908C35.9969 19.4908 36.0287 19.6178 36.0287 19.773C36.0287 19.9282 36.0606 20.0552 36.0996 20.0552C36.1386 20.0552 36.1704 20.214 36.1704 20.408C36.1704 20.602 36.1386 20.7607 36.0996 20.7607C36.0606 20.7607 36.0287 20.8877 36.0287 21.0429C36.0287 21.1982 35.9969 21.3252 35.9579 21.3252C35.9189 21.3252 35.8871 21.3886 35.8871 21.4663C35.8871 21.5439 35.8552 21.6074 35.8162 21.6074C35.7773 21.6074 35.7454 21.6709 35.7454 21.7485C35.7454 21.8261 35.7135 21.8896 35.6745 21.8896C35.6356 21.8896 35.6037 21.9383 35.6037 21.9977C35.6037 22.1298 35.1487 22.5951 35.0195 22.5951C34.9684 22.5951 34.8806 22.6586 34.8244 22.7362C34.7683 22.8138 34.6656 22.8773 34.5963 22.8773C34.527 22.8773 34.4702 22.909 34.4702 22.9479C34.4702 22.9867 34.4065 23.0184 34.3285 23.0184C34.2506 23.0184 34.1869 23.0502 34.1869 23.089C34.1869 23.1348 33.1951 23.1595 31.3532 23.1595H28.5195V20.408V17.6564H31.3532C33.1951 17.6564 34.1869 17.6811 34.1869 17.727ZM48.7803 20.1258C48.7803 20.2422 48.8122 20.3374 48.8511 20.3374C48.8901 20.3374 48.922 20.4009 48.922 20.4785C48.922 20.5561 48.9538 20.6196 48.9928 20.6196C49.0318 20.6196 49.0637 20.7149 49.0637 20.8313C49.0637 20.9477 49.0955 21.0429 49.1345 21.0429C49.1735 21.0429 49.2053 21.1382 49.2053 21.2546C49.2053 21.371 49.2372 21.4663 49.2762 21.4663C49.3151 21.4663 49.347 21.5298 49.347 21.6074C49.347 21.685 49.3789 21.7485 49.4179 21.7485C49.4568 21.7485 49.4887 21.8437 49.4887 21.9601C49.4887 22.0765 49.5206 22.1718 49.5595 22.1718C49.5985 22.1718 49.6304 22.2353 49.6304 22.3129C49.6304 22.3905 49.6623 22.454 49.7012 22.454C49.7402 22.454 49.7721 22.5492 49.7721 22.6656C49.7721 22.7821 49.804 22.8773 49.8429 22.8773C49.8819 22.8773 49.9138 22.9725 49.9138 23.089C49.9138 23.2054 49.9456 23.3006 49.9846 23.3006C50.0236 23.3006 50.0554 23.3641 50.0554 23.4417C50.0554 23.5193 50.0873 23.5828 50.1263 23.5828C50.1652 23.5828 50.1971 23.6781 50.1971 23.7945C50.1971 23.9109 50.229 24.0061 50.268 24.0061C50.3069 24.0061 50.3388 24.1014 50.3388 24.2178C50.3388 24.3342 50.3707 24.4294 50.4096 24.4294C50.4486 24.4294 50.4805 24.4929 50.4805 24.5706C50.4805 24.6482 50.5124 24.7117 50.5513 24.7117C50.5903 24.7117 50.6222 24.8069 50.6222 24.9233C50.6222 25.0397 50.6541 25.135 50.693 25.135C50.732 25.135 50.7639 25.2302 50.7639 25.3466C50.7639 25.463 50.7957 25.5583 50.8347 25.5583C50.8737 25.5583 50.9055 25.6218 50.9055 25.6994C50.9055 25.777 50.9374 25.8405 50.9764 25.8405C51.0153 25.8405 51.0472 25.9357 51.0472 26.0521C51.0472 26.1686 51.0791 26.2638 51.1181 26.2638C51.157 26.2638 51.1889 26.359 51.1889 26.4755C51.1889 26.5919 51.2208 26.6871 51.2598 26.6871C51.2987 26.6871 51.3306 26.7506 51.3306 26.8282C51.3306 26.9058 51.3625 26.9693 51.4014 26.9693C51.4404 26.9693 51.4723 27.0646 51.4723 27.181C51.4723 27.2974 51.5042 27.3926 51.5431 27.3926C51.5821 27.3926 51.614 27.4879 51.614 27.6043V27.816H48.6386H45.6632V27.6043C45.6632 27.4879 45.6951 27.3926 45.7341 27.3926C45.773 27.3926 45.8049 27.3291 45.8049 27.2515C45.8049 27.1739 45.8368 27.1104 45.8758 27.1104C45.9147 27.1104 45.9466 27.0152 45.9466 26.8988C45.9466 26.7824 45.9785 26.6871 46.0175 26.6871C46.0564 26.6871 46.0883 26.6236 46.0883 26.546C46.0883 26.4684 46.1202 26.4049 46.1591 26.4049C46.1981 26.4049 46.23 26.3097 46.23 26.1933C46.23 26.0768 46.2619 25.9816 46.3008 25.9816C46.3398 25.9816 46.3717 25.8863 46.3717 25.7699C46.3717 25.6535 46.4035 25.5583 46.4425 25.5583C46.4815 25.5583 46.5133 25.4948 46.5133 25.4172C46.5133 25.3396 46.5452 25.2761 46.5842 25.2761C46.6231 25.2761 46.655 25.1808 46.655 25.0644C46.655 24.948 46.6869 24.8528 46.7259 24.8528C46.7648 24.8528 46.7967 24.7575 46.7967 24.6411C46.7967 24.5247 46.8286 24.4294 46.8676 24.4294C46.9065 24.4294 46.9384 24.366 46.9384 24.2883C46.9384 24.2107 46.9703 24.1472 47.0092 24.1472C47.0482 24.1472 47.0801 24.052 47.0801 23.9356C47.0801 23.8192 47.112 23.7239 47.1509 23.7239C47.1899 23.7239 47.2218 23.6287 47.2218 23.5123C47.2218 23.3959 47.2536 23.3006 47.2926 23.3006C47.3316 23.3006 47.3634 23.2371 47.3634 23.1595C47.3634 23.0819 47.3953 23.0184 47.4343 23.0184C47.4733 23.0184 47.5051 22.9232 47.5051 22.8067C47.5051 22.6903 47.537 22.5951 47.576 22.5951C47.6149 22.5951 47.6468 22.4998 47.6468 22.3834C47.6468 22.267 47.6787 22.1718 47.7177 22.1718C47.7566 22.1718 47.7885 22.1083 47.7885 22.0307C47.7885 21.9531 47.8204 21.8896 47.8593 21.8896C47.8983 21.8896 47.9302 21.7943 47.9302 21.6779C47.9302 21.5615 47.9621 21.4663 48.001 21.4663C48.04 21.4663 48.0719 21.371 48.0719 21.2546C48.0719 21.1382 48.1037 21.0429 48.1427 21.0429C48.1817 21.0429 48.2136 20.9794 48.2136 20.9018C48.2136 20.8242 48.2454 20.7607 48.2844 20.7607C48.3234 20.7607 48.3552 20.6655 48.3552 20.5491C48.3552 20.4327 48.3871 20.3374 48.4261 20.3374C48.465 20.3374 48.4969 20.2885 48.4969 20.2286C48.4969 20.1129 48.6385 19.9213 48.7272 19.9168C48.7564 19.9153 48.7803 20.0094 48.7803 20.1258Z" fill="#B0B0B0"/>
</svg>
