<svg width="135" height="50" viewBox="0 0 135 50" fill="none" xmlns="http://www.w3.org/2000/svg">
<path fill-rule="evenodd" clip-rule="evenodd" d="M89.5471 16.5603C89.5471 16.078 89.0873 15.6809 88.5124 15.6809H86.213V12.6029C86.213 11.9362 85.7387 11.3972 85.1495 11.3972C84.5602 11.3972 84.086 11.9362 84.086 12.6029V15.6809H82.1027C81.5422 15.6809 81.068 16.078 81.068 16.5603C81.068 17.0426 81.5279 17.4397 82.1027 17.4397H84.086V29.4114C84.086 29.7518 84.086 30.0639 84.1147 30.3475C84.1866 32.0071 84.6752 33.0851 86.8022 33.0851C87.4202 33.0851 87.7795 33.1135 88.2968 33.0851C88.8861 33.0851 89.3747 32.6596 89.3747 32.149C89.3747 31.6383 88.8861 31.2128 88.2968 31.2128H87.5639C86.9459 31.2128 86.5435 30.9575 86.3567 30.5319C86.2417 30.1915 86.213 29.7518 86.213 29.2412V17.4397H88.5124C89.0873 17.4539 89.5471 17.0568 89.5471 16.5603ZM128.422 31.5106L121.466 22.234L127.272 17.1701C127.789 16.7446 127.89 16.0212 127.502 15.5815C127.114 15.1418 126.395 15.1418 125.878 15.5673L116.35 23.8368V14.4325C116.35 13.7659 115.875 13.2269 115.286 13.2269C114.697 13.2269 114.223 13.7659 114.223 14.4325V15.3262V31.1843V32.0779C114.223 32.7446 114.697 33.2836 115.286 33.2836C115.875 33.2836 116.35 32.7446 116.35 32.0779V26.6453L119.842 23.6382L126.668 32.7304C127.056 33.2694 127.761 33.4396 128.249 33.1134C128.738 32.7588 128.81 32.0496 128.422 31.5106ZM109.681 10.2766C109.681 9.60994 110.156 9.07094 110.745 9.07094C111.334 9.07094 111.808 9.60994 111.808 10.2766V32.0638C111.808 32.7305 111.334 33.2695 110.745 33.2695C110.156 33.2695 109.681 32.7305 109.681 32.0638V10.2766ZM102.969 25C102.998 28.3759 100.124 31.6241 96.8759 31.6241C94.8783 31.6241 92.9812 30.3191 92.9812 28.2198C92.9812 24.8439 97.4795 25.2978 101.101 24.6596C101.676 24.5603 102.625 24.39 102.898 23.8936L102.969 24.0496V25ZM108.029 32.2198C108.029 31.7517 107.583 31.3546 107.023 31.3546H106.347C105.499 31.3546 105.097 30.6595 105.097 29.8652V20.7163C105.097 16.1063 101.748 15.1702 98.6728 15.1702C96.1434 15.1702 91.9325 15.7375 91.7314 19.7659H91.717C91.717 20.4326 92.1912 20.9716 92.7805 20.9716C93.3553 20.9716 93.844 20.4326 93.844 19.7801H93.8583C93.9302 16.9716 97.5374 16.929 98.3997 16.929C100.9 16.929 102.97 17.6241 102.97 20.4609C102.97 22.3616 101.993 22.6028 100.225 22.8014C95.626 23.3404 90.8547 23.4964 90.8547 28.3475C90.8547 31.8226 93.499 33.3829 96.7039 33.3829C100.052 33.3829 101.576 32.1205 103.056 29.8794H103.128C103.128 31.6808 103.473 33.0709 105.629 33.0709C106.203 33.0709 106.534 33.0992 107.008 33.0709C107.569 33.085 108.029 32.6879 108.029 32.2198ZM70.1741 25C70.2029 28.3759 67.3286 31.6241 64.0806 31.6241C62.083 31.6241 60.1859 30.3191 60.1859 28.2198C60.1859 24.8439 64.6842 25.2978 68.3058 24.6596C68.8807 24.5603 69.8292 24.39 70.1023 23.8936L70.1741 24.0496V25ZM74.2265 31.3546H73.5511C72.7031 31.3546 72.3007 30.6595 72.3007 29.8652V20.7163C72.3007 16.1063 68.9522 15.1702 65.8767 15.1702C63.3473 15.1702 59.1365 15.7375 58.9353 19.7659H58.9209C58.9209 20.4326 59.3951 20.9716 59.9844 20.9716C60.5592 20.9716 61.0479 20.4326 61.0479 19.7801H61.0622C61.1341 16.9716 64.7413 16.929 65.6036 16.929C68.1043 16.929 70.1738 17.6241 70.1738 20.4609C70.1738 22.3616 69.1965 22.6028 67.4288 22.8014C62.8299 23.3404 58.0586 23.4964 58.0586 28.3475C58.0586 31.8226 60.7029 33.3829 63.9078 33.3829C67.2563 33.3829 68.7797 32.1205 70.26 29.8794H70.3318C70.3318 31.6808 70.6768 33.0709 72.8325 33.0709C73.4073 33.0709 73.7379 33.0992 74.2122 33.0709C74.7583 33.0709 75.2182 32.6737 75.2182 32.2056C75.2325 31.7375 74.7726 31.3546 74.2265 31.3546ZM48.8324 31.6241C44.3054 31.6241 42.7102 27.851 42.7102 24.2766C42.7102 20.3759 44.1329 16.9291 48.8324 16.9291C52.8852 16.9291 54.5523 20.7021 54.5523 24.2766C54.5523 27.8652 52.8995 31.6241 48.8324 31.6241ZM48.8321 15.1702C46.1158 15.1702 43.7445 16.5177 42.7098 18.7304V16.617C42.6667 16.007 42.2068 15.5106 41.6463 15.5106C41.0858 15.5106 40.6259 15.9929 40.5828 16.617V39.8936C40.6259 40.5035 41.0858 40.9999 41.6463 40.9999C42.2068 40.9999 42.6523 40.5177 42.7098 39.8936V29.6382H42.7817C43.7014 32.1063 46.2308 33.4113 48.8321 33.4113C54.1351 33.4113 56.6789 29.1702 56.6789 24.3049C56.6789 19.4113 54.1495 15.1702 48.8321 15.1702ZM77.2734 10.2766C77.2734 9.60994 77.7477 9.07094 78.3369 9.07094C78.9262 9.07094 79.4004 9.60994 79.4004 10.2766V32.0638C79.4004 32.7305 78.9262 33.2695 78.3369 33.2695C77.7477 33.2695 77.2734 32.7305 77.2734 32.0638V10.2766ZM132.949 30.4326C132.949 30.078 132.733 29.9503 132.245 29.9503H131.871V30.9149H132.245C132.762 30.9149 132.949 30.8014 132.949 30.4326ZM133.193 32.2766H133.149C133.106 32.2766 133.063 32.2482 133.049 32.2199L132.359 31.1702H132.345H132.244H131.985H131.87V32.1631C131.87 32.2199 131.827 32.2766 131.755 32.2766H131.727C131.655 32.2766 131.612 32.2057 131.612 32.1631V29.8369C131.612 29.7801 131.655 29.7234 131.712 29.7234C131.827 29.7092 132.1 29.7092 132.244 29.7092C132.862 29.7092 133.207 29.8936 133.207 30.4326V30.4468C133.207 30.8582 133.02 31.0567 132.646 31.1418L133.279 32.1064C133.293 32.1348 133.308 32.1631 133.308 32.1915C133.308 32.234 133.279 32.2766 133.193 32.2766ZM132.388 29.2978C131.425 29.2978 130.649 30.0638 130.649 31.0141C130.649 31.9645 131.425 32.7304 132.388 32.7304C133.351 32.7304 134.127 31.9645 134.127 31.0141C134.141 30.078 133.351 29.2978 132.388 29.2978ZM132.388 32.9999C131.281 32.9999 130.376 32.1205 130.376 31.0283C130.376 29.9361 131.281 29.0425 132.388 29.0425C133.494 29.0425 134.4 29.9361 134.4 31.0283C134.4 32.1205 133.494 32.9999 132.388 32.9999ZM29.8185 21.085C29.8185 22.6453 28.5825 23.9077 27.0448 23.9077C25.507 23.9077 24.2711 22.6453 24.2711 21.085C24.2711 19.5248 25.507 18.2623 27.0448 18.2623C28.5825 18.2623 29.8185 19.5248 29.8185 21.085ZM10.9495 22.6596C10.9495 23.9504 9.91475 25.0142 8.63568 25.0142C7.35662 25.0142 6.32188 23.9646 6.32188 22.6596C6.32188 21.3546 7.35662 20.305 8.63568 20.305C9.91475 20.305 10.9495 21.3546 10.9495 22.6596ZM20.9087 17.61C20.9087 19.6951 19.2416 21.3831 17.2008 21.3831C15.1457 21.3831 13.493 19.6951 13.493 17.61C13.493 15.5249 15.1601 13.837 17.2008 13.837C19.2416 13.8228 20.9087 15.5249 20.9087 17.61ZM31.5857 26.376C31.5139 26.6171 31.3989 26.8866 31.2696 27.1703C30.824 26.305 29.8324 25.1135 27.806 25.1135C24.6443 25.1135 23.7964 27.4256 23.7964 27.4256C23.7964 27.4256 22.2299 22.8157 17.5879 23.1135C12.9603 23.4256 12.4285 28.376 12.4285 28.376C12.4285 28.376 10.8045 25.8937 7.80091 26.5745C5.45835 27.0994 4.62481 29.2128 4.36612 30.1206C3.07269 29.0426 1.70739 27.4965 1.31936 25.6242C0.931333 23.7802 1.56368 21.8653 3.20203 19.9504C8.93625 13.2128 17.4298 10.1916 23.2934 10.1916C24.3856 10.1916 25.406 10.2909 26.3258 10.4894C28.1222 10.8866 29.5593 11.9788 30.5941 13.7377C32.7067 17.2979 32.6923 22.8015 31.5857 26.376ZM31.6438 13.1277C30.4223 11.0709 28.7264 9.79433 26.5851 9.32624C25.5791 9.11348 24.4725 9 23.294 9C17.143 9 8.26143 12.1489 2.28289 19.1844C0.385849 21.3972 -0.332725 23.6525 0.141534 25.8652C0.917594 29.539 4.6973 31.9645 6.0051 32.7021L3.49009 40.9433L10.2447 35.2695C11.3513 35.2128 16.7837 34.9433 22.4892 34.2199C28.9995 33.3972 32.0462 28.9433 32.7361 26.7163C33.9145 22.9007 33.9289 17 31.6438 13.1277Z" fill="#B0B0B0"/>
</svg>
