<svg width="250" height="90" viewBox="0 0 250 90" fill="none" xmlns="http://www.w3.org/2000/svg">
<path fill-rule="evenodd" clip-rule="evenodd" d="M164.965 29.8084C164.965 28.9403 164.137 28.2254 163.102 28.2254H158.963V22.685C158.963 21.485 158.11 20.5148 157.049 20.5148C155.988 20.5148 155.135 21.485 155.135 22.685V28.2254H151.565C150.556 28.2254 149.702 28.9403 149.702 29.8084C149.702 30.6765 150.53 31.3914 151.565 31.3914H155.135V52.9403C155.135 53.5531 155.135 54.1148 155.186 54.6254C155.316 57.6127 156.195 59.5531 160.024 59.5531C161.136 59.5531 161.783 59.6042 162.714 59.5531C163.775 59.5531 164.654 58.7871 164.654 57.868C164.654 56.9488 163.775 56.1829 162.714 56.1829H161.395C160.283 56.1829 159.558 55.7233 159.222 54.9574C159.015 54.3446 158.963 53.5531 158.963 52.634V31.3914H163.102C164.137 31.4169 164.965 30.702 164.965 29.8084ZM234.939 56.7187L222.418 40.0208L232.869 30.9059C233.8 30.14 233.981 28.8378 233.283 28.0463C232.585 27.2548 231.291 27.2548 230.36 28.0208L213.209 42.9059V25.9783C213.209 24.7783 212.355 23.808 211.295 23.808C210.234 23.808 209.38 24.7783 209.38 25.9783V27.5868V56.1314V57.74C209.38 58.94 210.234 59.9102 211.295 59.9102C212.355 59.9102 213.209 58.94 213.209 57.74V47.9612L219.495 42.5485L231.783 58.9144C232.481 59.8846 233.749 60.191 234.628 59.6038C235.508 58.9655 235.637 57.6889 234.939 56.7187ZM201.206 18.4979C201.206 17.2979 202.06 16.3277 203.121 16.3277C204.181 16.3277 205.035 17.2979 205.035 18.4979V57.7149C205.035 58.9149 204.181 59.8851 203.121 59.8851C202.06 59.8851 201.206 58.9149 201.206 57.7149V18.4979ZM189.125 44.9996C189.176 51.0762 184.003 56.923 178.156 56.923C174.561 56.923 171.146 54.5741 171.146 50.7954C171.146 44.7188 179.243 45.5358 185.762 44.3869C186.796 44.2081 188.504 43.9018 188.995 43.0081L189.125 43.289V44.9996ZM198.23 57.9955C198.23 57.153 197.428 56.4381 196.419 56.4381H195.203C193.677 56.4381 192.953 55.187 192.953 53.7572V37.2892C192.953 28.9913 186.925 27.3062 181.389 27.3062C176.836 27.3062 169.257 28.3275 168.895 35.5785H168.869C168.869 36.7785 169.723 37.7487 170.783 37.7487C171.818 37.7487 172.697 36.7785 172.697 35.6041H172.723C172.853 30.5487 179.346 30.4721 180.898 30.4721C185.399 30.4721 189.124 31.7232 189.124 36.8296C189.124 40.2509 187.365 40.6849 184.183 41.0424C175.905 42.0126 167.317 42.2934 167.317 51.0253C167.317 57.2806 172.077 60.0892 177.845 60.0892C183.873 60.0892 186.615 57.8168 189.279 53.7828H189.409C189.409 57.0253 190.029 59.5275 193.91 59.5275C194.945 59.5275 195.54 59.5785 196.393 59.5275C197.402 59.553 198.23 58.8381 198.23 57.9955ZM130.092 44.9996C130.143 51.0762 124.97 56.923 119.123 56.923C115.528 56.923 112.113 54.5741 112.113 50.7954C112.113 44.7188 120.21 45.5358 126.729 44.3869C127.763 44.2081 129.471 43.9018 129.962 43.0081L130.092 43.289V44.9996ZM137.387 56.4381H136.171C134.645 56.4381 133.921 55.187 133.921 53.7572V37.2892C133.921 28.9913 127.893 27.3062 122.357 27.3062C117.804 27.3062 110.225 28.3275 109.863 35.5785H109.837C109.837 36.7785 110.691 37.7487 111.751 37.7487C112.786 37.7487 113.665 36.7785 113.665 35.6041H113.691C113.821 30.5487 120.314 30.4721 121.866 30.4721C126.367 30.4721 130.092 31.7232 130.092 36.8296C130.092 40.2509 128.333 40.6849 125.151 41.0424C116.873 42.0126 108.285 42.2934 108.285 51.0253C108.285 57.2806 113.045 60.0892 118.813 60.0892C124.841 60.0892 127.583 57.8168 130.247 53.7828H130.377C130.377 57.0253 130.997 59.5275 134.878 59.5275C135.913 59.5275 136.507 59.5785 137.361 59.5275C138.344 59.5275 139.172 58.8126 139.172 57.97C139.198 57.1275 138.37 56.4381 137.387 56.4381ZM91.6767 56.923C83.5281 56.923 80.6567 50.1315 80.6567 43.6975C80.6567 36.6762 83.2177 30.4719 91.6767 30.4719C98.9717 30.4719 101.972 37.2634 101.972 43.6975C101.972 50.157 98.9976 56.923 91.6767 56.923ZM91.6762 27.3062C86.787 27.3062 82.5187 29.7317 80.6562 33.7147V29.9104C80.5785 28.8126 79.7507 27.919 78.7419 27.919C77.733 27.919 76.9052 28.787 76.8276 29.9104V71.8083C76.9052 72.9062 77.733 73.7998 78.7419 73.7998C79.7507 73.7998 80.5527 72.9317 80.6562 71.8083V53.3487H80.7855C82.4411 57.7913 86.994 60.1402 91.6762 60.1402C101.222 60.1402 105.801 52.5062 105.801 43.7487C105.801 34.9402 101.248 27.3062 91.6762 27.3062ZM142.871 18.4979C142.871 17.2979 143.724 16.3277 144.785 16.3277C145.846 16.3277 146.699 17.2979 146.699 18.4979V57.7149C146.699 58.9149 145.846 59.8851 144.785 59.8851C143.724 59.8851 142.871 58.9149 142.871 57.7149V18.4979ZM243.086 54.7783C243.086 54.14 242.698 53.9102 241.819 53.9102H241.146V55.6464H241.819C242.75 55.6464 243.086 55.4421 243.086 54.7783ZM243.524 58.0977H243.447C243.369 58.0977 243.291 58.0467 243.266 57.9956L242.024 56.1062H241.998H241.817H241.351H241.144V57.8935C241.144 57.9956 241.067 58.0977 240.937 58.0977H240.886C240.756 58.0977 240.679 57.9701 240.679 57.8935V53.7062C240.679 53.6041 240.756 53.502 240.86 53.502C241.067 53.4764 241.558 53.4764 241.817 53.4764C242.929 53.4764 243.55 53.8084 243.55 54.7786V54.8041C243.55 55.5445 243.214 55.902 242.541 56.0552L243.68 57.7913C243.705 57.8424 243.731 57.8935 243.731 57.9445C243.731 58.0211 243.68 58.0977 243.524 58.0977ZM242.079 52.7362C240.346 52.7362 238.949 54.1149 238.949 55.8255C238.949 57.5362 240.346 58.9149 242.079 58.9149C243.812 58.9149 245.209 57.5362 245.209 55.8255C245.235 54.1404 243.812 52.7362 242.079 52.7362ZM242.078 59.3997C240.086 59.3997 238.456 57.8167 238.456 55.8507C238.456 53.8848 240.086 52.2763 242.078 52.2763C244.07 52.2763 245.7 53.8848 245.7 55.8507C245.7 57.8167 244.07 59.3997 242.078 59.3997ZM57.4527 37.9531C57.4527 40.7616 55.228 43.034 52.4601 43.034C49.6921 43.034 47.4674 40.7616 47.4674 37.9531C47.4674 35.1446 49.6921 32.8722 52.4601 32.8722C55.228 32.8722 57.4527 35.1446 57.4527 37.9531ZM23.4887 40.787C23.4887 43.1104 21.6262 45.0253 19.3239 45.0253C17.0215 45.0253 15.159 43.1359 15.159 40.787C15.159 38.438 17.0215 36.5487 19.3239 36.5487C21.6262 36.5487 23.4887 38.438 23.4887 40.787ZM41.4148 31.6978C41.4148 35.4509 38.4141 38.4892 34.7407 38.4892C31.0415 38.4892 28.0666 35.4509 28.0666 31.6978C28.0666 27.9446 31.0674 24.9063 34.7407 24.9063C38.4141 24.8807 41.4148 27.9446 41.4148 31.6978ZM60.6341 47.477C60.5047 47.911 60.2978 48.3961 60.0649 48.9068C59.263 47.3493 57.4781 45.2046 53.8306 45.2046C48.1395 45.2046 46.6132 49.3663 46.6132 49.3663C46.6132 49.3663 43.7935 41.0685 35.438 41.6046C27.1082 42.1663 26.1511 51.077 26.1511 51.077C26.1511 51.077 23.2279 46.6089 17.8214 47.8344C13.6048 48.7791 12.1044 52.5834 11.6388 54.2174C9.31059 52.277 6.85306 49.494 6.15461 46.1238C5.45615 42.8046 6.59437 39.3578 9.5434 35.911C19.865 23.7833 35.1534 18.3451 45.7078 18.3451C47.6738 18.3451 49.5105 18.5238 51.1661 18.8812C54.3997 19.5961 56.9866 21.5621 58.8491 24.728C62.6518 31.1365 62.6259 41.0429 60.6341 47.477ZM60.7382 23.6299C58.5394 19.9277 55.4869 17.6299 51.6324 16.7873C49.8216 16.4043 47.8297 16.2001 45.7085 16.2001C34.6367 16.2001 18.6499 21.8682 7.88849 34.532C4.47383 38.515 3.18039 42.5745 4.03406 46.5575C5.43097 53.1703 12.2344 57.5362 14.5885 58.8639L10.0615 73.6979L22.2197 63.4852C24.2116 63.3831 33.99 62.8979 44.2599 61.5958C55.9784 60.115 61.4625 52.0979 62.7042 48.0894C64.8255 41.2214 64.8513 30.6001 60.7382 23.6299Z" fill="black"/>
</svg>
