<svg width="170" height="90" viewBox="0 0 170 90" fill="none" xmlns="http://www.w3.org/2000/svg">
<path fill-rule="evenodd" clip-rule="evenodd" d="M22.4316 36.7342C22.4316 45.539 22.475 50.0685 22.5592 50.0685C22.6301 50.0685 22.6867 50.4072 22.6867 50.8305C22.6867 51.2538 22.7433 51.5924 22.8142 51.5924C22.8843 51.5924 22.9417 51.821 22.9417 52.1004C22.9417 52.3798 22.9991 52.6084 23.0692 52.6084C23.1394 52.6084 23.1967 52.7798 23.1967 52.9894C23.1967 53.1989 23.2541 53.3704 23.3242 53.3704C23.3944 53.3704 23.4518 53.5418 23.4518 53.7513C23.4518 53.9609 23.5091 54.1323 23.5793 54.1323C23.6494 54.1323 23.7068 54.2466 23.7068 54.3863C23.7068 54.526 23.7642 54.6403 23.8343 54.6403C23.9044 54.6403 23.9618 54.8117 23.9618 55.0213C23.9618 55.2308 24.0192 55.4023 24.0893 55.4023C24.1595 55.4023 24.2169 55.504 24.2169 55.6282C24.2169 55.7525 24.3316 55.9365 24.4719 56.0372C24.6122 56.1379 24.7269 56.322 24.7269 56.4463C24.7269 56.5705 24.7843 56.6722 24.8544 56.6722C24.9246 56.6722 24.9819 56.7739 24.9819 56.8981C24.9819 57.0224 25.0967 57.2065 25.237 57.3072C25.3772 57.4079 25.492 57.569 25.492 57.6653C25.492 57.7614 25.6642 58.0004 25.8746 58.1961C26.085 58.3918 26.2571 58.6157 26.2571 58.6936C26.2571 58.8767 28.1216 60.736 28.3053 60.736C28.382 60.736 28.6654 60.9646 28.9349 61.244C29.2045 61.5234 29.5029 61.752 29.5981 61.752C29.6934 61.752 29.8539 61.8663 29.9551 62.0059C30.0562 62.1456 30.2409 62.2599 30.3658 62.2599C30.4905 62.2599 30.5926 62.3171 30.5926 62.3869C30.5926 62.4568 30.7074 62.5139 30.8477 62.5139C30.9879 62.5139 31.1027 62.5711 31.1027 62.6409C31.1027 62.7108 31.2175 62.7679 31.3577 62.7679C31.498 62.7679 31.6128 62.8251 31.6128 62.8949C31.6128 62.9647 31.7275 63.0219 31.8678 63.0219C32.008 63.0219 32.1228 63.079 32.1228 63.1489C32.1228 63.2187 32.2376 63.2759 32.3778 63.2759C32.5181 63.2759 32.6329 63.333 32.6329 63.4029C32.6329 63.4727 32.7476 63.5299 32.8879 63.5299C33.0282 63.5299 33.1429 63.587 33.1429 63.6569C33.1429 63.7267 33.3151 63.7839 33.5255 63.7839C33.7359 63.7839 33.908 63.841 33.908 63.9109C33.908 63.9807 34.0802 64.0378 34.2906 64.0378C34.501 64.0378 34.6731 64.095 34.6731 64.1648C34.6731 64.2347 34.96 64.2918 35.3107 64.2918C35.6614 64.2918 35.9483 64.349 35.9483 64.4188C35.9483 64.4894 36.2884 64.5458 36.7134 64.5458C37.1384 64.5458 37.4785 64.6022 37.4785 64.6728C37.4785 64.7559 39.7737 64.7998 44.1093 64.7998H50.7401V60.609V56.4182H44.3643C40.1987 56.4182 37.9885 56.3741 37.9885 56.2912C37.9885 56.2214 37.7016 56.1642 37.3509 56.1642C37.0003 56.1642 36.7134 56.1071 36.7134 56.0372C36.7134 55.9674 36.5412 55.9102 36.3308 55.9102C36.1204 55.9102 35.9483 55.8531 35.9483 55.7832C35.9483 55.7134 35.8335 55.6563 35.6932 55.6563C35.553 55.6563 35.4382 55.5991 35.4382 55.5293C35.4382 55.4594 35.3361 55.4023 35.2114 55.4023C35.0865 55.4023 34.9018 55.288 34.8006 55.1483C34.6995 55.0086 34.5425 54.8943 34.4516 54.8943C34.2363 54.8943 32.3778 53.0435 32.3778 52.829C32.3778 52.7384 32.2631 52.5821 32.1228 52.4814C31.9825 52.3807 31.8678 52.1967 31.8678 52.0724C31.8678 51.9482 31.8104 51.8464 31.7403 51.8464C31.6701 51.8464 31.6128 51.7321 31.6128 51.5924C31.6128 51.4528 31.5554 51.3385 31.4852 51.3385C31.4151 51.3385 31.3577 51.167 31.3577 50.9575C31.3577 50.7479 31.3003 50.5765 31.2302 50.5765C31.1601 50.5765 31.1027 50.4051 31.1027 50.1955C31.1027 49.986 31.0453 49.8145 30.9752 49.8145C30.9024 49.8145 30.8477 49.4336 30.8477 48.9256V48.0366H40.7939H50.7401V43.8458V39.655H40.7939H30.8477V35.7182V31.7814H40.7939H50.7401V27.5906V23.3998H36.5859H22.4316V36.7342ZM55.5857 44.0998V64.7998H60.1762H64.7668V57.4342V50.0685H70.3774C74.0329 50.0685 75.9881 50.0243 75.9881 49.9415C75.9881 49.8717 76.275 49.8145 76.6257 49.8145C76.9764 49.8145 77.2633 49.7574 77.2633 49.6875C77.2633 49.6177 77.4928 49.5605 77.7733 49.5605C78.0539 49.5605 78.2834 49.5034 78.2834 49.4336C78.2834 49.3637 78.4555 49.3066 78.6659 49.3066C78.8763 49.3066 79.0485 49.2494 79.0485 49.1796C79.0485 49.1097 79.1632 49.0526 79.3035 49.0526C79.4438 49.0526 79.5585 48.9954 79.5585 48.9256C79.5585 48.8557 79.6733 48.7986 79.8136 48.7986C79.9538 48.7986 80.0686 48.7414 80.0686 48.6716C80.0686 48.6017 80.1834 48.5446 80.3236 48.5446C80.4639 48.5446 80.5787 48.4874 80.5787 48.4176C80.5787 48.3478 80.6934 48.2906 80.8337 48.2906C80.974 48.2906 81.0887 48.2335 81.0887 48.1636C81.0887 48.0938 81.1909 48.0366 81.3156 48.0366C81.4404 48.0366 81.6252 47.9223 81.7263 47.7826C81.8274 47.6429 81.9841 47.5286 82.0747 47.5286C82.2895 47.5286 84.9142 44.9147 84.9142 44.7007C84.9142 44.6106 85.029 44.4545 85.1692 44.3538C85.3095 44.2531 85.4243 44.0816 85.4243 43.9728C85.4243 43.864 85.539 43.6925 85.6793 43.5918C85.8196 43.4911 85.9343 43.3071 85.9343 43.1828C85.9343 43.0586 85.9917 42.9569 86.0618 42.9569C86.132 42.9569 86.1894 42.8426 86.1894 42.7029C86.1894 42.5632 86.2467 42.4489 86.3169 42.4489C86.387 42.4489 86.4444 42.3346 86.4444 42.1949C86.4444 42.0552 86.5018 41.9409 86.5719 41.9409C86.642 41.9409 86.6994 41.7695 86.6994 41.5599C86.6994 41.3504 86.7568 41.179 86.8269 41.179C86.8971 41.179 86.9544 41.0075 86.9544 40.798C86.9544 40.5884 87.0118 40.417 87.082 40.417C87.1521 40.417 87.2095 40.1884 87.2095 39.909C87.2095 39.6296 87.2669 39.401 87.337 39.401C87.418 39.401 87.4645 38.4274 87.4645 36.7342C87.4645 35.041 87.418 34.0673 87.337 34.0673C87.2669 34.0673 87.2095 33.8387 87.2095 33.5593C87.2095 33.2799 87.1521 33.0513 87.082 33.0513C87.0118 33.0513 86.9544 32.8799 86.9544 32.6704C86.9544 32.4608 86.8971 32.2894 86.8269 32.2894C86.7568 32.2894 86.6994 32.1179 86.6994 31.9084C86.6994 31.6989 86.642 31.5274 86.5719 31.5274C86.5018 31.5274 86.4444 31.4131 86.4444 31.2734C86.4444 31.1337 86.387 31.0194 86.3169 31.0194C86.2467 31.0194 86.1894 30.9051 86.1894 30.7655C86.1894 30.6258 86.132 30.5115 86.0618 30.5115C85.9917 30.5115 85.9343 30.4097 85.9343 30.2855C85.9343 30.1612 85.8196 29.9772 85.6793 29.8765C85.539 29.7758 85.4243 29.6044 85.4243 29.4955C85.4243 29.3867 85.3095 29.2152 85.1692 29.1145C85.029 29.0138 84.9142 28.8578 84.9142 28.7676C84.9142 28.5536 82.2895 25.9397 82.0747 25.9397C81.9841 25.9397 81.8274 25.8254 81.7263 25.6857C81.6252 25.546 81.4404 25.4317 81.3156 25.4317C81.1909 25.4317 81.0887 25.3746 81.0887 25.3047C81.0887 25.2349 80.974 25.1777 80.8337 25.1777C80.6934 25.1777 80.5787 25.1206 80.5787 25.0507C80.5787 24.9809 80.4639 24.9237 80.3236 24.9237C80.1834 24.9237 80.0686 24.8666 80.0686 24.7967C80.0686 24.7269 79.9538 24.6697 79.8136 24.6697C79.6733 24.6697 79.5585 24.6126 79.5585 24.5428C79.5585 24.4729 79.4438 24.4158 79.3035 24.4158C79.1632 24.4158 79.0485 24.3586 79.0485 24.2888C79.0485 24.2189 78.8763 24.1618 78.6659 24.1618C78.4555 24.1618 78.2834 24.1046 78.2834 24.0348C78.2834 23.9649 78.1112 23.9078 77.9008 23.9078C77.6904 23.9078 77.5183 23.8506 77.5183 23.7808C77.5183 23.7102 77.1782 23.6538 76.7532 23.6538C76.3282 23.6538 75.9881 23.5974 75.9881 23.5268C75.9881 23.4432 72.5027 23.3998 65.7869 23.3998H55.5857V44.0998ZM96.6456 23.6538C96.6456 23.7935 96.5882 23.9078 96.5181 23.9078C96.448 23.9078 96.3906 24.0221 96.3906 24.1618C96.3906 24.3015 96.3332 24.4158 96.2631 24.4158C96.1929 24.4158 96.1356 24.5872 96.1356 24.7967C96.1356 25.0063 96.0782 25.1777 96.008 25.1777C95.9379 25.1777 95.8805 25.3492 95.8805 25.5587C95.8805 25.7682 95.8231 25.9397 95.753 25.9397C95.6829 25.9397 95.6255 26.054 95.6255 26.1937C95.6255 26.3334 95.5681 26.4477 95.498 26.4477C95.4278 26.4477 95.3705 26.6191 95.3705 26.8286C95.3705 27.0382 95.3131 27.2096 95.2429 27.2096C95.1728 27.2096 95.1154 27.3239 95.1154 27.4636C95.1154 27.6033 95.0581 27.7176 94.9879 27.7176C94.9178 27.7176 94.8604 27.889 94.8604 28.0986C94.8604 28.3081 94.803 28.4796 94.7329 28.4796C94.6628 28.4796 94.6054 28.651 94.6054 28.8605C94.6054 29.0701 94.548 29.2415 94.4779 29.2415C94.4077 29.2415 94.3503 29.3558 94.3503 29.4955C94.3503 29.6352 94.293 29.7495 94.2228 29.7495C94.1527 29.7495 94.0953 29.9209 94.0953 30.1305C94.0953 30.34 94.0379 30.5115 93.9678 30.5115C93.8977 30.5115 93.8403 30.6829 93.8403 30.8924C93.8403 31.102 93.7829 31.2734 93.7128 31.2734C93.6426 31.2734 93.5852 31.3877 93.5852 31.5274C93.5852 31.6671 93.5279 31.7814 93.4577 31.7814C93.3876 31.7814 93.3302 31.9528 93.3302 32.1624C93.3302 32.3719 93.2728 32.5434 93.2027 32.5434C93.1326 32.5434 93.0752 32.7148 93.0752 32.9244C93.0752 33.1339 93.0178 33.3053 92.9477 33.3053C92.8775 33.3053 92.8202 33.4196 92.8202 33.5593C92.8202 33.699 92.7628 33.8133 92.6926 33.8133C92.6225 33.8133 92.5651 33.9847 92.5651 34.1943C92.5651 34.4038 92.5077 34.5753 92.4376 34.5753C92.3675 34.5753 92.3101 34.7467 92.3101 34.9563C92.3101 35.1658 92.2527 35.3372 92.1826 35.3372C92.1124 35.3372 92.0551 35.4515 92.0551 35.5912C92.0551 35.7309 91.9977 35.8452 91.9275 35.8452C91.8574 35.8452 91.8 36.0167 91.8 36.2262C91.8 36.4357 91.7426 36.6072 91.6725 36.6072C91.6024 36.6072 91.545 36.7786 91.545 36.9882C91.545 37.1977 91.4876 37.3691 91.4175 37.3691C91.3474 37.3691 91.29 37.4834 91.29 37.6231C91.29 37.7628 91.2326 37.8771 91.1625 37.8771C91.0923 37.8771 91.0349 38.0486 91.0349 38.2581C91.0349 38.4676 90.9776 38.6391 90.9074 38.6391C90.8373 38.6391 90.7799 38.7534 90.7799 38.8931C90.7799 39.0328 90.7225 39.147 90.6524 39.147C90.5823 39.147 90.5249 39.3185 90.5249 39.528C90.5249 39.7376 90.4675 39.909 90.3974 39.909C90.3272 39.909 90.2698 40.0805 90.2698 40.29C90.2698 40.4995 90.2125 40.671 90.1423 40.671C90.0722 40.671 90.0148 40.7853 90.0148 40.925C90.0148 41.0647 89.9574 41.179 89.8873 41.179C89.8172 41.179 89.7598 41.3504 89.7598 41.5599C89.7598 41.7695 89.7024 41.9409 89.6323 41.9409C89.5621 41.9409 89.5048 42.1124 89.5048 42.3219C89.5048 42.5314 89.4474 42.7029 89.3772 42.7029C89.3071 42.7029 89.2497 42.8172 89.2497 42.9569C89.2497 43.0966 89.1923 43.2109 89.1222 43.2109C89.0521 43.2109 88.9947 43.3823 88.9947 43.5918C88.9947 43.8014 88.9373 43.9728 88.8672 43.9728C88.797 43.9728 88.7397 44.1443 88.7397 44.3538C88.7397 44.5633 88.6823 44.7348 88.6121 44.7348C88.542 44.7348 88.4846 44.8491 88.4846 44.9888C88.4846 45.1285 88.4272 45.2428 88.3571 45.2428C88.287 45.2428 88.2296 45.4142 88.2296 45.6237C88.2296 45.8333 88.1722 46.0047 88.1021 46.0047C88.032 46.0047 87.9746 46.1762 87.9746 46.3857C87.9746 46.5952 87.9172 46.7667 87.8471 46.7667C87.7769 46.7667 87.7195 46.881 87.7195 47.0207C87.7195 47.1604 87.6622 47.2747 87.592 47.2747C87.5219 47.2747 87.4645 47.4461 87.4645 47.6556C87.4645 47.8652 87.4071 48.0366 87.337 48.0366C87.2669 48.0366 87.2095 48.1509 87.2095 48.2906C87.2095 48.4303 87.1521 48.5446 87.082 48.5446C87.0118 48.5446 86.9544 48.716 86.9544 48.9256C86.9544 49.1351 86.8971 49.3066 86.8269 49.3066C86.7568 49.3066 86.6994 49.478 86.6994 49.6875C86.6994 49.8971 86.642 50.0685 86.5719 50.0685C86.5018 50.0685 86.4444 50.1828 86.4444 50.3225C86.4444 50.4622 86.387 50.5765 86.3169 50.5765C86.2467 50.5765 86.1894 50.7479 86.1894 50.9575C86.1894 51.167 86.132 51.3385 86.0618 51.3385C85.9917 51.3385 85.9343 51.5099 85.9343 51.7194C85.9343 51.929 85.8769 52.1004 85.8068 52.1004C85.7367 52.1004 85.6793 52.2147 85.6793 52.3544C85.6793 52.4941 85.6219 52.6084 85.5518 52.6084C85.4816 52.6084 85.4243 52.7798 85.4243 52.9894C85.4243 53.1989 85.3669 53.3704 85.2967 53.3704C85.2266 53.3704 85.1692 53.5418 85.1692 53.7513C85.1692 53.9609 85.1118 54.1323 85.0417 54.1323C84.9716 54.1323 84.9142 54.2466 84.9142 54.3863C84.9142 54.526 84.8568 54.6403 84.7867 54.6403C84.7165 54.6403 84.6592 54.8117 84.6592 55.0213C84.6592 55.2308 84.6018 55.4023 84.5317 55.4023C84.4615 55.4023 84.4041 55.5737 84.4041 55.7832C84.4041 55.9928 84.3468 56.1642 84.2766 56.1642C84.2065 56.1642 84.1491 56.2785 84.1491 56.4182C84.1491 56.5579 84.0917 56.6722 84.0216 56.6722C83.9515 56.6722 83.8941 56.8436 83.8941 57.0532C83.8941 57.2627 83.8367 57.4342 83.7666 57.4342C83.6964 57.4342 83.639 57.5485 83.639 57.6882C83.639 57.8278 83.5817 57.9421 83.5115 57.9421C83.4414 57.9421 83.384 58.1136 83.384 58.3231C83.384 58.5327 83.3266 58.7041 83.2565 58.7041C83.1864 58.7041 83.129 58.8755 83.129 59.0851C83.129 59.2946 83.0716 59.4661 83.0015 59.4661C82.9313 59.4661 82.874 59.5804 82.874 59.7201C82.874 59.8597 82.8166 59.974 82.7464 59.974C82.6763 59.974 82.6189 60.1455 82.6189 60.355C82.6189 60.5646 82.5615 60.736 82.4914 60.736C82.4213 60.736 82.3639 60.9074 82.3639 61.117C82.3639 61.3265 82.3065 61.498 82.2364 61.498C82.1662 61.498 82.1089 61.6123 82.1089 61.752C82.1089 61.8917 82.0515 62.0059 81.9813 62.0059C81.9112 62.0059 81.8538 62.1774 81.8538 62.3869C81.8538 62.5965 81.7964 62.7679 81.7263 62.7679C81.6562 62.7679 81.5988 62.9394 81.5988 63.1489C81.5988 63.3584 81.5414 63.5299 81.4713 63.5299C81.4011 63.5299 81.3438 63.6442 81.3438 63.7839C81.3438 63.9236 81.2864 64.0378 81.2162 64.0378C81.1461 64.0378 81.0887 64.2093 81.0887 64.4188V64.7998H85.5518C89.9298 64.7998 90.0148 64.795 90.0148 64.5458C90.0148 64.4061 90.0722 64.2918 90.1423 64.2918C90.2125 64.2918 90.2698 64.1204 90.2698 63.9109C90.2698 63.7013 90.3272 63.5299 90.3974 63.5299C90.4675 63.5299 90.5249 63.3584 90.5249 63.1489C90.5249 62.9394 90.5823 62.7679 90.6524 62.7679C90.7225 62.7679 90.7799 62.6536 90.7799 62.5139C90.7799 62.3742 90.8373 62.2599 90.9074 62.2599C90.9776 62.2599 91.0349 62.0885 91.0349 61.879C91.0349 61.6694 91.0923 61.498 91.1625 61.498C91.2326 61.498 91.29 61.3837 91.29 61.244C91.29 61.1043 91.3474 60.99 91.4175 60.99C91.4876 60.99 91.545 60.8186 91.545 60.609C91.545 60.3995 91.6024 60.228 91.6725 60.228C91.7426 60.228 91.8 60.0566 91.8 59.847C91.8 59.6375 91.8574 59.4661 91.9275 59.4661C91.9977 59.4661 92.0551 59.3518 92.0551 59.2121C92.0551 59.0724 92.1124 58.9581 92.1826 58.9581C92.2527 58.9581 92.3101 58.8438 92.3101 58.7041C92.3101 58.4527 92.3951 58.4501 100.926 58.4501C110.279 58.4501 109.907 58.4217 109.907 59.1396C109.907 59.3191 109.965 59.4661 110.035 59.4661C110.105 59.4661 110.162 59.5804 110.162 59.7201C110.162 59.8597 110.22 59.974 110.29 59.974C110.36 59.974 110.417 60.1455 110.417 60.355C110.417 60.5646 110.475 60.736 110.545 60.736C110.615 60.736 110.672 60.9074 110.672 61.117C110.672 61.3265 110.73 61.498 110.8 61.498C110.87 61.498 110.927 61.6123 110.927 61.752C110.927 61.8917 110.985 62.0059 111.055 62.0059C111.125 62.0059 111.182 62.1774 111.182 62.3869C111.182 62.5965 111.24 62.7679 111.31 62.7679C111.38 62.7679 111.437 62.9394 111.437 63.1489C111.437 63.3584 111.495 63.5299 111.565 63.5299C111.635 63.5299 111.692 63.6442 111.692 63.7839C111.692 63.9236 111.75 64.0378 111.82 64.0378C111.89 64.0378 111.947 64.2093 111.947 64.4188V64.7998H116.538C119.513 64.7998 121.129 64.7551 121.129 64.6728C121.129 64.603 121.071 64.5458 121.001 64.5458C120.931 64.5458 120.874 64.4315 120.874 64.2918C120.874 64.1521 120.816 64.0378 120.746 64.0378C120.676 64.0378 120.619 63.8664 120.619 63.6569C120.619 63.4473 120.561 63.2759 120.491 63.2759C120.421 63.2759 120.363 63.1044 120.363 62.8949C120.363 62.6854 120.306 62.5139 120.236 62.5139C120.166 62.5139 120.108 62.3996 120.108 62.2599C120.108 62.1202 120.051 62.0059 119.981 62.0059C119.911 62.0059 119.853 61.8345 119.853 61.625C119.853 61.4154 119.796 61.244 119.726 61.244C119.656 61.244 119.598 61.0725 119.598 60.863C119.598 60.6535 119.541 60.482 119.471 60.482C119.401 60.482 119.343 60.3677 119.343 60.228C119.343 60.0883 119.286 59.974 119.216 59.974C119.146 59.974 119.088 59.8026 119.088 59.5931C119.088 59.3835 119.031 59.2121 118.961 59.2121C118.891 59.2121 118.833 59.0406 118.833 58.8311C118.833 58.6216 118.776 58.4501 118.706 58.4501C118.636 58.4501 118.578 58.3358 118.578 58.1961C118.578 58.0564 118.521 57.9421 118.451 57.9421C118.381 57.9421 118.323 57.7707 118.323 57.5612C118.323 57.3516 118.266 57.1802 118.196 57.1802C118.126 57.1802 118.068 57.0087 118.068 56.7992C118.068 56.5897 118.011 56.4182 117.941 56.4182C117.871 56.4182 117.813 56.3039 117.813 56.1642C117.813 56.0245 117.756 55.9102 117.686 55.9102C117.616 55.9102 117.558 55.7388 117.558 55.5293C117.558 55.3197 117.501 55.1483 117.431 55.1483C117.36 55.1483 117.303 55.034 117.303 54.8943C117.303 54.7546 117.246 54.6403 117.176 54.6403C117.105 54.6403 117.048 54.4689 117.048 54.2593C117.048 54.0498 116.991 53.8783 116.921 53.8783C116.85 53.8783 116.793 53.7069 116.793 53.4974C116.793 53.2878 116.736 53.1164 116.666 53.1164C116.595 53.1164 116.538 53.0021 116.538 52.8624C116.538 52.7227 116.481 52.6084 116.411 52.6084C116.34 52.6084 116.283 52.437 116.283 52.2274C116.283 52.0179 116.226 51.8464 116.155 51.8464C116.085 51.8464 116.028 51.675 116.028 51.4655C116.028 51.2559 115.971 51.0845 115.9 51.0845C115.83 51.0845 115.773 50.9702 115.773 50.8305C115.773 50.6908 115.716 50.5765 115.645 50.5765C115.575 50.5765 115.518 50.4051 115.518 50.1955C115.518 49.986 115.461 49.8145 115.39 49.8145C115.32 49.8145 115.263 49.6431 115.263 49.4336C115.263 49.224 115.205 49.0526 115.135 49.0526C115.065 49.0526 115.008 48.9383 115.008 48.7986C115.008 48.6589 114.95 48.5446 114.88 48.5446C114.81 48.5446 114.753 48.3732 114.753 48.1636C114.753 47.9541 114.695 47.7826 114.625 47.7826C114.555 47.7826 114.498 47.6112 114.498 47.4017C114.498 47.1921 114.44 47.0207 114.37 47.0207C114.3 47.0207 114.243 46.9064 114.243 46.7667C114.243 46.627 114.185 46.5127 114.115 46.5127C114.045 46.5127 113.988 46.3413 113.988 46.1317C113.988 45.9222 113.93 45.7507 113.86 45.7507C113.79 45.7507 113.733 45.6364 113.733 45.4967C113.733 45.357 113.675 45.2428 113.605 45.2428C113.535 45.2428 113.478 45.0713 113.478 44.8618C113.478 44.6522 113.42 44.4808 113.35 44.4808C113.28 44.4808 113.223 44.3094 113.223 44.0998C113.223 43.8903 113.165 43.7188 113.095 43.7188C113.025 43.7188 112.968 43.6045 112.968 43.4648C112.968 43.3251 112.91 43.2109 112.84 43.2109C112.77 43.2109 112.713 43.0394 112.713 42.8299C112.713 42.6203 112.655 42.4489 112.585 42.4489C112.515 42.4489 112.458 42.2774 112.458 42.0679C112.458 41.8584 112.4 41.6869 112.33 41.6869C112.26 41.6869 112.202 41.5726 112.202 41.4329C112.202 41.2932 112.145 41.179 112.075 41.179C112.005 41.179 111.947 41.0075 111.947 40.798C111.947 40.5884 111.89 40.417 111.82 40.417C111.75 40.417 111.692 40.2455 111.692 40.036C111.692 39.8265 111.635 39.655 111.565 39.655C111.495 39.655 111.437 39.5407 111.437 39.401C111.437 39.2613 111.38 39.147 111.31 39.147C111.24 39.147 111.182 38.9756 111.182 38.7661C111.182 38.5565 111.125 38.3851 111.055 38.3851C110.985 38.3851 110.927 38.2136 110.927 38.0041C110.927 37.7946 110.87 37.6231 110.8 37.6231C110.73 37.6231 110.672 37.5088 110.672 37.3691C110.672 37.2294 110.615 37.1151 110.545 37.1151C110.475 37.1151 110.417 36.9437 110.417 36.7342C110.417 36.5246 110.36 36.3532 110.29 36.3532C110.22 36.3532 110.162 36.2389 110.162 36.0992C110.162 35.9595 110.105 35.8452 110.035 35.8452C109.965 35.8452 109.907 35.6738 109.907 35.4642C109.907 35.2547 109.85 35.0832 109.78 35.0832C109.71 35.0832 109.652 34.9118 109.652 34.7023C109.652 34.4927 109.595 34.3213 109.525 34.3213C109.455 34.3213 109.397 34.207 109.397 34.0673C109.397 33.9276 109.34 33.8133 109.27 33.8133C109.2 33.8133 109.142 33.6419 109.142 33.4323C109.142 33.2228 109.085 33.0513 109.015 33.0513C108.944 33.0513 108.887 32.8799 108.887 32.6704C108.887 32.4608 108.83 32.2894 108.76 32.2894C108.689 32.2894 108.632 32.1751 108.632 32.0354C108.632 31.8957 108.575 31.7814 108.505 31.7814C108.434 31.7814 108.377 31.61 108.377 31.4004C108.377 31.1909 108.32 31.0194 108.25 31.0194C108.179 31.0194 108.122 30.848 108.122 30.6385C108.122 30.4289 108.065 30.2575 107.994 30.2575C107.924 30.2575 107.867 30.1432 107.867 30.0035C107.867 29.8638 107.81 29.7495 107.739 29.7495C107.669 29.7495 107.612 29.5781 107.612 29.3685C107.612 29.159 107.555 28.9875 107.484 28.9875C107.414 28.9875 107.357 28.8161 107.357 28.6066C107.357 28.397 107.3 28.2256 107.229 28.2256C107.159 28.2256 107.102 28.1113 107.102 27.9716C107.102 27.8319 107.044 27.7176 106.974 27.7176C106.904 27.7176 106.847 27.5462 106.847 27.3366C106.847 27.1271 106.789 26.9556 106.719 26.9556C106.649 26.9556 106.592 26.8413 106.592 26.7017C106.592 26.562 106.534 26.4477 106.464 26.4477C106.394 26.4477 106.337 26.2762 106.337 26.0667C106.337 25.8571 106.279 25.6857 106.209 25.6857C106.139 25.6857 106.082 25.5143 106.082 25.3047C106.082 25.0952 106.024 24.9237 105.954 24.9237C105.884 24.9237 105.827 24.8094 105.827 24.6697C105.827 24.5301 105.769 24.4158 105.699 24.4158C105.629 24.4158 105.572 24.2688 105.572 24.0893C105.572 23.4008 105.565 23.3998 100.926 23.3998C96.7307 23.3998 96.6456 23.4049 96.6456 23.6538ZM133.625 23.5268C133.625 23.5974 133.285 23.6538 132.86 23.6538C132.435 23.6538 132.095 23.7102 132.095 23.7808C132.095 23.8506 131.865 23.9078 131.585 23.9078C131.304 23.9078 131.075 23.9649 131.075 24.0348C131.075 24.1046 130.903 24.1618 130.692 24.1618C130.482 24.1618 130.31 24.2189 130.31 24.2888C130.31 24.3586 130.138 24.4158 129.927 24.4158C129.717 24.4158 129.545 24.4729 129.545 24.5428C129.545 24.6126 129.372 24.6697 129.162 24.6697C128.952 24.6697 128.78 24.7269 128.78 24.7967C128.78 24.8666 128.665 24.9237 128.524 24.9237C128.384 24.9237 128.269 24.9809 128.269 25.0507C128.269 25.1206 128.155 25.1777 128.014 25.1777C127.874 25.1777 127.759 25.2349 127.759 25.3047C127.759 25.3746 127.657 25.4317 127.533 25.4317C127.408 25.4317 127.223 25.546 127.122 25.6857C127.021 25.8254 126.849 25.9397 126.739 25.9397C126.63 25.9397 126.458 26.054 126.357 26.1937C126.256 26.3334 126.094 26.4477 125.997 26.4477C125.901 26.4477 125.661 26.6191 125.464 26.8286C125.268 27.0382 125.043 27.2096 124.965 27.2096C124.78 27.2096 122.659 29.3218 122.659 29.5063C122.659 29.584 122.487 29.8078 122.276 30.0035C122.066 30.1992 121.894 30.4382 121.894 30.5343C121.894 30.6306 121.779 30.7917 121.639 30.8924C121.498 30.9932 121.384 31.1646 121.384 31.2734C121.384 31.3823 121.269 31.5537 121.129 31.6544C120.988 31.7551 120.874 31.9391 120.874 32.0635C120.874 32.1877 120.816 32.2894 120.746 32.2894C120.676 32.2894 120.619 32.4037 120.619 32.5434C120.619 32.6831 120.561 32.7974 120.491 32.7974C120.421 32.7974 120.363 32.9688 120.363 33.1783C120.363 33.3879 120.306 33.5593 120.236 33.5593C120.166 33.5593 120.108 33.6736 120.108 33.8133C120.108 33.953 120.051 34.0673 119.981 34.0673C119.911 34.0673 119.853 34.2387 119.853 34.4483C119.853 34.6578 119.796 34.8293 119.726 34.8293C119.656 34.8293 119.598 35.0007 119.598 35.2102C119.598 35.4198 119.541 35.5912 119.471 35.5912C119.401 35.5912 119.343 35.8198 119.343 36.0992C119.343 36.3786 119.286 36.6072 119.216 36.6072C119.145 36.6072 119.088 36.9459 119.088 37.3691C119.088 37.7924 119.032 38.1311 118.961 38.1311C118.878 38.1311 118.833 40.2053 118.833 44.0998C118.833 47.9943 118.878 50.0685 118.961 50.0685C119.032 50.0685 119.088 50.4072 119.088 50.8305C119.088 51.2538 119.145 51.5924 119.216 51.5924C119.286 51.5924 119.343 51.821 119.343 52.1004C119.343 52.3798 119.401 52.6084 119.471 52.6084C119.541 52.6084 119.598 52.7798 119.598 52.9894C119.598 53.1989 119.656 53.3704 119.726 53.3704C119.796 53.3704 119.853 53.5418 119.853 53.7513C119.853 53.9609 119.911 54.1323 119.981 54.1323C120.051 54.1323 120.108 54.2466 120.108 54.3863C120.108 54.526 120.166 54.6403 120.236 54.6403C120.306 54.6403 120.363 54.7546 120.363 54.8943C120.363 55.034 120.421 55.1483 120.491 55.1483C120.561 55.1483 120.619 55.2626 120.619 55.4023C120.619 55.542 120.676 55.6563 120.746 55.6563C120.816 55.6563 120.874 55.7705 120.874 55.9102C120.874 56.0499 120.931 56.1642 121.001 56.1642C121.071 56.1642 121.129 56.2785 121.129 56.4182C121.129 56.5579 121.186 56.6722 121.256 56.6722C121.326 56.6722 121.384 56.7739 121.384 56.8981C121.384 57.0224 121.498 57.2065 121.639 57.3072C121.779 57.4079 121.894 57.5678 121.894 57.6626C121.894 57.7575 122.123 58.0547 122.404 58.3231C122.684 58.5916 122.914 58.8739 122.914 58.9505C122.914 59.1321 124.524 60.736 124.707 60.736C124.784 60.736 125.067 60.9646 125.337 61.244C125.606 61.5234 125.905 61.752 126 61.752C126.095 61.752 126.256 61.8663 126.357 62.0059C126.458 62.1456 126.643 62.2599 126.767 62.2599C126.892 62.2599 126.994 62.3171 126.994 62.3869C126.994 62.4568 127.109 62.5139 127.249 62.5139C127.39 62.5139 127.504 62.5711 127.504 62.6409C127.504 62.7108 127.619 62.7679 127.759 62.7679C127.9 62.7679 128.014 62.8251 128.014 62.8949C128.014 62.9647 128.129 63.0219 128.269 63.0219C128.41 63.0219 128.524 63.079 128.524 63.1489C128.524 63.2187 128.639 63.2759 128.78 63.2759C128.92 63.2759 129.035 63.333 129.035 63.4029C129.035 63.4727 129.149 63.5299 129.29 63.5299C129.43 63.5299 129.545 63.587 129.545 63.6569C129.545 63.7267 129.717 63.7839 129.927 63.7839C130.138 63.7839 130.31 63.841 130.31 63.9109C130.31 63.9807 130.482 64.0378 130.692 64.0378C130.903 64.0378 131.075 64.095 131.075 64.1648C131.075 64.2347 131.362 64.2918 131.712 64.2918C132.063 64.2918 132.35 64.349 132.35 64.4188C132.35 64.4913 132.732 64.5458 133.243 64.5458C133.753 64.5458 134.135 64.6003 134.135 64.6728C134.135 64.7557 136.303 64.7998 140.383 64.7998H146.632V60.609V56.4182H140.383C136.303 56.4182 134.135 56.3741 134.135 56.2912C134.135 56.2214 133.906 56.1642 133.625 56.1642C133.345 56.1642 133.115 56.1071 133.115 56.0372C133.115 55.9674 132.943 55.9102 132.732 55.9102C132.522 55.9102 132.35 55.8531 132.35 55.7832C132.35 55.7134 132.235 55.6563 132.095 55.6563C131.955 55.6563 131.84 55.5991 131.84 55.5293C131.84 55.4594 131.738 55.4023 131.613 55.4023C131.488 55.4023 131.303 55.288 131.202 55.1483C131.101 55.0086 130.944 54.8943 130.853 54.8943C130.638 54.8943 128.78 53.0435 128.78 52.829C128.78 52.7384 128.665 52.5821 128.524 52.4814C128.384 52.3807 128.269 52.1967 128.269 52.0724C128.269 51.9482 128.212 51.8464 128.142 51.8464C128.072 51.8464 128.014 51.7321 128.014 51.5924C128.014 51.4528 127.957 51.3385 127.887 51.3385C127.817 51.3385 127.759 51.167 127.759 50.9575C127.759 50.7479 127.702 50.5765 127.632 50.5765C127.562 50.5765 127.504 50.3479 127.504 50.0685C127.504 49.7891 127.447 49.5605 127.377 49.5605C127.294 49.5605 127.249 47.6133 127.249 43.9728C127.249 40.3323 127.294 38.3851 127.377 38.3851C127.447 38.3851 127.504 38.1565 127.504 37.8771C127.504 37.5977 127.562 37.3691 127.632 37.3691C127.702 37.3691 127.759 37.2548 127.759 37.1151C127.759 36.9755 127.817 36.8612 127.887 36.8612C127.957 36.8612 128.014 36.7469 128.014 36.6072C128.014 36.4675 128.072 36.3532 128.142 36.3532C128.212 36.3532 128.269 36.2389 128.269 36.0992C128.269 35.9595 128.327 35.8452 128.397 35.8452C128.467 35.8452 128.524 35.7539 128.524 35.6421C128.524 35.5305 128.697 35.2789 128.907 35.0832C129.117 34.8875 129.29 34.6626 129.29 34.5835C129.29 34.3841 130.136 33.5593 130.341 33.5593C130.433 33.5593 130.591 33.445 130.692 33.3053C130.793 33.1656 130.965 33.0513 131.075 33.0513C131.184 33.0513 131.356 32.937 131.457 32.7974C131.565 32.6483 131.787 32.5434 131.996 32.5434C132.19 32.5434 132.35 32.4862 132.35 32.4164C132.35 32.3465 132.465 32.2894 132.605 32.2894C132.745 32.2894 132.86 32.2322 132.86 32.1624C132.86 32.0925 133.032 32.0354 133.243 32.0354C133.453 32.0354 133.625 31.9782 133.625 31.9084C133.625 31.8253 135.878 31.7814 140.128 31.7814H146.632V27.5906V23.3998H140.128C135.878 23.3998 133.625 23.4438 133.625 23.5268ZM74.968 31.9084C74.968 31.9782 75.1275 32.0354 75.3224 32.0354C75.5305 32.0354 75.7526 32.1403 75.8606 32.2894C75.9617 32.4291 76.1193 32.5434 76.2109 32.5434C76.4275 32.5434 77.5183 33.6297 77.5183 33.8454C77.5183 33.9366 77.6331 34.0936 77.7733 34.1943C77.923 34.3019 78.0284 34.5231 78.0284 34.7303C78.0284 34.9244 78.0857 35.0832 78.1559 35.0832C78.226 35.0832 78.2834 35.3118 78.2834 35.5912C78.2834 35.8706 78.3408 36.0992 78.4109 36.0992C78.481 36.0992 78.5384 36.3849 78.5384 36.7342C78.5384 37.0834 78.481 37.3691 78.4109 37.3691C78.3408 37.3691 78.2834 37.5977 78.2834 37.8771C78.2834 38.1565 78.226 38.3851 78.1559 38.3851C78.0857 38.3851 78.0284 38.4994 78.0284 38.6391C78.0284 38.7788 77.971 38.8931 77.9008 38.8931C77.8307 38.8931 77.7733 39.0074 77.7733 39.147C77.7733 39.2867 77.716 39.401 77.6458 39.401C77.5757 39.401 77.5183 39.4887 77.5183 39.5957C77.5183 39.8335 76.6993 40.671 76.4668 40.671C76.3747 40.671 76.2168 40.7853 76.1156 40.925C76.0145 41.0647 75.8297 41.179 75.7049 41.179C75.5802 41.179 75.4781 41.2361 75.4781 41.3059C75.4781 41.3758 75.3633 41.4329 75.223 41.4329C75.0828 41.4329 74.968 41.4901 74.968 41.5599C74.968 41.6425 73.1828 41.6869 69.8674 41.6869H64.7668V36.7342V31.7814H69.8674C73.1828 31.7814 74.968 31.8259 74.968 31.9084ZM101.236 36.2262C101.236 36.4357 101.294 36.6072 101.364 36.6072C101.434 36.6072 101.491 36.7215 101.491 36.8612C101.491 37.0009 101.549 37.1151 101.619 37.1151C101.689 37.1151 101.746 37.2866 101.746 37.4961C101.746 37.7057 101.804 37.8771 101.874 37.8771C101.944 37.8771 102.001 38.0486 102.001 38.2581C102.001 38.4676 102.059 38.6391 102.129 38.6391C102.199 38.6391 102.256 38.7534 102.256 38.8931C102.256 39.0328 102.314 39.147 102.384 39.147C102.454 39.147 102.511 39.3185 102.511 39.528C102.511 39.7376 102.569 39.909 102.639 39.909C102.709 39.909 102.766 40.0233 102.766 40.163C102.766 40.3027 102.824 40.417 102.894 40.417C102.964 40.417 103.021 40.5884 103.021 40.798C103.021 41.0075 103.079 41.179 103.149 41.179C103.219 41.179 103.276 41.3504 103.276 41.5599C103.276 41.7695 103.334 41.9409 103.404 41.9409C103.474 41.9409 103.531 42.0552 103.531 42.1949C103.531 42.3346 103.589 42.4489 103.659 42.4489C103.729 42.4489 103.786 42.6203 103.786 42.8299C103.786 43.0394 103.844 43.2109 103.914 43.2109C103.984 43.2109 104.042 43.3823 104.042 43.5918C104.042 43.8014 104.099 43.9728 104.169 43.9728C104.239 43.9728 104.297 44.0871 104.297 44.2268C104.297 44.3665 104.354 44.4808 104.424 44.4808C104.494 44.4808 104.552 44.6522 104.552 44.8618C104.552 45.0713 104.609 45.2428 104.679 45.2428C104.749 45.2428 104.807 45.4142 104.807 45.6237C104.807 45.8333 104.864 46.0047 104.934 46.0047C105.004 46.0047 105.062 46.119 105.062 46.2587C105.062 46.3984 105.119 46.5127 105.189 46.5127C105.259 46.5127 105.317 46.6841 105.317 46.8937C105.317 47.1032 105.374 47.2747 105.444 47.2747C105.514 47.2747 105.572 47.4461 105.572 47.6556C105.572 47.8652 105.629 48.0366 105.699 48.0366C105.769 48.0366 105.827 48.1509 105.827 48.2906C105.827 48.4303 105.884 48.5446 105.954 48.5446C106.024 48.5446 106.082 48.716 106.082 48.9256C106.082 49.1351 106.139 49.3066 106.209 49.3066C106.279 49.3066 106.337 49.478 106.337 49.6875V50.0685H100.981H95.6255V49.6875C95.6255 49.478 95.6829 49.3066 95.753 49.3066C95.8231 49.3066 95.8805 49.1923 95.8805 49.0526C95.8805 48.9129 95.9379 48.7986 96.008 48.7986C96.0782 48.7986 96.1356 48.6271 96.1356 48.4176C96.1356 48.2081 96.1929 48.0366 96.2631 48.0366C96.3332 48.0366 96.3906 47.9223 96.3906 47.7826C96.3906 47.6429 96.448 47.5286 96.5181 47.5286C96.5882 47.5286 96.6456 47.3572 96.6456 47.1477C96.6456 46.9381 96.703 46.7667 96.7731 46.7667C96.8433 46.7667 96.9006 46.5952 96.9006 46.3857C96.9006 46.1762 96.958 46.0047 97.0282 46.0047C97.0983 46.0047 97.1557 45.8904 97.1557 45.7507C97.1557 45.611 97.2131 45.4967 97.2832 45.4967C97.3533 45.4967 97.4107 45.3253 97.4107 45.1158C97.4107 44.9062 97.4681 44.7348 97.5382 44.7348C97.6084 44.7348 97.6657 44.5633 97.6657 44.3538C97.6657 44.1443 97.7231 43.9728 97.7933 43.9728C97.8634 43.9728 97.9208 43.8585 97.9208 43.7188C97.9208 43.5791 97.9781 43.4648 98.0483 43.4648C98.1184 43.4648 98.1758 43.2934 98.1758 43.0839C98.1758 42.8743 98.2332 42.7029 98.3033 42.7029C98.3735 42.7029 98.4308 42.5314 98.4308 42.3219C98.4308 42.1124 98.4882 41.9409 98.5583 41.9409C98.6285 41.9409 98.6859 41.8266 98.6859 41.6869C98.6859 41.5472 98.7432 41.4329 98.8134 41.4329C98.8835 41.4329 98.9409 41.2615 98.9409 41.052C98.9409 40.8424 98.9983 40.671 99.0684 40.671C99.1385 40.671 99.1959 40.4995 99.1959 40.29C99.1959 40.0805 99.2533 39.909 99.3234 39.909C99.3936 39.909 99.451 39.7947 99.451 39.655C99.451 39.5153 99.5083 39.401 99.5785 39.401C99.6486 39.401 99.706 39.2296 99.706 39.0201C99.706 38.8105 99.7634 38.6391 99.8335 38.6391C99.9036 38.6391 99.961 38.4676 99.961 38.2581C99.961 38.0486 100.018 37.8771 100.089 37.8771C100.159 37.8771 100.216 37.7628 100.216 37.6231C100.216 37.4834 100.273 37.3691 100.344 37.3691C100.414 37.3691 100.471 37.1977 100.471 36.9882C100.471 36.7786 100.528 36.6072 100.599 36.6072C100.669 36.6072 100.726 36.519 100.726 36.4113C100.726 36.2031 100.981 35.8582 101.141 35.85C101.193 35.8474 101.236 36.0167 101.236 36.2262Z" fill="black"/>
</svg>
