<svg width="58" height="58" viewBox="0 0 58 58" fill="none" xmlns="http://www.w3.org/2000/svg">
<path d="M21.7275 43.5C18.0612 43.503 14.374 42.5805 11.0349 40.688C10.3802 40.3161 10.1511 39.4859 10.5201 38.8312C10.8891 38.1766 11.7194 37.9474 12.3771 38.3194C19.7872 42.5151 29.1614 41.2474 35.1788 35.2366C39.6576 30.7583 41.6277 24.4053 40.4433 18.2427C40.3004 17.5048 40.7855 16.7906 41.5235 16.6478C42.2675 16.5139 42.9758 16.99 43.1157 17.728C44.4697 24.7773 42.2199 32.0408 37.1013 37.1589C32.9349 41.3278 27.358 43.5 21.7275 43.5ZM1.7232 26.8662C1.08337 26.8662 0.51199 26.4139 0.387 25.7622C-0.961105 18.7367 1.25895 11.4761 6.32699 6.34018C13.2699 -0.536527 24.016 -1.98269 32.4677 2.80512C33.1224 3.17707 33.3516 4.00728 32.9826 4.66192C32.6106 5.31061 31.7803 5.54271 31.1256 5.17373C23.7244 0.98105 14.3234 2.25165 8.25541 8.26245C3.8272 12.7467 1.88093 19.0997 3.0594 25.2474C3.20225 25.9854 2.71717 26.6995 1.97913 26.8424C1.89283 26.8572 1.80653 26.8662 1.7232 26.8662Z" fill="black"/>
<path d="M42.8982 44.3056C42.5407 44.3056 42.1801 44.1804 41.9058 43.9272L35.0579 37.6705C34.5062 37.1641 34.5 36.3418 35.0486 35.8296C35.5941 35.3204 36.4879 35.3147 37.0426 35.8211L43.8906 42.0778C44.4422 42.5842 44.4484 43.4065 43.8998 43.9186C43.6255 44.1747 43.2619 44.3056 42.8982 44.3056Z" fill="black"/>
<path d="M51.6002 58C51.5793 58 51.5584 57.997 51.5375 57.997C50.4913 57.982 49.5229 57.5517 48.8055 56.7866L39.0702 47.0531C38.5352 46.5182 38.5352 45.6545 39.0702 45.1195L45.123 39.0678C45.658 38.5329 46.5219 38.5329 47.0569 39.0678L56.8221 48.8313C57.5544 49.5186 57.9848 50.4869 58.0027 51.5299C58.0207 52.6057 57.6022 53.6278 56.8221 54.4078L54.4129 56.8165C53.6477 57.5786 52.6494 58 51.6002 58ZM41.9666 46.0848L50.7633 54.883C51.0682 55.2057 51.4209 55.2655 51.5942 55.2625C51.9171 55.2625 52.2279 55.128 52.473 54.883L54.8822 52.4742C55.1333 52.2232 55.2678 51.9034 55.2618 51.5717C55.2588 51.3595 55.196 51.0547 54.9151 50.7917L46.0855 41.9637L41.9666 46.0848Z" fill="black"/>
<path d="M16.0939 21.75C13.8844 21.7531 11.8834 20.0891 11.3733 17.6511C10.8547 14.6646 12.5091 11.9431 15.1329 11.4007C16.3955 11.099 17.6891 11.358 18.7741 12.1229C19.8563 12.8879 20.5862 14.0612 20.8314 15.4203C21.1076 16.7369 20.8793 18.1387 20.1776 19.3242C19.4815 20.5006 18.4049 21.3203 17.1508 21.6281C16.7957 21.7074 16.4406 21.75 16.0939 21.75ZM16.1615 14.0642C16.0009 14.0642 15.8374 14.0825 15.674 14.1252C15.6599 14.1282 15.643 14.1312 15.6261 14.1343C14.4114 14.3811 13.6476 15.6763 13.8928 17.0873C14.1606 18.3612 15.3612 19.2084 16.5787 18.9037C17.1677 18.7604 17.6721 18.3764 18.0019 17.8187C18.3288 17.2671 18.4359 16.618 18.3063 15.9902C18.1879 15.335 17.8553 14.8047 17.3621 14.4573C16.9986 14.1983 16.5843 14.0642 16.1615 14.0642Z" fill="black"/>
<path d="M27.7312 32.2222C26.7514 32.2222 25.7717 31.933 24.911 31.3758C23.7359 30.6116 22.9453 29.4395 22.6828 28.0785C22.3807 26.748 22.6248 25.3445 23.3757 24.1662C24.1235 22.994 25.2955 22.1811 26.6751 21.8797C29.474 21.2404 32.2882 23.0275 32.9261 25.8499C33.4908 28.8427 31.6869 31.5676 28.83 32.1004C28.4668 32.1826 28.0975 32.2222 27.7312 32.2222ZM27.8136 24.5377C27.6396 24.5377 27.4596 24.5559 27.2825 24.5955C27.2795 24.5955 27.2764 24.5955 27.2734 24.5955C26.6233 24.7386 26.0769 25.1161 25.729 25.6611C25.381 26.2061 25.2681 26.8637 25.4115 27.5061C25.5397 28.1607 25.8999 28.6905 26.434 29.0406C26.9804 29.3938 27.6274 29.5095 28.2592 29.3725C29.6266 29.1137 30.4507 27.8197 30.1883 26.4101C29.941 25.314 28.9307 24.5377 27.8136 24.5377Z" fill="black"/>
<path d="M8.63324 30.6111C8.39708 30.6111 8.15788 30.5522 7.93989 30.4284C7.27984 30.054 7.05276 29.2286 7.43729 28.5859L13 19.5C13.3875 18.8544 14.2293 18.6363 14.8923 19.0107C15.5524 19.385 15.7795 20.2104 15.3949 20.8531L9.83222 29.939C9.57486 30.3724 9.10859 30.6111 8.63324 30.6111ZM24.7727 25.5378C24.4396 25.5378 24.1036 25.4199 23.8371 25.1841L18.1191 19.984C17.5559 19.4799 17.5166 18.628 18.0313 18.0768C18.546 17.5285 19.4241 17.4901 19.9872 17.9913L25.7052 23.1913C26.2684 23.6954 26.3077 24.5474 25.793 25.0986C25.5205 25.3875 25.1451 25.5378 24.7727 25.5378ZM30.1933 24.6828C29.9572 24.6828 29.718 24.6238 29.5 24.5C28.84 24.1256 28.6129 23.3002 28.9974 22.6576L34.4749 13.5606C34.8594 12.918 35.7072 12.6969 36.3672 13.0713C37.0273 13.4456 37.2543 14.271 36.8698 14.9137L31.3923 24.0107C31.135 24.444 30.6687 24.6828 30.1933 24.6828Z" fill="black"/>
<path d="M6.83299 37.8611C4.38352 37.8611 2.2504 36.2078 1.71411 33.7639C1.15673 30.9112 2.91926 28.2208 5.71822 27.6106C5.72726 27.6076 5.73931 27.6075 5.74835 27.6075C7.11921 27.34 8.55937 27.6316 9.70125 28.4042C10.822 29.1647 11.5753 30.316 11.8283 31.6477C12.443 34.3651 10.6834 37.1307 7.89051 37.7589C7.53499 37.8281 7.18248 37.8611 6.83299 37.8611ZM6.29067 30.301C4.97706 30.5956 4.15153 31.8701 4.41365 33.2078C4.69686 34.4974 5.98034 35.327 7.32409 35.0685C8.59251 34.78 9.42105 33.4904 9.1288 32.2008C9.00527 31.5455 8.66181 31.0224 8.15263 30.6767C7.62236 30.319 6.94447 30.1807 6.29067 30.301ZM37.5583 15.9922C36.4978 15.9922 35.4674 15.6826 34.6057 15.0994C33.4879 14.3389 32.7317 13.1876 32.4816 11.8559C32.1864 10.5663 32.4334 9.18656 33.1836 8.01421C33.9278 6.85388 35.0757 6.04826 36.4194 5.74465C36.4345 5.74165 36.4466 5.73864 36.4586 5.73864C39.2937 5.19154 41.9812 6.94707 42.5958 9.73967C43.1472 12.5924 41.3877 15.2828 38.5917 15.893C38.2483 15.9622 37.9018 15.9922 37.5583 15.9922ZM37.0039 8.43506C36.3833 8.57935 35.85 8.9551 35.5035 9.49919C35.154 10.0433 35.0396 10.6836 35.1781 11.2998C35.3017 11.9581 35.6451 12.4812 36.1513 12.8269C36.6906 13.1936 37.3775 13.3229 38.0313 13.2026C39.3209 12.9171 40.1554 11.6395 39.8933 10.2958C39.6161 9.01522 38.3447 8.17353 37.0039 8.43506Z" fill="black"/>
</svg>
