<svg width="58" height="58" viewBox="0 0 58 58" fill="none" xmlns="http://www.w3.org/2000/svg">
<path d="M27.5308 53.5608H26.8148C12.0295 53.5608 0 41.5612 0 26.8148C0 12.0295 12.0295 0 26.8148 0C41.5642 0 53.5608 12.0295 53.5608 26.8148V27.5308C53.5608 28.2886 52.9468 28.9026 52.1889 28.9026C51.4311 28.9026 50.817 28.2886 50.817 27.5308V26.8148C50.817 13.5422 40.0485 2.74079 26.8119 2.74079C13.5392 2.74079 2.7378 13.5392 2.7378 26.8148C2.7378 40.0515 13.5362 50.82 26.8119 50.82H27.5278C28.2856 50.82 28.8997 51.4341 28.8997 52.1919C28.9026 52.9497 28.2886 53.5608 27.5308 53.5608Z" fill="black"/>
<path d="M26.8143 9.26774C26.0564 9.26774 25.4424 8.65369 25.4424 7.89585V5.80805C25.4424 5.05021 26.0564 4.43616 26.8143 4.43616C27.5721 4.43616 28.1862 5.05021 28.1862 5.80805V7.89585C28.1862 8.65369 27.5721 9.26774 26.8143 9.26774Z" fill="black"/>
<path d="M7.89622 28.1868H5.80842C5.05058 28.1868 4.43652 27.5727 4.43652 26.8149C4.43652 26.057 5.05058 25.443 5.80842 25.443H7.89622C8.65405 25.443 9.26811 26.057 9.26811 26.8149C9.26811 27.5727 8.65405 28.1868 7.89622 28.1868Z" fill="black"/>
<path d="M28.8337 27.336C28.2975 27.336 27.7913 27.0185 27.5696 26.4943C27.2761 25.7964 27.6026 24.9966 28.3035 24.7001L34.0457 22.2858C34.7436 21.9982 35.5434 22.3217 35.8399 23.0197C36.1335 23.7176 35.807 24.5174 35.106 24.8139L29.3669 27.2282C29.1931 27.3001 29.0134 27.336 28.8337 27.336ZM25.1164 26.8148C24.8138 26.8148 24.5083 26.713 24.2567 26.5123L13.4942 17.8346C12.9041 17.3584 12.8143 16.4957 13.2875 15.9056C13.7638 15.3155 14.6235 15.2256 15.2166 15.6989L25.9791 24.3766C26.5691 24.8529 26.659 25.7125 26.1857 26.3056C25.9132 26.6381 25.5178 26.8148 25.1164 26.8148Z" fill="black"/>
<path d="M26.8151 30.3374C24.8381 30.3374 23.2266 28.7588 23.2266 26.8148C23.2266 24.8019 24.8051 23.2263 26.8151 23.2263C28.7561 23.2263 30.3376 24.8378 30.3376 26.8148C30.3376 28.7558 28.7561 30.3374 26.8151 30.3374ZM26.8151 25.9671C26.3328 25.9671 25.9674 26.3325 25.9674 26.8148C25.9674 27.2461 26.3478 27.5936 26.8151 27.5936C27.2314 27.5936 27.5939 27.2282 27.5939 26.8148C27.5939 26.3475 27.2464 25.9671 26.8151 25.9671Z" fill="black"/>
<path d="M43.58 58C35.6302 58 29.1631 51.5329 29.1631 43.5801C29.1631 35.6303 35.6302 29.1632 43.58 29.1632C51.5328 29.1632 57.9998 35.6303 57.9998 43.5801C57.9998 51.5299 51.5298 58 43.58 58ZM43.58 31.904C37.1398 31.904 31.9039 37.14 31.9039 43.5801C31.9039 50.0202 37.1398 55.2592 43.58 55.2592C50.0201 55.2592 55.259 50.0202 55.259 43.5801C55.256 37.14 50.0171 31.904 43.58 31.904Z" fill="black"/>
<path d="M42.3398 44.949C40.1442 44.949 38.4248 43.2297 38.4248 41.034C38.4248 38.8773 40.1442 37.1849 42.3398 37.1849C43.0976 37.1849 43.7117 37.799 43.7117 38.5568C43.7117 39.3147 43.0976 39.9287 42.3398 39.9287C41.6808 39.9287 41.1656 40.414 41.1656 41.037C41.1656 41.717 41.6568 42.2112 42.3398 42.2112C43.0976 42.2112 43.7117 42.8253 43.7117 43.5831C43.7117 44.335 43.0976 44.949 42.3398 44.949Z" fill="black"/>
<path d="M44.8201 49.9753C44.0623 49.9753 43.4482 49.3612 43.4482 48.6034C43.4482 47.8455 44.0623 47.2315 44.8201 47.2315C45.4791 47.2315 45.9943 46.7462 45.9943 46.1232C45.9943 45.4432 45.5031 44.949 44.8201 44.949C44.0623 44.949 43.4482 44.3349 43.4482 43.5771C43.4482 42.8193 44.0623 42.2052 44.8201 42.2052C47.0158 42.2052 48.7351 43.9276 48.7351 46.1232C48.7351 48.2829 47.0158 49.9753 44.8201 49.9753Z" fill="black"/>
<path d="M44.8208 44.949H42.3406C41.5828 44.949 40.9688 44.3349 40.9688 43.5771C40.9688 42.8193 41.5828 42.2052 42.3406 42.2052H44.8208C45.5787 42.2052 46.1927 42.8193 46.1927 43.5771C46.1897 44.3349 45.5787 44.949 44.8208 44.949Z" fill="black"/>
<path d="M44.82 49.9754H39.7967C39.0389 49.9754 38.4248 49.3613 38.4248 48.6035C38.4248 47.8456 39.0389 47.2316 39.7967 47.2316H44.82C45.5778 47.2316 46.1919 47.8456 46.1919 48.6035C46.1889 49.3613 45.5778 49.9754 44.82 49.9754Z" fill="black"/>
<path d="M47.3639 39.9257H42.3406C41.5828 39.9257 40.9688 39.3116 40.9688 38.5538C40.9688 37.7959 41.5828 37.1819 42.3406 37.1819H47.3639C48.1218 37.1819 48.7358 37.7959 48.7358 38.5538C48.7358 39.3116 48.1218 39.9257 47.3639 39.9257Z" fill="black"/>
<path d="M43.5799 39.9258C42.8221 39.9258 42.208 39.3117 42.208 38.5539V36.4691C42.208 35.7112 42.8221 35.0972 43.5799 35.0972C44.3377 35.0972 44.9518 35.7112 44.9518 36.4691V38.5539C44.9488 39.3117 44.3347 39.9258 43.5799 39.9258Z" fill="black"/>
<path d="M43.5799 52.0602C42.8221 52.0602 42.208 51.4461 42.208 50.6883V48.6035C42.208 47.8456 42.8221 47.2316 43.5799 47.2316C44.3377 47.2316 44.9518 47.8456 44.9518 48.6035V50.6883C44.9488 51.4461 44.3347 52.0602 43.5799 52.0602Z" fill="black"/>
</svg>
