<svg width="58" height="58" viewBox="0 0 58 58" fill="none" xmlns="http://www.w3.org/2000/svg">
<path d="M48.4827 58H9.35336C8.60576 58 8 57.3859 8 56.631V7.43794C8 6.68306 8.60576 6.06897 9.35336 6.06897H13.4726C14.2202 6.06897 14.8259 6.68306 14.8259 7.43794C14.8259 8.19282 14.2202 8.80691 13.4726 8.80691H10.7038V55.259H47.1293V8.80691H44.3635C43.6159 8.80691 43.0102 8.19282 43.0102 7.43794C43.0102 6.68306 43.6159 6.06897 44.3635 6.06897H48.4827C49.2303 6.06897 49.8361 6.68306 49.8361 7.43794V56.631C49.8361 57.3859 49.2303 58 48.4827 58Z" fill="black"/>
<path d="M39.9875 11.8744H17.784C17.0364 11.8744 16.4307 11.2603 16.4307 10.5054V4.43642C16.4307 3.68154 17.0364 3.06745 17.784 3.06745H24.2524C25.0384 1.2162 26.8232 0 28.9182 0C30.9483 0 32.7301 1.2162 33.5546 3.06745H39.9875C40.7351 3.06745 41.3408 3.68154 41.3408 4.43642V10.5024C41.3379 11.2603 40.7351 11.8744 39.9875 11.8744ZM19.1374 9.13346H38.6341V5.80539H32.5853C31.95 5.80539 31.4034 5.35905 31.2674 4.73298C31.0103 3.55872 30.047 2.73794 28.9182 2.73794C27.751 2.73794 26.7877 3.53775 26.5779 4.68505C26.4597 5.33509 25.9013 5.80539 25.2512 5.80539H19.1374V9.13346Z" fill="black"/>
<rect x="19" y="22" width="20" height="3" rx="1.5" fill="black"/>
<rect x="19" y="31" width="20" height="3" rx="1.5" fill="black"/>
<rect x="19" y="40" width="12" height="3" rx="1.5" fill="black"/>
</svg>
