<svg xmlns="http://www.w3.org/2000/svg" viewBox="0 0 64 64" width="256" height="256">
	<path d="M32 4.172c-17.645 0-32 11.476-32 25.586 0 8.875 5.559 16.918 14.906 21.637-.172 2.347-.808 6.257-3.004 9.917a.993.993 0 00.047 1.098.993.993 0 001.028.395c7.57-1.684 11.12-6 12.402-8.016 2.187.367 4.41.555 6.621.555 17.648 0 32-11.477 32-25.582 0-14.11-14.355-25.59-32-25.59zm0 2c16.543 0 30 10.582 30 23.586 0 13.004-13.457 23.586-30 23.586-2.32 0-4.656-.215-6.941-.64a.997.997 0 00-1.063.5c-.672 1.226-3.195 5.058-9.281 7.054 1.71-3.735 2.137-7.39 2.226-9.418a1.006 1.006 0 00-.562-.95C7.375 45.563 2 38.036 2 29.763c0-13.008 13.457-23.59 30-23.59zM32 10C18.238 10 7.043 18.973 7.043 30c0 1.344.168 2.688.496 3.996a1 1 0 001.219.723.993.993 0 00.722-1.211A14.383 14.383 0 019.043 30c0-9.926 10.297-18 22.957-18 4.066 0 8.063.844 11.555 2.45a1.002 1.002 0 00.836-1.821C40.637 10.91 36.35 10 32 10zm16.055 5.02a.985.985 0 00-.653.402.999.999 0 00.22 1.394c.894.657 1.73 1.368 2.48 2.122a.991.991 0 001.414.004.996.996 0 00.004-1.415 22.526 22.526 0 00-2.723-2.328.987.987 0 00-.742-.18zM34 18a1.999 1.999 0 100 4 1.999 1.999 0 100-4zm19.473 2.813a.975.975 0 00-.371.136.994.994 0 00-.336 1.371c1.453 2.41 2.191 4.992 2.191 7.68 0 8.195-7.062 15.36-17.168 17.422-.539.11-.89.64-.777 1.18.093.472.511.8.976.8a.867.867 0 00.2-.023C49.237 47.125 56.956 39.156 56.956 30c0-3.055-.836-5.988-2.484-8.715a.998.998 0 00-1-.473zM31.039 24c-.48 0-.96.398-.96 1s.358 1 .96 1h.809l-1.715 12h-2.094c-.48 0-.96.398-.96 1s.358 1 .96 1H34c.602 0 .96-.398.96-1s-.358-1-.96-1h-1.848l1.715-12H35c.602 0 .96-.398.96-1s-.358-1-.96-1zM12.945 36.813a.99.99 0 00-.746.164l-1.64 1.144a1.002 1.002 0 00.574 1.82c.199 0 .394-.058.57-.18l1.64-1.148a.997.997 0 00-.398-1.8zm3.442 4.03a1 1 0 00-.684.356l-1.285 1.531a.994.994 0 00.125 1.407 1.001 1.001 0 001.406-.121l1.285-1.532a1.002 1.002 0 00-.847-1.64zm4.742 2.95a.986.986 0 00-.942.57l-.847 1.813a1.002 1.002 0 00.906 1.426c.375 0 .734-.215.906-.579l.844-1.808a.997.997 0 00-.867-1.422zm5.363 1.664a1.004 1.004 0 00-1.16.813l-.348 1.968a.998.998 0 00.985 1.172 1 1 0 00.984-.824l.352-1.969a1.003 1.003 0 00-.813-1.16zm5.219.23c-.55.051-.957.536-.91 1.083l.172 1.996c.047.52.48.914.996.914.027 0 .058 0 .086-.004a.999.999 0 00.91-1.082l-.172-1.996a1.006 1.006 0 00-1.082-.91z"/>
</svg>