<svg width="220" height="72" xmlns="http://www.w3.org/2000/svg"><g fill="none" fill-rule="evenodd"><path d="M171.5524 32.7887c-.2046 4.1054.4739 7.4821 3.4861 10.124-1.4432 1.0135-2.906 1.536-4.554 1.4116-2.0452-.154-3.3748-2.0594-3.1041-4.4609.3172-2.8183 1.9585-4.8687 4.172-7.0747zm5.7562 1.7676c-.0286-.4596.454-1.468 1.3177-1.468.8637 0 .8637.9978.844 1.4786-.0545 1.3283-.3534 2.646-.5557 3.9682-.2569.018-.5137.0354-.7709.0531-.3044-1.3421-.75-2.6756-.8351-4.0319zM61.4294 46.2762c-2.1081.8393-4.4208 1.9483-6.851 2.6479-1.2018.3459-2.7378.2412-3.9052-.2175-1.1003-.4322-1.9155-1.596-3.0296-2.593-.9812.5172-2.305 1.3028-3.7 1.9292-2.079.9331-4.2388 1.5045-6.539.8407-2.2577-.652-3.1676-2.0923-2.6327-4.3634 1.3257-5.632 2.6559-11.2644 4.0981-16.8668.1734-.6735 1.0014-1.596 1.6076-1.6633 2.2636-.2518 4.564-.2889 6.845-.2174 1.2059.0374 1.3561.8558.9333 1.9612-1.8369 4.802-3.6076 9.6292-5.3972 14.4493-.1955.5262-.3587 1.0648-.6624 1.973.8589-.2495 1.4182-.273 1.798-.5465 1.774-1.2771 3.5372-2.5764 5.213-3.9775.436-.3646.6408-1.1009.7878-1.7064C52.915 25.8992 55.811 13.8672 58.712 1.8362c.4902-2.0343.9808-2.3412 2.678-1.0706 2.1701 1.6246 4.1874 3.468 6.1703 5.3248 1.2875 1.2053 1.4413 2.6518.7777 4.3978-3.9749 10.463-7.8537 20.9632-11.7534 31.4549-.2309.621-.3657 1.278-.5452 1.918.1265.1234.2527.247.3788.3704 1.2018-.7121 2.4411-1.3682 3.5976-2.148 2.2848-1.5415 3.9216-3.4508 4.3114-6.4057.3416-2.5883 1.229-5.1 1.7578-7.6702.264-1.2816.8782-2.1155 2.1599-2.1844 2.1267-.1147 4.2638-.1617 6.3915-.0896 1.0146.0342 1.5248.6468 1.0336 1.7757-.444 1.0207-.7831 2.0875-1.3174 3.5391 1.012-.8329 1.6664-1.506 2.4411-1.9821 1.7685-1.0877 3.4997-2.3345 5.418-3.0573 4.2594-1.605 6.3155.2925 5.509 4.8172 1.5758-1.1499 3.1115-2.3922 4.7673-3.4448 1.768-1.1237 3.662-2.0185 5.8691-1.7956 1.9955.2013 3.0435 1.3318 2.8322 3.3198-.1169 1.1031-.453 2.203-.831 3.2537-1.2146 3.3762-2.5014 6.7262-3.7423 10.093-.1917.5202-.2877 1.0758-.4284 1.6146l.3288.3125c.959-.5077 1.9602-.9496 2.8698-1.5348 2.7817-1.7902 4.8664-3.9971 5.29-7.5694.2943-2.4827 1.0418-4.9283 1.7796-7.3308.2209-.7198 1.0396-1.696 1.6737-1.7682 2.2613-.258 4.5631-.2606 6.8443-.1878 1.0637.0335 1.3418.7247.9173 1.8243-1.8513 4.7956-3.6274 9.6211-5.4148 14.4418-.2132.575-.3282 1.1863-.5738 2.0952.7465-.2264 1.2165-.283 1.5986-.4976 3.369-1.892 6.0637-4.0638 6.984-8.3424 2.422-11.258 5.3005-22.4171 8.0013-33.6145.4428-1.8356.9973-2.1748 2.4996-1.0256 2.2796 1.7445 4.4218 3.6838 6.5084 5.6617 1.1353 1.0758 1.2313 2.4234.6396 3.9862-3.9816 10.5178-7.8814 21.0672-11.7968 31.6101-.2312.622-.3721 1.2771-.6643 2.3004.888-.343 1.5004-.4261 1.9068-.7614 2.3843-1.9648 4.7612-3.9443 7.0411-6.028.4906-.4486.6563-1.3263.8297-2.0407 2.7146-11.1942 5.4058-22.3942 8.1031-33.5926.4749-1.9721.9864-2.3065 2.5638-1.1109 2.2452 1.7016 4.3454 3.6103 6.3976 5.5477 1.1838 1.1173 1.3129 2.494.6958 4.1215-3.987 10.5162-7.8865 21.0649-11.8029 31.6082-.2286.6158-.351 1.2712-.5227 1.9083.1541.1492.3082.2983.462.4474 1.5948-1.0883 3.1989-2.1628 4.7814-3.2682 1.6558-1.1566 2.5574-2.7204 2.9314-4.755.522-2.8412 1.37-5.6208 1.9743-8.449.2652-1.2414.9362-1.9735 2.1158-2.0376 2.1261-.116 4.2642-.1578 6.391-.0683 1.0851.0458 1.5289.65 1.0495 1.884-1.8619 4.792-3.631 9.6198-5.4177 14.4408-.212.5717-.3201 1.1817-.4762 1.774.138.1453.2765.2909.4145.4365 1.399-.8835 2.83-1.72 4.188-2.6624 1.518-1.0532 2.429-2.3265 2.7706-4.3753.9552-5.7245 4.311-10.0669 8.8927-13.4659 1.8323-1.3592 2.5146-1.2468 4.2143.2474.8454.7427 1.6857 1.4906 2.6941 2.3828.3651-.1469 1.024-.488 1.7236-.6802 3.6753-1.0088 6.5883 1.296 6.9499 5.46.2485 2.8656-.4521 5.5306-1.6815 8.0854-.2064.429-.4241.8526-.6463 1.299 2.3329.3537 5.2424-1.758 5.8393-4.2094.6974-2.863 1.4012-5.7254 2.0234-8.605.251-1.163.8836-1.9099 2.0006-1.967 2.1267-.1081 4.2657-.1258 6.3925-.0263 1.1767.0554 1.6885.7456 1.1209 1.9873-.3937.8619-.6608 1.7818-1.1492 3.1316 1.2596-1.003 2.1169-1.7444 3.0335-2.4037 2.4305-1.7493 5.035-3.0599 8.1392-2.9214 3.1635.1408 4.5203 1.9313 3.5182 4.9316-1.3054 3.9098-2.8061 7.754-4.2195 11.6277-.1965.5376-.3734 1.0822-.7038 2.0433 2.5937-.5408 4.2292-1.9563 5.822-3.3793 1.588-1.4182 3.0762-2.9484 4.608-4.4284 1.8333 1.823 1.815 4.1987-.08 5.8378-3.4164 2.9555-6.9264 5.7732-11.4862 6.7604-.823.1777-1.7072.229-2.5455.1507-3.1086-.2909-4.311-1.9931-3.6062-5.0471.6267-2.7143 1.3176-5.414 1.9274-8.1321.1066-.4761-.046-1.0108-.079-1.5184-.5532.0857-1.2182.0058-1.6365.2909-.9645.657-1.8895 1.4152-2.6877 2.2678-2.7262 2.913-4.9904 6.1487-6.556 9.8498-.7981 1.8874-4.285 2.9635-5.9369 1.7805-.3233-.2316-.4896-.9192-.4507-1.3727.077-.8945.3483-1.7715.4732-2.3506-2.267 0-4.5496-.0426-6.8285.036-.453.0158-.928.449-1.3286.7698-3.2255 2.5832-6.7351 4.106-10.9842 3.2232-2.791-.5795-4.8805-2.063-6.1443-4.5624-2.172 1.2565-4.1659 2.6337-6.3427 3.5939-1.5691.6918-3.37 1.0754-5.0877 1.1534-2.4732.112-3.6554-.9203-4.54-3.323-1.4001.7446-2.731 1.6655-4.203 2.1789-1.6864.5881-3.4924 1.0996-5.256 1.1334-2.9031.0564-4.1454-1.3869-4.197-4.2741-1.8459 1.0507-3.604 2.2672-5.5311 3.0805-1.5884.6706-3.3633 1.1128-5.08 1.2065-2.2311.1227-4.1055-.7408-4.5377-3.0679-2.4575 1.0007-4.8103 2.13-7.2761 2.8869-1.1472.352-2.5429.1298-3.7761-.1002-1.546-.2882-2.489-1.3714-2.7503-3.0843-1.484.7891-2.809 1.73-4.2834 2.2173-1.7929.593-3.72 1.1489-5.5735 1.1028-3.1378-.079-4.3148-1.947-3.5867-5.0098.6441-2.7104 1.335-5.4098 1.9515-8.126.107-.4702-.0549-1.0017-.0925-1.5044-.5496.0963-1.2377.0177-1.621.324-.911.7266-1.8806 1.5132-2.4649 2.4926-1.9149 3.2087-3.7299 6.482-5.4579 9.7967-.853 1.6362-4.5046 2.7758-5.8698 1.5151-.3872-.3575-.3901-1.3798-.2491-2.0272.7413-3.402 1.6092-6.7761 2.3717-10.1739.1387-.618-.0055-1.3002-.0193-1.9528-.7153.2506-1.6198.304-2.1161.7833-3.3026 3.1877-5.297 7.2293-7.0655 11.3878-.8916 2.0962-3.9916 3.343-5.9157 2.0759-.542-.3569-.4967-1.612-.6926-2.3493zM31.4417 30.7788c1.2618 0 2.2218.0129 3.1815-.0039.9927-.017 1.5132.3688.9488 1.3432-.907 1.5663-1.7117 3.2798-2.9594 4.5295-.8052.8072-2.3239.8977-3.8971 1.4378-1.7418 4.6945-3.6564 9.8569-5.5725 15.019-.8508 2.2923-1.4959 2.5407-3.6673 1.4162-2.7824-1.4413-3.1574-2.281-2.4148-5.3544 1.003-4.151 1.999-8.3037 3.0467-12.658-2.4751-.3009-4.7891-.5827-7.1034-.864-.5834-.0708-1.1684-.1307-1.7498-.2138-2.4373-.3472-2.6636-.6248-3.151-3.1436-.2209-1.142.08-1.5473 1.2673-1.5299 3.5822.0532 7.166-.0113 10.7481.038 1.0043.0139 1.4837-.2093 1.7348-1.3109 1.213-5.319 2.5419-10.6119 3.925-16.306-2.3771.4122-4.5575.5939-6.6156 1.1949-2.9054.8487-5.7992 1.8388-8.536 3.1168-1.1013.5144-2.3223 1.8595-2.5098 2.9897-.26 1.5689 1.4448 2.3084 2.7281 2.9787.6065.3166 1.2721.5188 1.9078.7717-.6498 2.2304-2.6494 3.62-4.7207 3.0743-1.6313-.43-3.3163-.9382-4.7463-1.7979C.049 23.5605-.8134 20.3296.774 16.8774c1.3231-2.8772 3.5915-4.943 6.1694-6.6118 8.5083-5.5074 17.9164-7.9327 27.9842-7.8094 3.837.0474 5.7757 2.6128 4.5492 6.2689-2.0584 6.1374-4.4227 12.1714-6.6561 18.2498-.4395 1.196-.8688 2.3957-1.379 3.804zm14.2808-8.3278c-1.9814-.0138-3.5219-.4776-4.4266-2.13-.9125-1.6658-.4736-3.2492.5522-4.666 1.6943-2.34 4.0172-3.4796 6.9194-3.219 3.071.2754 4.6587 3.058 3.2935 5.8301-1.3273 2.695-3.662 3.9118-6.3385 4.185zm109.1854-.0157c-.993-.0174-2.4382-.5185-3.2996-2.0034-.8695-1.498-.5362-3.005.2931-4.4229 1.4436-2.4682 4.5615-3.9633 7.3789-3.5646 2.8373.402 4.2619 2.911 3.1773 5.5957-1.0345 2.5612-3.937 4.412-7.5497 4.3952zM115.2661 12.382c2.0555.0187 3.6082.504 4.4535 2.1899.8348 1.6636.4213 3.264-.6309 4.676-1.6891 2.267-3.9896 3.3636-6.8137 3.1591-3.1016-.2242-4.7393-2.978-3.3886-5.7718 1.3299-2.7507 3.6615-4.0741 6.3797-4.2532z" fill="#6323D4"/><path d="M43.0671 58.15h-3.7402l-2.2683 13.1127h-1.8045L37.5224 58.15h-3.7402l.2823-1.5961h9.2849l-.2823 1.596zm10.631 13.1127h-1.8045l1.1795-6.7988h-5.716l-1.1796 6.7988H44.373l2.5405-14.7087h1.8045l-1.0989 6.3239h5.7262l1.0888-6.324h1.8146l-2.5505 14.7088zm12.587-6.7988h-5.0307l-.9073 5.2127h5.8673l-.2822 1.586h-7.6618l2.5405-14.7086h7.5811l-.2823 1.596h-5.7665l-.8266 4.7279h5.0406l-.2722 1.586zm14.2959-7.91l1.6331 11.9812 5.7867-11.9811h2.359l-2.5505 14.7087h-1.8046l1.0081-5.8189 1.119-5.4652-5.6354 11.284h-1.3811l-1.734-11.5164-.857 5.8795-.9677 5.637H75.752l2.5405-14.7087h2.2885zm16.3975 14.9108c-1.2232-.027-2.1792-.4647-2.868-1.3133-.689-.8486-1.0435-2.0103-1.0637-3.4852a10.6441 10.6441 0 0 1 .0807-1.4648l.4234-2.7478c.336-1.953.9964-3.4667 1.981-4.541.9846-1.0741 2.2263-1.5944 3.725-1.5607 1.1493.027 2.06.4075 2.732 1.1416.6721.734 1.062 1.778 1.1695 3.1316l.0302.5455c0 .4984-.0302.99-.0907 1.475l-.4335 2.7982c-.3428 1.9598-1.0014 3.4617-1.976 4.5056-.9745 1.0439-2.2111 1.549-3.7099 1.5153zm4.325-8.8596l.0907-.9799c.0672-1.1786-.0908-2.0692-.4739-2.672-.383-.6028-.9745-.9176-1.7743-.9445-1.0014-.0337-1.8247.325-2.4699 1.0758-.6452.751-1.0921 1.8672-1.3408 3.3489l-.4335 2.9195-.0706.8183c-.0672 1.1516.0924 2.0423.4789 2.672.3864.6297.9795.958 1.7793.985 1.9693.0606 3.216-1.3167 3.7402-4.1318l.4738-3.0913zm8.9273 5.7986l5.1112-11.8497h2.0364l-6.7343 14.7087h-1.5727l-2.1272-14.7087h1.9054l1.3812 11.8497zm9.9858 2.859h-1.8045l2.5505-14.7087h1.8046l-2.5506 14.7087zm12.6272-6.7988h-5.0306l-.9073 5.2127h5.8673l-.2823 1.586h-7.6618l2.5405-14.7086h7.5812l-.2823 1.596h-5.7665l-.8267 4.7279h5.0407l-.2722 1.586zm16.8062 2.96h-4.7987l-1.7743 3.8388h-1.9155l7.1275-14.7087h1.5525l2.0465 14.7087h-1.7844l-.4536-3.8389zm-4.0527-1.5962h3.8611l-.7762-6.6674-3.0849 6.6674zm20.7325-9.2737l-1.7642 10.3546c-.1949 1.4413-.7426 2.571-1.6432 3.3893-.9006.8183-2.0331 1.214-3.3974 1.187-1.2972-.027-2.28-.4462-2.9488-1.2577-.6688-.8116-.9258-1.9144-.7712-3.3085l1.7541-10.3647h1.7945l-1.7542 10.3748c-.047.4041-.0504.7813-.01 1.1315.1142 1.1786.793 1.788 2.0364 1.8285.8535.0336 1.5458-.1903 2.0767-.6718.531-.4816.877-1.2039 1.0384-2.167l1.7743-10.496h1.8146zm10.8831 12.87c-.2822.384-.6082.7106-.9778.98-.9947.7273-2.1877 1.0809-3.579 1.0607-1.2567-.0135-2.2447-.4411-2.9638-1.283-.7191-.8418-1.0989-1.98-1.1392-3.4145a9.8557 9.8557 0 0 1 .0706-1.475l.4536-2.8992c.3092-1.9396.9241-3.428 1.8449-4.4652.9678-1.0843 2.2481-1.6096 3.841-1.5759 1.2635.0404 2.2296.458 2.8984 1.2527.6687.7947.9896 1.8857.9627 3.273l-1.7945-.01c0-.9968-.1865-1.7275-.5595-2.1922-.373-.4647-.9056-.7071-1.5979-.7274-1.0014-.0471-1.8213.2863-2.4598 1.0002-.6385.7138-1.082 1.852-1.3307 3.4145l-.4638 3.0811-.0604.8284v.697c.1075 1.9127.8972 2.8825 2.369 2.9095.531.0134 1.0048-.0657 1.4215-.2374.4167-.1718.83-.416 1.24-.7324l.615-3.3944h-2.611l.2822-1.5759h4.3854l-.8469 5.4855zm15.1576-12.87l-1.7642 10.3546c-.195 1.4413-.7427 2.571-1.6433 3.3893-.9006.8183-2.033 1.214-3.3974 1.187-1.2971-.027-2.28-.4462-2.9487-1.2577-.6688-.8116-.9258-1.9144-.7713-3.3085l1.7542-10.3647h1.7945L183.64 66.9288c-.047.4041-.0504.7813-.01 1.1315.1142 1.1786.793 1.788 2.0363 1.8285.8536.0336 1.5458-.1903 2.0768-.6718.531-.4816.877-1.2039 1.0384-2.167l1.7743-10.496h1.8146zm6.9312 8.7585h-2.5304l-1.0383 5.9502h-1.8046l2.5405-14.7087 3.8813.01c1.2635.0405 2.2112.448 2.843 1.2224.6317.7745.8837 1.8117.756 3.1115-.0873.9361-.3797 1.7443-.877 2.4245-.4974.6802-1.1728 1.2122-2.0264 1.5961l1.7037 6.2128-.01.1314h-1.9356l-1.5022-5.9502zm-2.2582-1.586l2.0869.0202c.6384-.0135 1.2013-.1852 1.6886-.5152.4872-.33.8485-.7964 1.0837-1.3992.2352-.6027.3159-1.2577.242-1.9648-.0538-.5119-.237-.9177-.5495-1.2174-.3125-.2997-.7443-.463-1.2954-.49l-2.2885-.01-.9678 5.5764z" fill-opacity=".2369" fill="#000"/></g></svg>