<svg xmlns="http://www.w3.org/2000/svg" width="160" height="47"><g fill="#1895FF" fill-rule="evenodd"><path d="M60.9 15.059h-4.76v-2.566h11.584v2.566h-4.782v20.804H60.9V15.059zm10.793 18.898c1.95 0 3.412-2.74 3.412-6.554 0-2.845-.951-6.415-3.365-6.415-2.39 0-3.436 3.328-3.436 6.518 0 3.677 1.393 6.45 3.366 6.45h.023zm-.093 2.288c-3.017 0-5.384-3.33-5.384-8.635 0-5.618 2.483-8.91 5.57-8.91 3.227 0 5.409 3.5 5.409 8.599 0 6.24-2.902 8.946-5.571 8.946H71.6zm8.078-17.163h2.507l2.02 8.458c.302 1.25.766 3.295 1.022 4.613h.046c.255-1.249.882-3.92 1.345-5.757l1.789-7.314h2.53l.788 16.78h-1.948l-.256-8.009c-.047-1.802-.139-3.953-.187-5.998h-.068c-.303 1.525-.629 2.843-1.254 5.444l-2.16 8.46H84.39l-1.997-8.321c-.37-1.562-.858-3.988-1.136-5.547h-.093c-.046 1.975-.093 4.195-.163 6.032l-.302 7.94h-1.88l.86-16.781zm22.468 16.156c-.532.381-1.717.97-3.225.97-3.389 0-5.594-3.431-5.594-8.563 0-5.167 2.368-8.946 6.035-8.946 1.207 0 2.274.452 2.831.902l-.464 2.324c-.488-.383-1.254-.799-2.367-.799-2.577 0-3.97 2.879-3.97 6.346 0 3.884 1.672 6.275 3.899 6.275 1.16 0 1.928-.416 2.507-.797l.348 2.288zm4.203-16.156v7.28h.465l4.223-7.28h2.484l-4.898 7.557c1.834.313 2.925 2.116 3.806 5.132.304 1.108.675 2.738 1.186 4.092h-2.136c-.301-.728-.674-2.047-1.043-3.434-.769-2.703-1.813-3.953-3.693-3.953h-.394v7.387h-2.043V19.082h2.043zm16.713 16.156c-.536.381-1.718.97-3.228.97-3.389 0-5.594-3.431-5.594-8.563 0-5.167 2.367-8.946 6.036-8.946 1.206 0 2.276.452 2.831.902l-.464 2.324c-.486-.383-1.254-.799-2.367-.799-2.577 0-3.97 2.879-3.97 6.346 0 3.884 1.671 6.275 3.9 6.275 1.161 0 1.926-.416 2.508-.797l.348 2.288zm6.684-1.281c1.95 0 3.412-2.74 3.412-6.554 0-2.845-.952-6.415-3.364-6.415-2.393 0-3.438 3.328-3.438 6.518 0 3.677 1.395 6.45 3.368 6.45h.022zm-.093 2.288c-3.017 0-5.384-3.33-5.384-8.635 0-5.618 2.482-8.91 5.57-8.91 3.227 0 5.409 3.5 5.409 8.599 0 6.24-2.902 8.946-5.571 8.946h-.024zm14.626-2.151c2.25-.45 3.62-3.224 3.62-6.656 0-3.468-1.37-6.139-3.62-6.589v13.245zm-1.857-13.245c-2.253.45-3.622 3.224-3.622 6.657 0 3.468 1.392 6.172 3.622 6.588V20.849zm1.88-9.569l-.023 7.453c3.272.349 5.64 3.468 5.64 8.67 0 5.512-2.484 8.426-5.64 8.771l.022 6.554h-1.904l.025-6.52c-3.25-.312-5.642-3.395-5.642-8.598 0-5.547 2.484-8.46 5.642-8.841l-.025-7.489h1.904zm15.413 7.802v2.391h-3.504v14.39h-2.044v-14.39h-3.506v-2.391h9.054z"/><path fill-rule="nonzero" d="M9.357 0h28.07a9.357 9.357 0 0 1 9.357 9.357v28.286A9.357 9.357 0 0 1 37.427 47H9.357A9.357 9.357 0 0 1 0 37.643V9.357A9.357 9.357 0 0 1 9.357 0zm24.406 20.083c-.01-.003-.015-.008-.022-.01-2.162-1.202-4.144-2.66-4.007-5.168.074-1.398.77-2.645 1.949-3.512 1.06-.776 2.43-1.189 3.962-1.189 2.392 0 3.568.47 3.779.562.057.027.113.03.162.01a.214.214 0 0 0 .109-.125l.539-1.318c-1.015-.337-2.448-.615-4.183-.615-3.5 0-6.462 1.246-8.124 3.419-.419.55-1.124.801-1.769.632a.1296.1296 0 0 0-.05-.008h-2.847c-.997 0-1.894-.419-2.461-1.156-.449-.572-.663-1.304-.622-2.069.011-.209.046-.423.092-.635l.778-3.261c-.892.249-3.08.864-3.08.864-.452.128-1.051.743-1.164 1.198l-.458 1.817c-.456 1.82-2.255 3.242-4.097 3.242h-.127c-.292 0-.673.304-.744.595 0 0-.412 1.701-.417 1.733h.111c.997 0 1.892.422 2.458 1.161.565.736.748 1.724.507 2.712L11.18 30.544c-.532 2.133-.793 3.716-.879 5.29-.162 3 1.646 4.586 5.24 4.586 1.513 0 2.468-.19 2.471-.19.37-.076.845-.566.91-.94 0 0 .148-.857.297-1.707-.203.005-.411.01-.618.01-2.685 0-4.2-1.635-4.051-4.374.075-1.382.355-2.558.369-2.61l.938-3.856 2.068-8.413c.45-1.824 2.248-3.251 4.091-3.251h2.852l.034-.002c.844-.05 1.605.555 1.685 1.392.208 2.294 2.311 3.877 4.04 4.803 2.198 1.19 4.212 2.681 4.055 5.559-.154 2.85-2.667 4.921-5.976 4.921-1.82 0-3.789-.506-5.376-1.153-.198.482-.425 1.021-.425 1.021a.375.375 0 0 0-.028.132c-.011.182.09.377.242.449.02.01 2.227.99 4.932 1.039 3.253.026 6.036-.9 7.83-2.596 1.344-1.271 2.085-2.923 2.191-4.907.12-2.193-1.293-4.042-4.31-5.664z"/></g></svg>