<?xml version="1.0" encoding="UTF-8"?>
<svg width="216px" height="60px" viewBox="0 0 216 60" version="1.1" xmlns="http://www.w3.org/2000/svg" xmlns:xlink="http://www.w3.org/1999/xlink">
    <!-- Generator: Sketch 57.1 (83088) - https://sketch.com -->
    <title>logo</title>
    <desc>Created with Sketch.</desc>
    <g id="Page-1" stroke="none" stroke-width="1" fill="none" fill-rule="evenodd">
        <g id="Tomsksoft---Projects" transform="translate(-366.000000, -1315.000000)">
            <g id="logo" transform="translate(366.000000, 1315.000000)">
                <path d="M30,0 C46.5685425,0 60,13.4314575 60,30 C60,36.1762162 58.1336224,41.9165166 54.934097,46.6876713 L48.3912348,40.1452064 C50.0537147,37.1378816 51,33.6794492 51,30 C51,18.4020203 41.5979797,9 30,9 C18.4020203,9 9,18.4020203 9,30 C9,41.5979797 18.4020203,51 30,51 C34.2119091,51 38.1342055,49.7600206 41.4217551,47.6251959 L47.8852282,54.0879792 C42.8910737,57.8021947 36.7021993,60 30,60 C13.4314575,60 0,46.5685425 0,30 C0,13.4314575 13.4314575,0 30,0 Z M30.3900929,18.3900929 C37.0175099,18.3900929 42.3900929,23.7626759 42.3900929,30.3900929 C42.3900929,37.0175099 37.0175099,42.3900929 30.3900929,42.3900929 C23.7626759,42.3900929 18.3900929,37.0175099 18.3900929,30.3900929 C18.3900929,23.7626759 23.7626759,18.3900929 30.3900929,18.3900929 Z" id="Combined-Shape" fill="#FF9900"></path>
                <path d="M93.3367183,36.6167183 C94.8351778,35.0882896 95.5843963,33.0504152 95.5843963,30.5030341 C95.5843963,27.9556529 94.84267,25.9327629 93.359195,24.4343034 C91.8757201,22.9358439 90.1150566,22.1866254 88.0771517,22.1866254 C86.0392468,22.1866254 84.2785833,22.9208595 82.7951084,24.3893498 C81.3116334,25.8578402 80.5699071,27.8657458 80.5699071,30.4131269 C80.5699071,32.9605081 81.3116334,35.0058746 82.7951084,36.5492879 C84.2785833,38.0927012 86.0392468,38.8643963 88.0771517,38.8643963 C90.1150566,38.8643963 91.868228,38.1151778 93.3367183,36.6167183 Z M86.9982663,43.3147988 C83.7016553,43.3147988 80.9295468,42.108557 78.6818576,39.6960372 C76.4341683,37.2835173 75.3103406,34.1967371 75.3103406,30.4356037 C75.3103406,26.6744704 76.4266761,23.6176588 78.6593808,21.2650774 C80.8920855,18.912496 83.6716862,17.7362229 86.9982663,17.7362229 C88.9462636,17.7362229 90.661974,18.1782618 92.1454489,19.0623529 C93.6289238,19.946444 94.7752282,21.1077327 95.5843963,22.5462539 L95.5843963,18.140805 L100.754056,18.140805 L100.754056,54.6880495 L95.5843963,54.6880495 L95.5843963,38.28 C94.745259,39.8084287 93.5914625,41.0296549 92.1229721,41.9437152 C90.6544818,42.8577755 88.9462636,43.3147988 86.9982663,43.3147988 Z M124.804211,18.140805 L129.928916,18.140805 L129.928916,42.9102167 L124.804211,42.9102167 L124.804211,38.999257 C123.185874,41.84633 120.548625,43.2698452 116.892384,43.2698452 C114.105249,43.2698452 111.805148,42.3483064 109.992012,40.5052012 C108.178876,38.662096 107.272322,36.0772922 107.272322,32.7507121 L107.272322,18.140805 L112.352074,18.140805 L112.352074,31.9865015 C112.352074,34.2042216 112.906496,35.9049476 114.015356,37.0887307 C115.124216,38.2725137 116.637637,38.8643963 118.555666,38.8643963 C120.473694,38.8643963 121.994607,38.2725137 123.118452,37.0887307 C124.242297,35.9049476 124.804211,34.2042216 124.804211,31.9865015 L124.804211,18.140805 Z M142.515913,11.5775851 C142.515913,12.50663 142.201242,13.2858173 141.571889,13.9151703 C140.942536,14.5445233 140.17084,14.859195 139.25678,14.859195 C138.34272,14.859195 137.571025,14.5445233 136.941672,13.9151703 C136.312319,13.2858173 135.997647,12.50663 135.997647,11.5775851 C135.997647,10.6485402 136.312319,9.86935299 136.941672,9.24 C137.571025,8.61064701 138.34272,8.29597523 139.25678,8.29597523 C140.17084,8.29597523 140.942536,8.61064701 141.571889,9.24 C142.201242,9.86935299 142.515913,10.6485402 142.515913,11.5775851 Z M136.67195,42.9102167 L136.67195,18.140805 L141.796656,18.140805 L141.796656,42.9102167 L136.67195,42.9102167 Z M164.857833,36.6167183 C166.356292,35.0882896 167.105511,33.0504152 167.105511,30.5030341 C167.105511,27.9556529 166.363785,25.9327629 164.88031,24.4343034 C163.396835,22.9358439 161.636171,22.1866254 159.598266,22.1866254 C157.560361,22.1866254 155.799698,22.9208595 154.316223,24.3893498 C152.832748,25.8578402 152.091022,27.8657458 152.091022,30.4131269 C152.091022,32.9605081 152.832748,35.0058746 154.316223,36.5492879 C155.799698,38.0927012 157.560361,38.8643963 159.598266,38.8643963 C161.636171,38.8643963 163.389343,38.1151778 164.857833,36.6167183 Z M158.519381,43.3147988 C155.22277,43.3147988 152.450661,42.108557 150.202972,39.6960372 C147.955283,37.2835173 146.831455,34.1967371 146.831455,30.4356037 C146.831455,26.6744704 147.947791,23.6176588 150.180495,21.2650774 C152.4132,18.912496 155.192801,17.7362229 158.519381,17.7362229 C160.467378,17.7362229 162.183089,18.1782618 163.666563,19.0623529 C165.150038,19.946444 166.296343,21.1077327 167.105511,22.5462539 L167.105511,9.64458204 L172.27517,9.64458204 L172.27517,42.9102167 L167.105511,42.9102167 L167.105511,38.28 C166.266374,39.8084287 165.112577,41.0296549 163.644087,41.9437152 C162.175596,42.8577755 160.467378,43.3147988 158.519381,43.3147988 Z M195.336347,36.6167183 C196.834806,35.0882896 197.584025,33.0504152 197.584025,30.5030341 C197.584025,27.9556529 196.842298,25.9327629 195.358824,24.4343034 C193.875349,22.9358439 192.114685,22.1866254 190.07678,22.1866254 C188.038875,22.1866254 186.278212,22.9208595 184.794737,24.3893498 C183.311262,25.8578402 182.569536,27.8657458 182.569536,30.4131269 C182.569536,32.9605081 183.311262,35.0058746 184.794737,36.5492879 C186.278212,38.0927012 188.038875,38.8643963 190.07678,38.8643963 C192.114685,38.8643963 193.867856,38.1151778 195.336347,36.6167183 Z M188.997895,43.3147988 C185.701284,43.3147988 182.929175,42.108557 180.681486,39.6960372 C178.433797,37.2835173 177.309969,34.1967371 177.309969,30.4356037 C177.309969,26.6744704 178.426305,23.6176588 180.659009,21.2650774 C182.891714,18.912496 185.671315,17.7362229 188.997895,17.7362229 C190.945892,17.7362229 192.661602,18.1782618 194.145077,19.0623529 C195.628552,19.946444 196.774857,21.1077327 197.584025,22.5462539 L197.584025,9.64458204 L202.753684,9.64458204 L202.753684,42.9102167 L197.584025,42.9102167 L197.584025,38.28 C196.744887,39.8084287 195.591091,41.0296549 194.122601,41.9437152 C192.65411,42.8577755 190.945892,43.3147988 188.997895,43.3147988 Z M215.340681,11.5775851 C215.340681,12.50663 215.026009,13.2858173 214.396656,13.9151703 C213.767303,14.5445233 212.995608,14.859195 212.081548,14.859195 C211.167488,14.859195 210.395793,14.5445233 209.76644,13.9151703 C209.137087,13.2858173 208.822415,12.50663 208.822415,11.5775851 C208.822415,10.6485402 209.137087,9.86935299 209.76644,9.24 C210.395793,8.61064701 211.167488,8.29597523 212.081548,8.29597523 C212.995608,8.29597523 213.767303,8.61064701 214.396656,9.24 C215.026009,9.86935299 215.340681,10.6485402 215.340681,11.5775851 Z M209.496718,42.9102167 L209.496718,18.140805 L214.621424,18.140805 L214.621424,42.9102167 L209.496718,42.9102167 Z" id="quiddi" fill="#8057ED"></path>
            </g>
        </g>
    </g>
</svg>