<svg width="250" height="20" xmlns="http://www.w3.org/2000/svg"><path d="M7.78 14.38c-.28.24-.6267.4233-1.04.55a4.344 4.344 0 0 1-1.28.19c-1.0667 0-1.8933-.2867-2.48-.86-.5867-.5733-.88-1.3933-.88-2.46V5.98H.3V4.4h1.8V2.08h1.92V4.4h3.04v1.58H4.02v5.74c0 .5733.1433 1.0133.43 1.32.2867.3067.6967.46 1.23.46.5867 0 1.0867-.1667 1.5-.5l.6 1.38zm6.5.74c-1.0533 0-2-.2333-2.84-.7-.84-.4667-1.4967-1.11-1.97-1.93-.4733-.82-.71-1.75-.71-2.79s.2367-1.97.71-2.79c.4733-.82 1.13-1.46 1.97-1.92.84-.46 1.7867-.69 2.84-.69s1.9967.23 2.83.69c.8333.46 1.4867 1.1 1.96 1.92.4733.82.71 1.75.71 2.79s-.2367 1.97-.71 2.79c-.4733.82-1.1267 1.4633-1.96 1.93-.8333.4667-1.7767.7-2.83.7zm0-1.68c.68 0 1.29-.1567 1.83-.47.54-.3133.9633-.7533 1.27-1.32.3067-.5667.46-1.2167.46-1.95 0-.7333-.1533-1.3833-.46-1.95-.3067-.5667-.73-1.0033-1.27-1.31s-1.15-.46-1.83-.46c-.68 0-1.29.1533-1.83.46-.54.3067-.9667.7433-1.28 1.31-.3133.5667-.47 1.2167-.47 1.95 0 .7333.1567 1.3833.47 1.95.3133.5667.74 1.0067 1.28 1.32.54.3133 1.15.47 1.83.47zM35.7 4.3c1.3333 0 2.39.3867 3.17 1.16.78.7733 1.17 1.92 1.17 3.44V15h-1.92V9.12c0-1.0267-.2367-1.8-.71-2.32-.4733-.52-1.15-.78-2.03-.78-.9733 0-1.7467.3033-2.32.91-.5733.6067-.86 1.4767-.86 2.61V15h-1.92V9.12c0-1.0267-.2367-1.8-.71-2.32-.4733-.52-1.15-.78-2.03-.78-.9733 0-1.7467.3033-2.32.91-.5733.6067-.86 1.4767-.86 2.61V15h-1.92V4.4h1.84v1.58c.3867-.5467.8933-.9633 1.52-1.25.6267-.2867 1.34-.43 2.14-.43.8267 0 1.56.1667 2.2.5.64.3333 1.1333.82 1.48 1.46.4-.6133.9567-1.0933 1.67-1.44.7133-.3467 1.5167-.52 2.41-.52zm10.92 10.82c-.8667 0-1.7-.1167-2.5-.35-.8-.2333-1.4267-.53-1.88-.89l.8-1.52c.4667.3333 1.0333.6 1.7.8.6667.2 1.34.3 2.02.3 1.68 0 2.52-.48 2.52-1.44 0-.32-.1133-.5733-.34-.76-.2267-.1867-.51-.3233-.85-.41-.34-.0867-.8233-.1833-1.45-.29-.8533-.1333-1.55-.2867-2.09-.46-.54-.1733-1.0033-.4667-1.39-.88-.3867-.4133-.58-.9933-.58-1.74 0-.96.4-1.73 1.2-2.31.8-.58 1.8733-.87 3.22-.87.7067 0 1.4133.0867 2.12.26.7067.1733 1.2867.4067 1.74.7l-.82 1.52c-.8667-.56-1.8867-.84-3.06-.84-.8133 0-1.4333.1333-1.86.4-.4267.2667-.64.62-.64 1.06 0 .3467.12.62.36.82.24.2.5367.3467.89.44.3533.0933.85.2 1.49.32.8533.1467 1.5433.3033 2.07.47.5267.1667.9767.45 1.35.85.3733.4.56.96.56 1.68 0 .96-.41 1.7233-1.23 2.29-.82.5667-1.9367.85-3.35.85zm11.1-5.06l-2.2 2.04V15H53.6V.16h1.92v9.52L61.3 4.4h2.32l-4.46 4.38 4.9 6.22H61.7l-3.98-4.94zm10.9 5.06c-.8667 0-1.7-.1167-2.5-.35-.8-.2333-1.4267-.53-1.88-.89l.8-1.52c.4667.3333 1.0333.6 1.7.8.6667.2 1.34.3 2.02.3 1.68 0 2.52-.48 2.52-1.44 0-.32-.1133-.5733-.34-.76-.2267-.1867-.51-.3233-.85-.41-.34-.0867-.8233-.1833-1.45-.29-.8533-.1333-1.55-.2867-2.09-.46-.54-.1733-1.0033-.4667-1.39-.88-.3867-.4133-.58-.9933-.58-1.74 0-.96.4-1.73 1.2-2.31.8-.58 1.8733-.87 3.22-.87.7067 0 1.4133.0867 2.12.26.7067.1733 1.2867.4067 1.74.7l-.82 1.52c-.8667-.56-1.8867-.84-3.06-.84-.8133 0-1.4333.1333-1.86.4-.4267.2667-.64.62-.64 1.06 0 .3467.12.62.36.82.24.2.5367.3467.89.44.3533.0933.85.2 1.49.32.8533.1467 1.5433.3033 2.07.47.5267.1667.9767.45 1.35.85.3733.4.56.96.56 1.68 0 .96-.41 1.7233-1.23 2.29-.82.5667-1.9367.85-3.35.85zm11.52 0c-1.0533 0-2-.2333-2.84-.7-.84-.4667-1.4967-1.11-1.97-1.93-.4733-.82-.71-1.75-.71-2.79s.2367-1.97.71-2.79c.4733-.82 1.13-1.46 1.97-1.92.84-.46 1.7867-.69 2.84-.69s1.9967.23 2.83.69c.8333.46 1.4867 1.1 1.96 1.92.4733.82.71 1.75.71 2.79s-.2367 1.97-.71 2.79c-.4733.82-1.1267 1.4633-1.96 1.93-.8333.4667-1.7767.7-2.83.7zm0-1.68c.68 0 1.29-.1567 1.83-.47.54-.3133.9633-.7533 1.27-1.32.3067-.5667.46-1.2167.46-1.95 0-.7333-.1533-1.3833-.46-1.95-.3067-.5667-.73-1.0033-1.27-1.31s-1.15-.46-1.83-.46c-.68 0-1.29.1533-1.83.46-.54.3067-.9667.7433-1.28 1.31-.3133.5667-.47 1.2167-.47 1.95 0 .7333.1567 1.3833.47 1.95.3133.5667.74 1.0067 1.28 1.32.54.3133 1.15.47 1.83.47zM92.18 1.62c-1.1467 0-1.72.62-1.72 1.86v.92h3.08v1.58H90.5V15h-1.92V5.98h-1.8V4.4h1.8v-.94c0-1.0533.3067-1.8867.92-2.5.6133-.6133 1.4733-.92 2.58-.92.4267 0 .8267.0533 1.2.16.3733.1067.6933.26.96.46l-.58 1.46c-.44-.3333-.9333-.5-1.48-.5zm9.14 12.76c-.28.24-.6267.4233-1.04.55a4.344 4.344 0 0 1-1.28.19c-1.0667 0-1.8933-.2867-2.48-.86-.5867-.5733-.88-1.3933-.88-2.46V5.98h-1.8V4.4h1.8V2.08h1.92V4.4h3.04v1.58h-3.04v5.74c0 .5733.1433 1.0133.43 1.32.2867.3067.6967.46 1.23.46.5867 0 1.0867-.1667 1.5-.5l.6 1.38zM112.22.86c1.8 0 3.4067.37 4.82 1.11 1.4133.74 2.5167 1.7767 3.31 3.11.7933 1.3333 1.19 2.8533 1.19 4.56 0 1.7067-.3133 3.0467-.94 4.02-.6267.9733-1.5 1.46-2.62 1.46-.64 0-1.17-.1633-1.59-.49-.42-.3267-.69-.7967-.81-1.41-.4.6133-.9233 1.0833-1.57 1.41s-1.39.49-2.23.49c-.9333 0-1.7733-.22-2.52-.66-.7467-.44-1.33-1.05-1.75-1.83-.42-.78-.63-1.6633-.63-2.65 0-.9733.21-1.85.63-2.63.42-.78 1.0033-1.3867 1.75-1.82.7467-.4333 1.5867-.65 2.52-.65.7733 0 1.4733.1433 2.1.43.6267.2867 1.1467.71 1.56 1.27V4.96h1.74v7.2c0 .4933.1067.8567.32 1.09.2133.2333.4867.35.82.35.5867 0 1.0433-.3433 1.37-1.03.3267-.6867.49-1.6567.49-2.91 0-1.48-.3333-2.7833-1-3.91-.6667-1.1267-1.6033-2.0033-2.81-2.63s-2.59-.94-4.15-.94c-1.5733 0-2.9633.3267-4.17.98s-2.1433 1.5667-2.81 2.74c-.6667 1.1733-1 2.5133-1 4.02 0 1.52.33 2.8667.99 4.04.66 1.1733 1.5867 2.09 2.78 2.75 1.1933.66 2.57.99 4.13.99.6533 0 1.32-.0733 2-.22.68-.1467 1.3-.3667 1.86-.66l.44 1.28c-.5867.3067-1.2667.54-2.04.7-.7733.16-1.5267.24-2.26.24-1.8267 0-3.45-.39-4.87-1.17-1.42-.78-2.5233-1.8633-3.31-3.25-.7867-1.3867-1.18-2.9533-1.18-4.7 0-1.7467.3967-3.3067 1.19-4.68.7933-1.3733 1.9067-2.4467 3.34-3.22 1.4333-.7733 3.07-1.16 4.91-1.16zm-.16 12.7c.6533 0 1.2367-.1467 1.75-.44.5133-.2933.92-.71 1.22-1.25.3-.54.45-1.17.45-1.89s-.15-1.35-.45-1.89c-.3-.54-.7067-.9533-1.22-1.24-.5133-.2867-1.0967-.43-1.75-.43-1.0133 0-1.8333.3233-2.46.97s-.94 1.51-.94 2.59c0 1.08.3167 1.9467.95 2.6s1.45.98 2.45.98zm18.32.82c-.28.24-.6267.4233-1.04.55a4.344 4.344 0 0 1-1.28.19c-1.0667 0-1.8933-.2867-2.48-.86-.5867-.5733-.88-1.3933-.88-2.46V5.98h-1.8V4.4h1.8V2.08h1.92V4.4h3.04v1.58h-3.04v5.74c0 .5733.1433 1.0133.43 1.32.2867.3067.6967.46 1.23.46.5867 0 1.0867-.1667 1.5-.5l.6 1.38zm6.5.74c-1.0533 0-2-.2333-2.84-.7-.84-.4667-1.4967-1.11-1.97-1.93-.4733-.82-.71-1.75-.71-2.79s.2367-1.97.71-2.79c.4733-.82 1.13-1.46 1.97-1.92.84-.46 1.7867-.69 2.84-.69s1.9967.23 2.83.69c.8333.46 1.4867 1.1 1.96 1.92.4733.82.71 1.75.71 2.79s-.2367 1.97-.71 2.79c-.4733.82-1.1267 1.4633-1.96 1.93-.8333.4667-1.7767.7-2.83.7zm0-1.68c.68 0 1.29-.1567 1.83-.47.54-.3133.9633-.7533 1.27-1.32.3067-.5667.46-1.2167.46-1.95 0-.7333-.1533-1.3833-.46-1.95-.3067-.5667-.73-1.0033-1.27-1.31s-1.15-.46-1.83-.46c-.68 0-1.29.1533-1.83.46-.54.3067-.9667.7433-1.28 1.31-.3133.5667-.47 1.2167-.47 1.95 0 .7333.1567 1.3833.47 1.95.3133.5667.74 1.0067 1.28 1.32.54.3133 1.15.47 1.83.47zM158.3 4.3c1.3333 0 2.39.3867 3.17 1.16.78.7733 1.17 1.92 1.17 3.44V15h-1.92V9.12c0-1.0267-.2367-1.8-.71-2.32-.4733-.52-1.15-.78-2.03-.78-.9733 0-1.7467.3033-2.32.91-.5733.6067-.86 1.4767-.86 2.61V15h-1.92V9.12c0-1.0267-.2367-1.8-.71-2.32-.4733-.52-1.15-.78-2.03-.78-.9733 0-1.7467.3033-2.32.91-.5733.6067-.86 1.4767-.86 2.61V15h-1.92V4.4h1.84v1.58c.3867-.5467.8933-.9633 1.52-1.25.6267-.2867 1.34-.43 2.14-.43.8267 0 1.56.1667 2.2.5.64.3333 1.1333.82 1.48 1.46.4-.6133.9567-1.0933 1.67-1.44.7133-.3467 1.5167-.52 2.41-.52zm10.92 10.82c-.8667 0-1.7-.1167-2.5-.35-.8-.2333-1.4267-.53-1.88-.89l.8-1.52c.4667.3333 1.0333.6 1.7.8.6667.2 1.34.3 2.02.3 1.68 0 2.52-.48 2.52-1.44 0-.32-.1133-.5733-.34-.76-.2267-.1867-.51-.3233-.85-.41-.34-.0867-.8233-.1833-1.45-.29-.8533-.1333-1.55-.2867-2.09-.46-.54-.1733-1.0033-.4667-1.39-.88-.3867-.4133-.58-.9933-.58-1.74 0-.96.4-1.73 1.2-2.31.8-.58 1.8733-.87 3.22-.87.7067 0 1.4133.0867 2.12.26.7067.1733 1.2867.4067 1.74.7l-.82 1.52c-.8667-.56-1.8867-.84-3.06-.84-.8133 0-1.4333.1333-1.86.4-.4267.2667-.64.62-.64 1.06 0 .3467.12.62.36.82.24.2.5367.3467.89.44.3533.0933.85.2 1.49.32.8533.1467 1.5433.3033 2.07.47.5267.1667.9767.45 1.35.85.3733.4.56.96.56 1.68 0 .96-.41 1.7233-1.23 2.29-.82.5667-1.9367.85-3.35.85zm11.1-5.06l-2.2 2.04V15h-1.92V.16h1.92v9.52l5.78-5.28h2.32l-4.46 4.38 4.9 6.22h-2.36l-3.98-4.94zm10.9 5.06c-.8667 0-1.7-.1167-2.5-.35-.8-.2333-1.4267-.53-1.88-.89l.8-1.52c.4667.3333 1.0333.6 1.7.8.6667.2 1.34.3 2.02.3 1.68 0 2.52-.48 2.52-1.44 0-.32-.1133-.5733-.34-.76-.2267-.1867-.51-.3233-.85-.41-.34-.0867-.8233-.1833-1.45-.29-.8533-.1333-1.55-.2867-2.09-.46-.54-.1733-1.0033-.4667-1.39-.88-.3867-.4133-.58-.9933-.58-1.74 0-.96.4-1.73 1.2-2.31.8-.58 1.8733-.87 3.22-.87.7067 0 1.4133.0867 2.12.26.7067.1733 1.2867.4067 1.74.7l-.82 1.52c-.8667-.56-1.8867-.84-3.06-.84-.8133 0-1.4333.1333-1.86.4-.4267.2667-.64.62-.64 1.06 0 .3467.12.62.36.82.24.2.5367.3467.89.44.3533.0933.85.2 1.49.32.8533.1467 1.5433.3033 2.07.47.5267.1667.9767.45 1.35.85.3733.4.56.96.56 1.68 0 .96-.41 1.7233-1.23 2.29-.82.5667-1.9367.85-3.35.85zm11.52 0c-1.0533 0-2-.2333-2.84-.7-.84-.4667-1.4967-1.11-1.97-1.93-.4733-.82-.71-1.75-.71-2.79s.2367-1.97.71-2.79c.4733-.82 1.13-1.46 1.97-1.92.84-.46 1.7867-.69 2.84-.69s1.9967.23 2.83.69c.8333.46 1.4867 1.1 1.96 1.92.4733.82.71 1.75.71 2.79s-.2367 1.97-.71 2.79c-.4733.82-1.1267 1.4633-1.96 1.93-.8333.4667-1.7767.7-2.83.7zm0-1.68c.68 0 1.29-.1567 1.83-.47.54-.3133.9633-.7533 1.27-1.32.3067-.5667.46-1.2167.46-1.95 0-.7333-.1533-1.3833-.46-1.95-.3067-.5667-.73-1.0033-1.27-1.31s-1.15-.46-1.83-.46c-.68 0-1.29.1533-1.83.46-.54.3067-.9667.7433-1.28 1.31-.3133.5667-.47 1.2167-.47 1.95 0 .7333.1567 1.3833.47 1.95.3133.5667.74 1.0067 1.28 1.32.54.3133 1.15.47 1.83.47zm12.04-11.82c-1.1467 0-1.72.62-1.72 1.86v.92h3.08v1.58h-3.04V15h-1.92V5.98h-1.8V4.4h1.8v-.94c0-1.0533.3067-1.8867.92-2.5.6133-.6133 1.4733-.92 2.58-.92.4267 0 .8267.0533 1.2.16.3733.1067.6933.26.96.46l-.58 1.46c-.44-.3333-.9333-.5-1.48-.5zm9.14 12.76c-.28.24-.6267.4233-1.04.55a4.344 4.344 0 0 1-1.28.19c-1.0667 0-1.8933-.2867-2.48-.86-.5867-.5733-.88-1.3933-.88-2.46V5.98h-1.8V4.4h1.8V2.08h1.92V4.4h3.04v1.58h-3.04v5.74c0 .5733.1433 1.0133.43 1.32.2867.3067.6967.46 1.23.46.5867 0 1.0867-.1667 1.5-.5l.6 1.38zm2.98.74c-.3733 0-.6933-.13-.96-.39-.2667-.26-.4-.59-.4-.99 0-.3867.1333-.71.4-.97.2667-.26.5867-.39.96-.39.3733 0 .6867.1267.94.38.2533.2533.38.58.38.98s-.13.73-.39.99-.57.39-.93.39zm5.92-8.94c.3333-.6133.8267-1.08 1.48-1.4.6533-.32 1.4467-.48 2.38-.48v1.86c-.1067-.0133-.2533-.02-.44-.02-1.04 0-1.8567.31-2.45.93-.5933.62-.89 1.5033-.89 2.65V15h-1.92V4.4h1.84v1.78zm16.24-1.78V15h-1.82v-1.6c-.3867.5467-.8967.97-1.53 1.27-.6333.3-1.3233.45-2.07.45-1.4133 0-2.5267-.39-3.34-1.17-.8133-.78-1.22-1.93-1.22-3.45V4.4H241v5.88c0 1.0267.2467 1.8033.74 2.33.4933.5267 1.2.79 2.12.79 1.0133 0 1.8133-.3067 2.4-.92.5867-.6133.88-1.48.88-2.6V4.4h1.92z" fill="#0083F1" fill-rule="evenodd"/></svg>