<svg width="175" height="14" xmlns="http://www.w3.org/2000/svg"><path d="M5.446 10.566c-.196.168-.4387.2963-.728.385a3.0408 3.0408 0 0 1-.896.133c-.7467 0-1.3253-.2007-1.736-.602-.4107-.4013-.616-.9753-.616-1.722V4.686H.21V3.58h1.26V1.956h1.344V3.58h2.128v1.106H2.814v4.018c0 .4013.1003.7093.301.924s.4877.322.861.322c.4107 0 .7607-.1167 1.05-.35l.42.966zm4.55.518c-.7373 0-1.4-.1633-1.988-.49-.588-.3267-1.0477-.777-1.379-1.351-.3313-.574-.497-1.225-.497-1.953s.1657-1.379.497-1.953c.3313-.574.791-1.022 1.379-1.344.588-.322 1.2507-.483 1.988-.483.7373 0 1.3977.161 1.981.483.5833.322 1.0407.77 1.372 1.344.3313.574.497 1.225.497 1.953s-.1657 1.379-.497 1.953c-.3313.574-.7887 1.0243-1.372 1.351-.5833.3267-1.2437.49-1.981.49zm0-1.176c.476 0 .903-.1097 1.281-.329.378-.2193.6743-.5273.889-.924.2147-.3967.322-.8517.322-1.365s-.1073-.9683-.322-1.365c-.2147-.3967-.511-.7023-.889-.917s-.805-.322-1.281-.322c-.476 0-.903.1073-1.281.322-.378.2147-.6767.5203-.896.917-.2193.3967-.329.8517-.329 1.365s.1097.9683.329 1.365c.2193.3967.518.7047.896.924.378.2193.805.329 1.281.329zM24.99 3.51c.9333 0 1.673.2707 2.219.812.546.5413.819 1.344.819 2.408V11h-1.344V6.884c0-.7187-.1657-1.26-.497-1.624-.3313-.364-.805-.546-1.421-.546-.6813 0-1.2227.2123-1.624.637-.4013.4247-.602 1.0337-.602 1.827V11h-1.344V6.884c0-.7187-.1657-1.26-.497-1.624-.3313-.364-.805-.546-1.421-.546-.6813 0-1.2227.2123-1.624.637-.4013.4247-.602 1.0337-.602 1.827V11h-1.344V3.58h1.288v1.106c.2707-.3827.6253-.6743 1.064-.875.4387-.2007.938-.301 1.498-.301.5787 0 1.092.1167 1.54.35.448.2333.7933.574 1.036 1.022.28-.4293.6697-.7653 1.169-1.008.4993-.2427 1.0617-.364 1.687-.364zm7.644 7.574c-.6067 0-1.19-.0817-1.75-.245s-.9987-.371-1.316-.623l.56-1.064c.3267.2333.7233.42 1.19.56.4667.14.938.21 1.414.21 1.176 0 1.764-.336 1.764-1.008 0-.224-.0793-.4013-.238-.532-.1587-.1307-.357-.2263-.595-.287-.238-.0607-.5763-.1283-1.015-.203-.5973-.0933-1.085-.2007-1.463-.322-.378-.1213-.7023-.3267-.973-.616-.2707-.2893-.406-.6953-.406-1.218 0-.672.28-1.211.84-1.617.56-.406 1.3113-.609 2.254-.609.4947 0 .9893.0607 1.484.182.4947.1213.9007.2847 1.218.49l-.574 1.064c-.6067-.392-1.3207-.588-2.142-.588-.5693 0-1.0033.0933-1.302.28-.2987.1867-.448.434-.448.742 0 .2427.084.434.252.574.168.14.3757.2427.623.308.2473.0653.595.14 1.043.224.5973.1027 1.0803.2123 1.449.329.3687.1167.6837.315.945.595.2613.28.392.672.392 1.176 0 .672-.287 1.2063-.861 1.603-.574.3967-1.3557.595-2.345.595zm7.77-3.542l-1.54 1.428V11H37.52V.612h1.344v6.664L42.91 3.58h1.624l-3.122 3.066L44.842 11H43.19l-2.786-3.458zm7.63 3.542c-.6067 0-1.19-.0817-1.75-.245s-.9987-.371-1.316-.623l.56-1.064c.3267.2333.7233.42 1.19.56.4667.14.938.21 1.414.21 1.176 0 1.764-.336 1.764-1.008 0-.224-.0793-.4013-.238-.532-.1587-.1307-.357-.2263-.595-.287-.238-.0607-.5763-.1283-1.015-.203-.5973-.0933-1.085-.2007-1.463-.322-.378-.1213-.7023-.3267-.973-.616-.2707-.2893-.406-.6953-.406-1.218 0-.672.28-1.211.84-1.617.56-.406 1.3113-.609 2.254-.609.4947 0 .9893.0607 1.484.182.4947.1213.9007.2847 1.218.49l-.574 1.064c-.6067-.392-1.3207-.588-2.142-.588-.5693 0-1.0033.0933-1.302.28-.2987.1867-.448.434-.448.742 0 .2427.084.434.252.574.168.14.3757.2427.623.308.2473.0653.595.14 1.043.224.5973.1027 1.0803.2123 1.449.329.3687.1167.6837.315.945.595.2613.28.392.672.392 1.176 0 .672-.287 1.2063-.861 1.603-.574.3967-1.3557.595-2.345.595zm8.064 0c-.7373 0-1.4-.1633-1.988-.49-.588-.3267-1.0477-.777-1.379-1.351-.3313-.574-.497-1.225-.497-1.953s.1657-1.379.497-1.953c.3313-.574.791-1.022 1.379-1.344.588-.322 1.2507-.483 1.988-.483.7373 0 1.3977.161 1.981.483.5833.322 1.0407.77 1.372 1.344.3313.574.497 1.225.497 1.953s-.1657 1.379-.497 1.953c-.3313.574-.7887 1.0243-1.372 1.351-.5833.3267-1.2437.49-1.981.49zm0-1.176c.476 0 .903-.1097 1.281-.329.378-.2193.6743-.5273.889-.924.2147-.3967.322-.8517.322-1.365s-.1073-.9683-.322-1.365c-.2147-.3967-.511-.7023-.889-.917s-.805-.322-1.281-.322c-.476 0-.903.1073-1.281.322-.378.2147-.6767.5203-.896.917-.2193.3967-.329.8517-.329 1.365s.1097.9683.329 1.365c.2193.3967.518.7047.896.924.378.2193.805.329 1.281.329zm8.428-8.274c-.8027 0-1.204.434-1.204 1.302v.644h2.156v1.106H63.35V11h-1.344V4.686h-1.26V3.58h1.26v-.658c0-.7373.2147-1.3207.644-1.75s1.0313-.644 1.806-.644c.2987 0 .5787.0373.84.112s.4853.182.672.322l-.406 1.022c-.308-.2333-.6533-.35-1.036-.35zm6.398 8.932c-.196.168-.4387.2963-.728.385a3.0408 3.0408 0 0 1-.896.133c-.7467 0-1.3253-.2007-1.736-.602-.4107-.4013-.616-.9753-.616-1.722V4.686h-1.26V3.58h1.26V1.956h1.344V3.58h2.128v1.106h-2.128v4.018c0 .4013.1003.7093.301.924s.4877.322.861.322c.4107 0 .7607-.1167 1.05-.35l.42.966zm7.63-9.464c1.26 0 2.3847.259 3.374.777.9893.518 1.7617 1.2437 2.317 2.177.5553.9333.833 1.9973.833 3.192s-.2193 2.1327-.658 2.814c-.4387.6813-1.05 1.022-1.834 1.022-.448 0-.819-.1143-1.113-.343-.294-.2287-.483-.5577-.567-.987-.28.4293-.6463.7583-1.099.987-.4527.2287-.973.343-1.561.343-.6533 0-1.2413-.154-1.764-.462-.5227-.308-.931-.735-1.225-1.281-.294-.546-.441-1.1643-.441-1.855 0-.6813.147-1.295.441-1.841.294-.546.7023-.9707 1.225-1.274s1.1107-.455 1.764-.455c.5413 0 1.0313.1003 1.47.301.4387.2007.8027.497 1.092.889V3.972h1.218v5.04c0 .3453.0747.5997.224.763s.3407.245.574.245c.4107 0 .7303-.2403.959-.721.2287-.4807.343-1.1597.343-2.037 0-1.036-.2333-1.9483-.7-2.737-.4667-.7887-1.1223-1.4023-1.967-1.841-.8447-.4387-1.813-.658-2.905-.658-1.1013 0-2.0743.2287-2.919.686-.8447.4573-1.5003 1.0967-1.967 1.918-.4667.8213-.7 1.7593-.7 2.814 0 1.064.231 2.0067.693 2.828.462.8213 1.1107 1.463 1.946 1.925.8353.462 1.799.693 2.891.693.4573 0 .924-.0513 1.4-.154.476-.1027.91-.2567 1.302-.462l.308.896c-.4107.2147-.8867.378-1.428.49-.5413.112-1.0687.168-1.582.168-1.2787 0-2.415-.273-3.409-.819-.994-.546-1.7663-1.3043-2.317-2.275-.5507-.9707-.826-2.0673-.826-3.29 0-1.2227.2777-2.3147.833-3.276.5553-.9613 1.3347-1.7127 2.338-2.254 1.0033-.5413 2.149-.812 3.437-.812zm-.112 8.89c.4573 0 .8657-.1027 1.225-.308.3593-.2053.644-.497.854-.875.21-.378.315-.819.315-1.323s-.105-.945-.315-1.323c-.21-.378-.4947-.6673-.854-.868s-.7677-.301-1.225-.301c-.7093 0-1.2833.2263-1.722.679-.4387.4527-.658 1.057-.658 1.813s.2217 1.3627.665 1.82c.4433.4573 1.015.686 1.715.686zm12.824.574c-.196.168-.4387.2963-.728.385a3.0408 3.0408 0 0 1-.896.133c-.7467 0-1.3253-.2007-1.736-.602-.4107-.4013-.616-.9753-.616-1.722V4.686h-1.26V3.58h1.26V1.956h1.344V3.58h2.128v1.106h-2.128v4.018c0 .4013.1003.7093.301.924s.4877.322.861.322c.4107 0 .7607-.1167 1.05-.35l.42.966zm4.55.518c-.7373 0-1.4-.1633-1.988-.49-.588-.3267-1.0477-.777-1.379-1.351-.3313-.574-.497-1.225-.497-1.953s.1657-1.379.497-1.953c.3313-.574.791-1.022 1.379-1.344.588-.322 1.2507-.483 1.988-.483.7373 0 1.3977.161 1.981.483.5833.322 1.0407.77 1.372 1.344.3313.574.497 1.225.497 1.953s-.1657 1.379-.497 1.953c-.3313.574-.7887 1.0243-1.372 1.351-.5833.3267-1.2437.49-1.981.49zm0-1.176c.476 0 .903-.1097 1.281-.329.378-.2193.6743-.5273.889-.924.2147-.3967.322-.8517.322-1.365s-.1073-.9683-.322-1.365c-.2147-.3967-.511-.7023-.889-.917s-.805-.322-1.281-.322c-.476 0-.903.1073-1.281.322-.378.2147-.6767.5203-.896.917-.2193.3967-.329.8517-.329 1.365s.1097.9683.329 1.365c.2193.3967.518.7047.896.924.378.2193.805.329 1.281.329zM110.81 3.51c.9333 0 1.673.2707 2.219.812.546.5413.819 1.344.819 2.408V11h-1.344V6.884c0-.7187-.1657-1.26-.497-1.624-.3313-.364-.805-.546-1.421-.546-.6813 0-1.2227.2123-1.624.637-.4013.4247-.602 1.0337-.602 1.827V11h-1.344V6.884c0-.7187-.1657-1.26-.497-1.624-.3313-.364-.805-.546-1.421-.546-.6813 0-1.2227.2123-1.624.637-.4013.4247-.602 1.0337-.602 1.827V11h-1.344V3.58h1.288v1.106c.2707-.3827.6253-.6743 1.064-.875.4387-.2007.938-.301 1.498-.301.5787 0 1.092.1167 1.54.35.448.2333.7933.574 1.036 1.022.28-.4293.6697-.7653 1.169-1.008.4993-.2427 1.0617-.364 1.687-.364zm7.644 7.574c-.6067 0-1.19-.0817-1.75-.245s-.9987-.371-1.316-.623l.56-1.064c.3267.2333.7233.42 1.19.56.4667.14.938.21 1.414.21 1.176 0 1.764-.336 1.764-1.008 0-.224-.0793-.4013-.238-.532-.1587-.1307-.357-.2263-.595-.287-.238-.0607-.5763-.1283-1.015-.203-.5973-.0933-1.085-.2007-1.463-.322-.378-.1213-.7023-.3267-.973-.616-.2707-.2893-.406-.6953-.406-1.218 0-.672.28-1.211.84-1.617.56-.406 1.3113-.609 2.254-.609.4947 0 .9893.0607 1.484.182.4947.1213.9007.2847 1.218.49l-.574 1.064c-.6067-.392-1.3207-.588-2.142-.588-.5693 0-1.0033.0933-1.302.28-.2987.1867-.448.434-.448.742 0 .2427.084.434.252.574.168.14.3757.2427.623.308.2473.0653.595.14 1.043.224.5973.1027 1.0803.2123 1.449.329.3687.1167.6837.315.945.595.2613.28.392.672.392 1.176 0 .672-.287 1.2063-.861 1.603-.574.3967-1.3557.595-2.345.595zm7.77-3.542l-1.54 1.428V11h-1.344V.612h1.344v6.664l4.046-3.696h1.624l-3.122 3.066 3.43 4.354h-1.652l-2.786-3.458zm7.63 3.542c-.6067 0-1.19-.0817-1.75-.245s-.9987-.371-1.316-.623l.56-1.064c.3267.2333.7233.42 1.19.56.4667.14.938.21 1.414.21 1.176 0 1.764-.336 1.764-1.008 0-.224-.0793-.4013-.238-.532-.1587-.1307-.357-.2263-.595-.287-.238-.0607-.5763-.1283-1.015-.203-.5973-.0933-1.085-.2007-1.463-.322-.378-.1213-.7023-.3267-.973-.616-.2707-.2893-.406-.6953-.406-1.218 0-.672.28-1.211.84-1.617.56-.406 1.3113-.609 2.254-.609.4947 0 .9893.0607 1.484.182.4947.1213.9007.2847 1.218.49l-.574 1.064c-.6067-.392-1.3207-.588-2.142-.588-.5693 0-1.0033.0933-1.302.28-.2987.1867-.448.434-.448.742 0 .2427.084.434.252.574.168.14.3757.2427.623.308.2473.0653.595.14 1.043.224.5973.1027 1.0803.2123 1.449.329.3687.1167.6837.315.945.595.2613.28.392.672.392 1.176 0 .672-.287 1.2063-.861 1.603-.574.3967-1.3557.595-2.345.595zm8.064 0c-.7373 0-1.4-.1633-1.988-.49-.588-.3267-1.0477-.777-1.379-1.351-.3313-.574-.497-1.225-.497-1.953s.1657-1.379.497-1.953c.3313-.574.791-1.022 1.379-1.344.588-.322 1.2507-.483 1.988-.483.7373 0 1.3977.161 1.981.483.5833.322 1.0407.77 1.372 1.344.3313.574.497 1.225.497 1.953s-.1657 1.379-.497 1.953c-.3313.574-.7887 1.0243-1.372 1.351-.5833.3267-1.2437.49-1.981.49zm0-1.176c.476 0 .903-.1097 1.281-.329.378-.2193.6743-.5273.889-.924.2147-.3967.322-.8517.322-1.365s-.1073-.9683-.322-1.365c-.2147-.3967-.511-.7023-.889-.917s-.805-.322-1.281-.322c-.476 0-.903.1073-1.281.322-.378.2147-.6767.5203-.896.917-.2193.3967-.329.8517-.329 1.365s.1097.9683.329 1.365c.2193.3967.518.7047.896.924.378.2193.805.329 1.281.329zm8.428-8.274c-.8027 0-1.204.434-1.204 1.302v.644h2.156v1.106h-2.128V11h-1.344V4.686h-1.26V3.58h1.26v-.658c0-.7373.2147-1.3207.644-1.75s1.0313-.644 1.806-.644c.2987 0 .5787.0373.84.112s.4853.182.672.322l-.406 1.022c-.308-.2333-.6533-.35-1.036-.35zm6.398 8.932c-.196.168-.4387.2963-.728.385a3.0408 3.0408 0 0 1-.896.133c-.7467 0-1.3253-.2007-1.736-.602-.4107-.4013-.616-.9753-.616-1.722V4.686h-1.26V3.58h1.26V1.956h1.344V3.58h2.128v1.106h-2.128v4.018c0 .4013.1003.7093.301.924s.4877.322.861.322c.4107 0 .7607-.1167 1.05-.35l.42.966zm2.086.518c-.2613 0-.4853-.091-.672-.273-.1867-.182-.28-.413-.28-.693 0-.2707.0933-.497.28-.679.1867-.182.4107-.273.672-.273.2613 0 .4807.0887.658.266s.266.406.266.686-.091.511-.273.693c-.182.182-.399.273-.651.273zm4.144-6.258c.2333-.4293.5787-.756 1.036-.98.4573-.224 1.0127-.336 1.666-.336v1.302c-.0747-.0093-.1773-.014-.308-.014-.728 0-1.2997.217-1.715.651-.4153.434-.623 1.0523-.623 1.855V11h-1.344V3.58h1.288v1.246zm11.368-1.246V11h-1.274V9.88c-.2707.3827-.6277.679-1.071.889-.4433.21-.9263.315-1.449.315-.9893 0-1.7687-.273-2.338-.819-.5693-.546-.854-1.351-.854-2.415V3.58h1.344v4.116c0 .7187.1727 1.2623.518 1.631.3453.3687.84.553 1.484.553.7093 0 1.2693-.2147 1.68-.644.4107-.4293.616-1.036.616-1.82V3.58h1.344z" fill="#0083F1" fill-rule="evenodd"/></svg>